<svg xmlns="http://www.w3.org/2000/svg" viewBox="0 0 960 960" width="960" height="960">
  <defs>
    <radialGradient id="disc" cx="46%" cy="44%" r="58%">
      <stop offset="0%"  stop-color="#f1f3f9"/>
      <stop offset="55%" stop-color="#d8dde9"/>
      <stop offset="100%" stop-color="#bac2d8"/>
    </radialGradient>
    <linearGradient id="blue" gradientUnits="objectBoundingBox" x1="0" y1="0" x2="0" y2="1">
      <stop offset="0%"   stop-color="#0a1a5e"/>
      <stop offset="35%"  stop-color="#0f3aa0"/>
      <stop offset="62%"  stop-color="#1e74d8"/>
      <stop offset="85%"  stop-color="#36a9f4"/>
      <stop offset="100%" stop-color="#8fe2ff"/>
    </linearGradient>
  </defs>

  <rect width="960" height="960" fill="#ffffff"/>
  <circle cx="476" cy="504" r="422" fill="url(#disc)"/>
  <circle cx="476" cy="504" r="421" fill="none" stroke="#aab2cb" stroke-width="2" opacity="0.6"/>

  <!-- drop shadow -->
  <g transform="translate(6,9) translate(0,960) scale(0.1,-0.1)"><path d="M7461 7967 c-12 -19 -21 -39 -21 -44 0 -6 -8 -21 -19 -34 -10 -13
-21 -33 -25 -44 -3 -11 -29 -65 -58 -120 -104 -197 -170 -364 -204 -515 -8
-36 -19 -74 -23 -85 -15 -33 -84 -462 -101 -625 -48 -450 -70 -1006 -70 -1751
0 -339 -4 -529 -10 -529 -5 0 -12 10 -14 23 -23 105 -131 522 -167 639 -16 53
-29 103 -29 111 0 8 -6 37 -14 63 -8 27 -19 67 -24 89 -5 22 -24 92 -41 155
-58 215 -122 464 -130 504 -5 23 -25 104 -45 181 -21 77 -57 217 -82 310 -62
241 -69 263 -77 271 -4 4 -7 16 -7 26 0 10 -9 35 -20 55 -11 21 -20 43 -20 50
0 24 -40 35 -101 28 -45 -5 -60 -4 -64 7 -7 21 -12 338 -5 338 12 0 50 -46 50
-61 0 -8 14 -30 30 -49 24 -30 30 -32 35 -18 6 16 -46 189 -78 258 -31 69 -70
77 -138 28 -24 -18 -90 -63 -147 -100 -80 -53 -107 -77 -120 -106 -16 -34 -17
-133 -20 -1137 -3 -1104 0 -1260 34 -1610 50 -522 55 -1056 12 -1275 -6 -30
-14 -80 -19 -110 -19 -131 -67 -298 -117 -415 -43 -99 -127 -220 -229 -328
-52 -56 -143 -160 -202 -231 -109 -132 -131 -160 -310 -382 -57 -71 -109 -135
-116 -143 -11 -11 -21 -7 -64 30 -31 27 -51 52 -51 65 0 11 -12 31 -26 45 -14
13 -33 40 -42 59 -9 19 -30 58 -47 85 -17 28 -36 61 -42 75 -36 80 -44 101
-49 129 -4 17 -13 36 -20 42 -8 6 -14 17 -14 24 0 6 -18 68 -40 136 -33 104
-40 138 -40 207 0 46 -5 93 -12 105 -9 17 -12 271 -13 1027 -1 748 -4 1012
-13 1033 -15 34 -41 33 -59 -3 -7 -14 -20 -25 -30 -25 -22 -1 -68 -29 -110
-68 -18 -17 -48 -33 -69 -36 -32 -5 -39 -11 -45 -36 -28 -125 -30 -189 -26
-1095 4 -784 7 -941 20 -1030 9 -58 21 -121 27 -140 5 -19 10 -47 10 -61 0
-15 6 -32 14 -38 8 -6 19 -42 26 -79 7 -37 18 -74 25 -82 7 -8 15 -26 18 -40
15 -66 26 -99 51 -144 14 -27 26 -57 26 -66 0 -9 11 -27 24 -39 13 -13 27 -34
30 -47 4 -13 20 -45 36 -71 17 -26 30 -53 30 -59 0 -28 53 -110 106 -166 93
-97 79 -93 313 -90 113 2 215 5 226 9 60 17 108 50 177 125 63 68 230 279 273
346 59 91 300 387 390 477 89 90 217 325 261 479 61 218 82 341 100 586 19
253 14 731 -11 1085 -8 121 -19 297 -25 390 -13 226 -13 1035 0 1035 5 0 12
-12 16 -27 3 -16 17 -66 29 -113 13 -47 51 -193 85 -325 34 -132 75 -292 91
-355 16 -63 39 -149 50 -190 11 -41 28 -109 38 -150 32 -133 131 -514 146
-560 8 -25 26 -94 40 -155 14 -60 41 -166 60 -235 39 -147 63 -240 75 -294 4
-21 19 -50 34 -64 25 -26 25 -26 51 -2 24 23 25 23 46 4 20 -18 21 -18 35 1 8
10 14 29 14 42 0 13 4 23 9 23 10 0 17 -63 27 -255 8 -164 8 -175 -3 -186 -9
-9 -65 64 -97 129 -9 17 -21 32 -26 32 -15 0 -23 -21 -11 -33 6 -6 11 -20 11
-30 0 -10 6 -31 14 -45 8 -15 28 -56 45 -92 64 -136 92 -149 182 -83 35 27 96
69 134 95 100 67 103 71 120 117 13 36 14 166 12 929 -4 1846 0 2076 49 2577
31 314 59 524 82 610 6 22 21 83 33 135 26 114 54 194 74 210 8 7 15 19 15 26
0 35 170 268 322 442 55 61 96 116 93 122 -4 6 -33 -4 -72 -25 -36 -19 -69
-35 -73 -35 -5 0 -39 -19 -76 -42 -38 -22 -94 -53 -124 -68 -30 -14 -70 -36
-89 -48 -19 -11 -39 -19 -43 -16 -5 3 -8 85 -7 182 1 112 -2 177 -9 180 -5 1
-19 -12 -31 -31z M4815 7788 c-32 -17 -273 -259 -305 -305 -66 -97 -65 -89 -65 -423 0
-226 3 -313 13 -335 21 -50 -2 -84 -149 -222 -202 -190 -361 -347 -389 -384
-25 -33 -25 -33 -23 -267 1 -129 5 -237 8 -240 3 -3 19 4 35 16 16 12 34 22
39 22 6 0 14 6 18 13 4 8 87 85 183 171 96 87 191 175 211 197 19 22 38 36 42
33 4 -4 7 -208 7 -453 0 -263 5 -464 11 -490 12 -56 3 -67 -69 -82 -79 -16
-125 -42 -207 -115 -38 -34 -104 -91 -145 -126 -94 -80 -113 -124 -104 -238
10 -119 38 -123 54 -8 13 87 17 97 55 112 35 15 387 27 400 14 4 -3 8 -125 9
-270 2 -322 1 -319 112 -374 41 -20 103 -58 137 -84 35 -25 70 -49 79 -53 34
-12 84 13 143 73 54 55 58 61 43 76 -11 12 -21 13 -34 6 -33 -16 -83 -22 -90
-10 -8 13 -6 232 3 254 9 23 23 16 23 -11 0 -18 7 -28 25 -35 14 -5 30 -21 35
-35 5 -14 14 -25 20 -25 5 0 19 -9 30 -20 28 -28 51 -25 95 10 59 47 145 141
160 176 8 17 21 36 29 44 35 28 19 62 -59 129 -41 35 -75 73 -77 85 -4 31 -43
32 -87 2 -20 -14 -42 -26 -48 -26 -7 0 -42 -34 -79 -75 -37 -42 -71 -72 -75
-68 -4 5 -9 57 -11 117 -3 110 -3 110 24 117 15 4 69 5 120 3 51 -3 172 -6
269 -7 159 -2 179 -4 198 -21 19 -17 23 -18 35 -5 8 8 21 34 29 59 15 43 14
51 -9 140 -14 52 -29 99 -34 104 -6 6 -10 18 -10 27 0 10 -21 29 -47 46 -48
28 -48 28 -308 31 -216 2 -262 5 -274 17 -13 13 -13 19 -3 35 10 16 12 166 12
668 l-1 647 227 211 c124 116 231 218 236 227 5 10 14 17 20 17 7 0 50 37 97
83 47 45 148 140 224 211 77 71 143 139 148 150 5 12 18 32 29 46 24 30 37
121 23 153 -5 12 -22 47 -36 77 -14 30 -35 78 -47 105 -39 90 -18 85 -319 85
-146 0 -304 -5 -351 -10 -69 -8 -88 -7 -107 5 -26 17 -119 20 -148 3z m142
-44 c4 -10 -1 -22 -10 -29 -10 -7 -22 -36 -27 -66 -7 -34 -18 -60 -31 -70 -14
-10 -23 -31 -26 -62 -11 -96 -33 -31 -33 99 0 66 2 72 33 101 47 45 83 55 94
27z m617 -7 c11 -8 17 -18 15 -23 -2 -5 -34 -37 -71 -72 -60 -57 -70 -63 -103
-60 -37 3 -37 3 0 41 33 34 36 42 31 73 -6 30 -4 36 16 44 34 13 92 12 112 -3z
m-709 -307 c4 -6 81 -9 208 -8 138 2 202 0 202 -8 0 -15 -435 -416 -447 -412
-16 6 -11 394 5 419 13 21 23 24 32 9z M3383 7762 c-14 -9 -103 -120 -155 -192 -131 -184 -599 -731 -741
-866 -126 -119 -180 -149 -392 -217 -143 -46 -291 -87 -314 -87 -9 0 -25 -6
-35 -13 -40 -29 14 -43 276 -68 70 -6 135 -17 143 -23 13 -9 4 -26 -56 -106
-73 -97 -104 -148 -96 -156 9 -9 59 9 64 22 3 8 15 14 27 14 11 0 35 9 52 19
17 11 76 42 130 71 55 28 106 58 115 66 8 8 19 14 24 14 16 0 120 75 230 166
204 169 685 689 704 761 5 18 14 28 27 28 19 0 19 -39 21 -2538 1 -1397 -2
-2585 -5 -2640 -7 -99 -8 -102 -32 -105 -29 -3 -107 66 -154 136 -16 23 -32
42 -37 42 -22 0 -16 -24 18 -68 21 -27 56 -73 78 -101 22 -29 58 -73 80 -98
40 -45 40 -45 102 -40 53 5 73 13 125 49 83 57 97 65 140 84 74 33 68 -225 68
2808 0 1978 -3 2740 -11 2778 -24 111 -60 154 -164 192 -38 15 -79 30 -90 35
-41 19 -106 41 -118 41 -6 0 -18 -4 -24 -8z m12 -92 c15 -17 17 -37 13 -184
-2 -91 -6 -168 -10 -171 -8 -9 -77 66 -78 83 0 8 -20 37 -45 65 -25 29 -45 57
-45 63 0 6 10 19 21 30 12 10 32 36 45 56 24 37 62 78 74 78 4 0 15 -9 25 -20z M3255 5505 c-63 -51 -140 -122 -340 -310 -237 -224 -599 -563 -694
-648 -143 -131 -191 -179 -191 -192 0 -7 -7 -18 -15 -25 -8 -7 -26 -36 -40
-66 -27 -57 -36 -131 -52 -411 -7 -128 -4 -134 95 -253 62 -74 72 -81 72 -50
0 24 -23 70 -58 113 -16 21 -22 42 -22 77 0 42 4 52 33 75 17 15 34 33 37 39
3 7 31 36 64 65 32 29 72 69 90 89 29 33 391 379 751 716 209 197 274 261 300
296 20 27 22 41 24 222 1 106 6 197 12 203 16 16 10 64 -10 75 -25 13 -21 14
-56 -15z M2396 3635 c-3 -8 -13 -15 -21 -15 -18 0 -103 -54 -122 -78 -7 -9
-13 -28 -13 -44 0 -32 -10 -35 -45 -12 -13 9 -29 13 -35 9 -13 -8 -13 -52 0
-60 9 -6 42 -51 75 -104 6 -9 25 -33 43 -54 17 -20 32 -42 32 -48 0 -6 12 -23
28 -38 29 -29 122 -155 122 -166 0 -4 23 -32 50 -64 28 -32 50 -63 50 -69 0
-6 9 -16 21 -22 11 -7 27 -26 34 -44 7 -17 23 -40 34 -50 12 -11 21 -25 21
-31 0 -7 11 -20 25 -29 14 -9 25 -21 25 -28 0 -6 16 -28 35 -49 19 -22 35 -44
35 -50 0 -7 9 -21 21 -33 33 -35 129 -158 129 -167 0 -4 20 -29 45 -55 42 -42
47 -45 63 -32 16 15 33 20 112 36 23 5 36 14 39 27 3 20 52 70 87 91 16 9 17
14 4 45 -7 19 -22 43 -32 55 -10 11 -18 27 -18 36 0 8 -9 23 -20 33 -11 10
-20 22 -20 28 0 9 -7 18 -105 139 -30 36 -55 70 -55 73 0 4 -12 19 -27 34 -16
15 -37 42 -48 61 -39 66 -43 72 -64 86 -11 8 -21 21 -21 28 0 6 -16 27 -35 46
-19 19 -35 38 -35 43 0 5 -19 32 -42 60 -24 29 -47 59 -53 68 -20 33 -110 152
-131 173 -11 11 -23 29 -27 39 -3 9 -11 17 -18 17 -12 0 -119 108 -119 121 0
15 -17 10 -24 -6z" fill="#05091f" opacity="0.45"/></g>
  <g transform="translate(0,960) scale(0.1,-0.1)">
    <path d="M7461 7967 c-12 -19 -21 -39 -21 -44 0 -6 -8 -21 -19 -34 -10 -13
-21 -33 -25 -44 -3 -11 -29 -65 -58 -120 -104 -197 -170 -364 -204 -515 -8
-36 -19 -74 -23 -85 -15 -33 -84 -462 -101 -625 -48 -450 -70 -1006 -70 -1751
0 -339 -4 -529 -10 -529 -5 0 -12 10 -14 23 -23 105 -131 522 -167 639 -16 53
-29 103 -29 111 0 8 -6 37 -14 63 -8 27 -19 67 -24 89 -5 22 -24 92 -41 155
-58 215 -122 464 -130 504 -5 23 -25 104 -45 181 -21 77 -57 217 -82 310 -62
241 -69 263 -77 271 -4 4 -7 16 -7 26 0 10 -9 35 -20 55 -11 21 -20 43 -20 50
0 24 -40 35 -101 28 -45 -5 -60 -4 -64 7 -7 21 -12 338 -5 338 12 0 50 -46 50
-61 0 -8 14 -30 30 -49 24 -30 30 -32 35 -18 6 16 -46 189 -78 258 -31 69 -70
77 -138 28 -24 -18 -90 -63 -147 -100 -80 -53 -107 -77 -120 -106 -16 -34 -17
-133 -20 -1137 -3 -1104 0 -1260 34 -1610 50 -522 55 -1056 12 -1275 -6 -30
-14 -80 -19 -110 -19 -131 -67 -298 -117 -415 -43 -99 -127 -220 -229 -328
-52 -56 -143 -160 -202 -231 -109 -132 -131 -160 -310 -382 -57 -71 -109 -135
-116 -143 -11 -11 -21 -7 -64 30 -31 27 -51 52 -51 65 0 11 -12 31 -26 45 -14
13 -33 40 -42 59 -9 19 -30 58 -47 85 -17 28 -36 61 -42 75 -36 80 -44 101
-49 129 -4 17 -13 36 -20 42 -8 6 -14 17 -14 24 0 6 -18 68 -40 136 -33 104
-40 138 -40 207 0 46 -5 93 -12 105 -9 17 -12 271 -13 1027 -1 748 -4 1012
-13 1033 -15 34 -41 33 -59 -3 -7 -14 -20 -25 -30 -25 -22 -1 -68 -29 -110
-68 -18 -17 -48 -33 -69 -36 -32 -5 -39 -11 -45 -36 -28 -125 -30 -189 -26
-1095 4 -784 7 -941 20 -1030 9 -58 21 -121 27 -140 5 -19 10 -47 10 -61 0
-15 6 -32 14 -38 8 -6 19 -42 26 -79 7 -37 18 -74 25 -82 7 -8 15 -26 18 -40
15 -66 26 -99 51 -144 14 -27 26 -57 26 -66 0 -9 11 -27 24 -39 13 -13 27 -34
30 -47 4 -13 20 -45 36 -71 17 -26 30 -53 30 -59 0 -28 53 -110 106 -166 93
-97 79 -93 313 -90 113 2 215 5 226 9 60 17 108 50 177 125 63 68 230 279 273
346 59 91 300 387 390 477 89 90 217 325 261 479 61 218 82 341 100 586 19
253 14 731 -11 1085 -8 121 -19 297 -25 390 -13 226 -13 1035 0 1035 5 0 12
-12 16 -27 3 -16 17 -66 29 -113 13 -47 51 -193 85 -325 34 -132 75 -292 91
-355 16 -63 39 -149 50 -190 11 -41 28 -109 38 -150 32 -133 131 -514 146
-560 8 -25 26 -94 40 -155 14 -60 41 -166 60 -235 39 -147 63 -240 75 -294 4
-21 19 -50 34 -64 25 -26 25 -26 51 -2 24 23 25 23 46 4 20 -18 21 -18 35 1 8
10 14 29 14 42 0 13 4 23 9 23 10 0 17 -63 27 -255 8 -164 8 -175 -3 -186 -9
-9 -65 64 -97 129 -9 17 -21 32 -26 32 -15 0 -23 -21 -11 -33 6 -6 11 -20 11
-30 0 -10 6 -31 14 -45 8 -15 28 -56 45 -92 64 -136 92 -149 182 -83 35 27 96
69 134 95 100 67 103 71 120 117 13 36 14 166 12 929 -4 1846 0 2076 49 2577
31 314 59 524 82 610 6 22 21 83 33 135 26 114 54 194 74 210 8 7 15 19 15 26
0 35 170 268 322 442 55 61 96 116 93 122 -4 6 -33 -4 -72 -25 -36 -19 -69
-35 -73 -35 -5 0 -39 -19 -76 -42 -38 -22 -94 -53 -124 -68 -30 -14 -70 -36
-89 -48 -19 -11 -39 -19 -43 -16 -5 3 -8 85 -7 182 1 112 -2 177 -9 180 -5 1
-19 -12 -31 -31z M4815 7788 c-32 -17 -273 -259 -305 -305 -66 -97 -65 -89 -65 -423 0
-226 3 -313 13 -335 21 -50 -2 -84 -149 -222 -202 -190 -361 -347 -389 -384
-25 -33 -25 -33 -23 -267 1 -129 5 -237 8 -240 3 -3 19 4 35 16 16 12 34 22
39 22 6 0 14 6 18 13 4 8 87 85 183 171 96 87 191 175 211 197 19 22 38 36 42
33 4 -4 7 -208 7 -453 0 -263 5 -464 11 -490 12 -56 3 -67 -69 -82 -79 -16
-125 -42 -207 -115 -38 -34 -104 -91 -145 -126 -94 -80 -113 -124 -104 -238
10 -119 38 -123 54 -8 13 87 17 97 55 112 35 15 387 27 400 14 4 -3 8 -125 9
-270 2 -322 1 -319 112 -374 41 -20 103 -58 137 -84 35 -25 70 -49 79 -53 34
-12 84 13 143 73 54 55 58 61 43 76 -11 12 -21 13 -34 6 -33 -16 -83 -22 -90
-10 -8 13 -6 232 3 254 9 23 23 16 23 -11 0 -18 7 -28 25 -35 14 -5 30 -21 35
-35 5 -14 14 -25 20 -25 5 0 19 -9 30 -20 28 -28 51 -25 95 10 59 47 145 141
160 176 8 17 21 36 29 44 35 28 19 62 -59 129 -41 35 -75 73 -77 85 -4 31 -43
32 -87 2 -20 -14 -42 -26 -48 -26 -7 0 -42 -34 -79 -75 -37 -42 -71 -72 -75
-68 -4 5 -9 57 -11 117 -3 110 -3 110 24 117 15 4 69 5 120 3 51 -3 172 -6
269 -7 159 -2 179 -4 198 -21 19 -17 23 -18 35 -5 8 8 21 34 29 59 15 43 14
51 -9 140 -14 52 -29 99 -34 104 -6 6 -10 18 -10 27 0 10 -21 29 -47 46 -48
28 -48 28 -308 31 -216 2 -262 5 -274 17 -13 13 -13 19 -3 35 10 16 12 166 12
668 l-1 647 227 211 c124 116 231 218 236 227 5 10 14 17 20 17 7 0 50 37 97
83 47 45 148 140 224 211 77 71 143 139 148 150 5 12 18 32 29 46 24 30 37
121 23 153 -5 12 -22 47 -36 77 -14 30 -35 78 -47 105 -39 90 -18 85 -319 85
-146 0 -304 -5 -351 -10 -69 -8 -88 -7 -107 5 -26 17 -119 20 -148 3z m142
-44 c4 -10 -1 -22 -10 -29 -10 -7 -22 -36 -27 -66 -7 -34 -18 -60 -31 -70 -14
-10 -23 -31 -26 -62 -11 -96 -33 -31 -33 99 0 66 2 72 33 101 47 45 83 55 94
27z m617 -7 c11 -8 17 -18 15 -23 -2 -5 -34 -37 -71 -72 -60 -57 -70 -63 -103
-60 -37 3 -37 3 0 41 33 34 36 42 31 73 -6 30 -4 36 16 44 34 13 92 12 112 -3z
m-709 -307 c4 -6 81 -9 208 -8 138 2 202 0 202 -8 0 -15 -435 -416 -447 -412
-16 6 -11 394 5 419 13 21 23 24 32 9z M3383 7762 c-14 -9 -103 -120 -155 -192 -131 -184 -599 -731 -741
-866 -126 -119 -180 -149 -392 -217 -143 -46 -291 -87 -314 -87 -9 0 -25 -6
-35 -13 -40 -29 14 -43 276 -68 70 -6 135 -17 143 -23 13 -9 4 -26 -56 -106
-73 -97 -104 -148 -96 -156 9 -9 59 9 64 22 3 8 15 14 27 14 11 0 35 9 52 19
17 11 76 42 130 71 55 28 106 58 115 66 8 8 19 14 24 14 16 0 120 75 230 166
204 169 685 689 704 761 5 18 14 28 27 28 19 0 19 -39 21 -2538 1 -1397 -2
-2585 -5 -2640 -7 -99 -8 -102 -32 -105 -29 -3 -107 66 -154 136 -16 23 -32
42 -37 42 -22 0 -16 -24 18 -68 21 -27 56 -73 78 -101 22 -29 58 -73 80 -98
40 -45 40 -45 102 -40 53 5 73 13 125 49 83 57 97 65 140 84 74 33 68 -225 68
2808 0 1978 -3 2740 -11 2778 -24 111 -60 154 -164 192 -38 15 -79 30 -90 35
-41 19 -106 41 -118 41 -6 0 -18 -4 -24 -8z m12 -92 c15 -17 17 -37 13 -184
-2 -91 -6 -168 -10 -171 -8 -9 -77 66 -78 83 0 8 -20 37 -45 65 -25 29 -45 57
-45 63 0 6 10 19 21 30 12 10 32 36 45 56 24 37 62 78 74 78 4 0 15 -9 25 -20z M3255 5505 c-63 -51 -140 -122 -340 -310 -237 -224 -599 -563 -694
-648 -143 -131 -191 -179 -191 -192 0 -7 -7 -18 -15 -25 -8 -7 -26 -36 -40
-66 -27 -57 -36 -131 -52 -411 -7 -128 -4 -134 95 -253 62 -74 72 -81 72 -50
0 24 -23 70 -58 113 -16 21 -22 42 -22 77 0 42 4 52 33 75 17 15 34 33 37 39
3 7 31 36 64 65 32 29 72 69 90 89 29 33 391 379 751 716 209 197 274 261 300
296 20 27 22 41 24 222 1 106 6 197 12 203 16 16 10 64 -10 75 -25 13 -21 14
-56 -15z M2396 3635 c-3 -8 -13 -15 -21 -15 -18 0 -103 -54 -122 -78 -7 -9
-13 -28 -13 -44 0 -32 -10 -35 -45 -12 -13 9 -29 13 -35 9 -13 -8 -13 -52 0
-60 9 -6 42 -51 75 -104 6 -9 25 -33 43 -54 17 -20 32 -42 32 -48 0 -6 12 -23
28 -38 29 -29 122 -155 122 -166 0 -4 23 -32 50 -64 28 -32 50 -63 50 -69 0
-6 9 -16 21 -22 11 -7 27 -26 34 -44 7 -17 23 -40 34 -50 12 -11 21 -25 21
-31 0 -7 11 -20 25 -29 14 -9 25 -21 25 -28 0 -6 16 -28 35 -49 19 -22 35 -44
35 -50 0 -7 9 -21 21 -33 33 -35 129 -158 129 -167 0 -4 20 -29 45 -55 42 -42
47 -45 63 -32 16 15 33 20 112 36 23 5 36 14 39 27 3 20 52 70 87 91 16 9 17
14 4 45 -7 19 -22 43 -32 55 -10 11 -18 27 -18 36 0 8 -9 23 -20 33 -11 10
-20 22 -20 28 0 9 -7 18 -105 139 -30 36 -55 70 -55 73 0 4 -12 19 -27 34 -16
15 -37 42 -48 61 -39 66 -43 72 -64 86 -11 8 -21 21 -21 28 0 6 -16 27 -35 46
-19 19 -35 38 -35 43 0 5 -19 32 -42 60 -24 29 -47 59 -53 68 -20 33 -110 152
-131 173 -11 11 -23 29 -27 39 -3 9 -11 17 -18 17 -12 0 -119 108 -119 121 0
15 -17 10 -24 -6z" fill="#ffffff" stroke="#ffffff" stroke-width="52" stroke-linejoin="round" stroke-linecap="round"/>
    <path d="M7461 7967 c-12 -19 -21 -39 -21 -44 0 -6 -8 -21 -19 -34 -10 -13
-21 -33 -25 -44 -3 -11 -29 -65 -58 -120 -104 -197 -170 -364 -204 -515 -8
-36 -19 -74 -23 -85 -15 -33 -84 -462 -101 -625 -48 -450 -70 -1006 -70 -1751
0 -339 -4 -529 -10 -529 -5 0 -12 10 -14 23 -23 105 -131 522 -167 639 -16 53
-29 103 -29 111 0 8 -6 37 -14 63 -8 27 -19 67 -24 89 -5 22 -24 92 -41 155
-58 215 -122 464 -130 504 -5 23 -25 104 -45 181 -21 77 -57 217 -82 310 -62
241 -69 263 -77 271 -4 4 -7 16 -7 26 0 10 -9 35 -20 55 -11 21 -20 43 -20 50
0 24 -40 35 -101 28 -45 -5 -60 -4 -64 7 -7 21 -12 338 -5 338 12 0 50 -46 50
-61 0 -8 14 -30 30 -49 24 -30 30 -32 35 -18 6 16 -46 189 -78 258 -31 69 -70
77 -138 28 -24 -18 -90 -63 -147 -100 -80 -53 -107 -77 -120 -106 -16 -34 -17
-133 -20 -1137 -3 -1104 0 -1260 34 -1610 50 -522 55 -1056 12 -1275 -6 -30
-14 -80 -19 -110 -19 -131 -67 -298 -117 -415 -43 -99 -127 -220 -229 -328
-52 -56 -143 -160 -202 -231 -109 -132 -131 -160 -310 -382 -57 -71 -109 -135
-116 -143 -11 -11 -21 -7 -64 30 -31 27 -51 52 -51 65 0 11 -12 31 -26 45 -14
13 -33 40 -42 59 -9 19 -30 58 -47 85 -17 28 -36 61 -42 75 -36 80 -44 101
-49 129 -4 17 -13 36 -20 42 -8 6 -14 17 -14 24 0 6 -18 68 -40 136 -33 104
-40 138 -40 207 0 46 -5 93 -12 105 -9 17 -12 271 -13 1027 -1 748 -4 1012
-13 1033 -15 34 -41 33 -59 -3 -7 -14 -20 -25 -30 -25 -22 -1 -68 -29 -110
-68 -18 -17 -48 -33 -69 -36 -32 -5 -39 -11 -45 -36 -28 -125 -30 -189 -26
-1095 4 -784 7 -941 20 -1030 9 -58 21 -121 27 -140 5 -19 10 -47 10 -61 0
-15 6 -32 14 -38 8 -6 19 -42 26 -79 7 -37 18 -74 25 -82 7 -8 15 -26 18 -40
15 -66 26 -99 51 -144 14 -27 26 -57 26 -66 0 -9 11 -27 24 -39 13 -13 27 -34
30 -47 4 -13 20 -45 36 -71 17 -26 30 -53 30 -59 0 -28 53 -110 106 -166 93
-97 79 -93 313 -90 113 2 215 5 226 9 60 17 108 50 177 125 63 68 230 279 273
346 59 91 300 387 390 477 89 90 217 325 261 479 61 218 82 341 100 586 19
253 14 731 -11 1085 -8 121 -19 297 -25 390 -13 226 -13 1035 0 1035 5 0 12
-12 16 -27 3 -16 17 -66 29 -113 13 -47 51 -193 85 -325 34 -132 75 -292 91
-355 16 -63 39 -149 50 -190 11 -41 28 -109 38 -150 32 -133 131 -514 146
-560 8 -25 26 -94 40 -155 14 -60 41 -166 60 -235 39 -147 63 -240 75 -294 4
-21 19 -50 34 -64 25 -26 25 -26 51 -2 24 23 25 23 46 4 20 -18 21 -18 35 1 8
10 14 29 14 42 0 13 4 23 9 23 10 0 17 -63 27 -255 8 -164 8 -175 -3 -186 -9
-9 -65 64 -97 129 -9 17 -21 32 -26 32 -15 0 -23 -21 -11 -33 6 -6 11 -20 11
-30 0 -10 6 -31 14 -45 8 -15 28 -56 45 -92 64 -136 92 -149 182 -83 35 27 96
69 134 95 100 67 103 71 120 117 13 36 14 166 12 929 -4 1846 0 2076 49 2577
31 314 59 524 82 610 6 22 21 83 33 135 26 114 54 194 74 210 8 7 15 19 15 26
0 35 170 268 322 442 55 61 96 116 93 122 -4 6 -33 -4 -72 -25 -36 -19 -69
-35 -73 -35 -5 0 -39 -19 -76 -42 -38 -22 -94 -53 -124 -68 -30 -14 -70 -36
-89 -48 -19 -11 -39 -19 -43 -16 -5 3 -8 85 -7 182 1 112 -2 177 -9 180 -5 1
-19 -12 -31 -31z M4815 7788 c-32 -17 -273 -259 -305 -305 -66 -97 -65 -89 -65 -423 0
-226 3 -313 13 -335 21 -50 -2 -84 -149 -222 -202 -190 -361 -347 -389 -384
-25 -33 -25 -33 -23 -267 1 -129 5 -237 8 -240 3 -3 19 4 35 16 16 12 34 22
39 22 6 0 14 6 18 13 4 8 87 85 183 171 96 87 191 175 211 197 19 22 38 36 42
33 4 -4 7 -208 7 -453 0 -263 5 -464 11 -490 12 -56 3 -67 -69 -82 -79 -16
-125 -42 -207 -115 -38 -34 -104 -91 -145 -126 -94 -80 -113 -124 -104 -238
10 -119 38 -123 54 -8 13 87 17 97 55 112 35 15 387 27 400 14 4 -3 8 -125 9
-270 2 -322 1 -319 112 -374 41 -20 103 -58 137 -84 35 -25 70 -49 79 -53 34
-12 84 13 143 73 54 55 58 61 43 76 -11 12 -21 13 -34 6 -33 -16 -83 -22 -90
-10 -8 13 -6 232 3 254 9 23 23 16 23 -11 0 -18 7 -28 25 -35 14 -5 30 -21 35
-35 5 -14 14 -25 20 -25 5 0 19 -9 30 -20 28 -28 51 -25 95 10 59 47 145 141
160 176 8 17 21 36 29 44 35 28 19 62 -59 129 -41 35 -75 73 -77 85 -4 31 -43
32 -87 2 -20 -14 -42 -26 -48 -26 -7 0 -42 -34 -79 -75 -37 -42 -71 -72 -75
-68 -4 5 -9 57 -11 117 -3 110 -3 110 24 117 15 4 69 5 120 3 51 -3 172 -6
269 -7 159 -2 179 -4 198 -21 19 -17 23 -18 35 -5 8 8 21 34 29 59 15 43 14
51 -9 140 -14 52 -29 99 -34 104 -6 6 -10 18 -10 27 0 10 -21 29 -47 46 -48
28 -48 28 -308 31 -216 2 -262 5 -274 17 -13 13 -13 19 -3 35 10 16 12 166 12
668 l-1 647 227 211 c124 116 231 218 236 227 5 10 14 17 20 17 7 0 50 37 97
83 47 45 148 140 224 211 77 71 143 139 148 150 5 12 18 32 29 46 24 30 37
121 23 153 -5 12 -22 47 -36 77 -14 30 -35 78 -47 105 -39 90 -18 85 -319 85
-146 0 -304 -5 -351 -10 -69 -8 -88 -7 -107 5 -26 17 -119 20 -148 3z m142
-44 c4 -10 -1 -22 -10 -29 -10 -7 -22 -36 -27 -66 -7 -34 -18 -60 -31 -70 -14
-10 -23 -31 -26 -62 -11 -96 -33 -31 -33 99 0 66 2 72 33 101 47 45 83 55 94
27z m617 -7 c11 -8 17 -18 15 -23 -2 -5 -34 -37 -71 -72 -60 -57 -70 -63 -103
-60 -37 3 -37 3 0 41 33 34 36 42 31 73 -6 30 -4 36 16 44 34 13 92 12 112 -3z
m-709 -307 c4 -6 81 -9 208 -8 138 2 202 0 202 -8 0 -15 -435 -416 -447 -412
-16 6 -11 394 5 419 13 21 23 24 32 9z M3383 7762 c-14 -9 -103 -120 -155 -192 -131 -184 -599 -731 -741
-866 -126 -119 -180 -149 -392 -217 -143 -46 -291 -87 -314 -87 -9 0 -25 -6
-35 -13 -40 -29 14 -43 276 -68 70 -6 135 -17 143 -23 13 -9 4 -26 -56 -106
-73 -97 -104 -148 -96 -156 9 -9 59 9 64 22 3 8 15 14 27 14 11 0 35 9 52 19
17 11 76 42 130 71 55 28 106 58 115 66 8 8 19 14 24 14 16 0 120 75 230 166
204 169 685 689 704 761 5 18 14 28 27 28 19 0 19 -39 21 -2538 1 -1397 -2
-2585 -5 -2640 -7 -99 -8 -102 -32 -105 -29 -3 -107 66 -154 136 -16 23 -32
42 -37 42 -22 0 -16 -24 18 -68 21 -27 56 -73 78 -101 22 -29 58 -73 80 -98
40 -45 40 -45 102 -40 53 5 73 13 125 49 83 57 97 65 140 84 74 33 68 -225 68
2808 0 1978 -3 2740 -11 2778 -24 111 -60 154 -164 192 -38 15 -79 30 -90 35
-41 19 -106 41 -118 41 -6 0 -18 -4 -24 -8z m12 -92 c15 -17 17 -37 13 -184
-2 -91 -6 -168 -10 -171 -8 -9 -77 66 -78 83 0 8 -20 37 -45 65 -25 29 -45 57
-45 63 0 6 10 19 21 30 12 10 32 36 45 56 24 37 62 78 74 78 4 0 15 -9 25 -20z M3255 5505 c-63 -51 -140 -122 -340 -310 -237 -224 -599 -563 -694
-648 -143 -131 -191 -179 -191 -192 0 -7 -7 -18 -15 -25 -8 -7 -26 -36 -40
-66 -27 -57 -36 -131 -52 -411 -7 -128 -4 -134 95 -253 62 -74 72 -81 72 -50
0 24 -23 70 -58 113 -16 21 -22 42 -22 77 0 42 4 52 33 75 17 15 34 33 37 39
3 7 31 36 64 65 32 29 72 69 90 89 29 33 391 379 751 716 209 197 274 261 300
296 20 27 22 41 24 222 1 106 6 197 12 203 16 16 10 64 -10 75 -25 13 -21 14
-56 -15z M2396 3635 c-3 -8 -13 -15 -21 -15 -18 0 -103 -54 -122 -78 -7 -9
-13 -28 -13 -44 0 -32 -10 -35 -45 -12 -13 9 -29 13 -35 9 -13 -8 -13 -52 0
-60 9 -6 42 -51 75 -104 6 -9 25 -33 43 -54 17 -20 32 -42 32 -48 0 -6 12 -23
28 -38 29 -29 122 -155 122 -166 0 -4 23 -32 50 -64 28 -32 50 -63 50 -69 0
-6 9 -16 21 -22 11 -7 27 -26 34 -44 7 -17 23 -40 34 -50 12 -11 21 -25 21
-31 0 -7 11 -20 25 -29 14 -9 25 -21 25 -28 0 -6 16 -28 35 -49 19 -22 35 -44
35 -50 0 -7 9 -21 21 -33 33 -35 129 -158 129 -167 0 -4 20 -29 45 -55 42 -42
47 -45 63 -32 16 15 33 20 112 36 23 5 36 14 39 27 3 20 52 70 87 91 16 9 17
14 4 45 -7 19 -22 43 -32 55 -10 11 -18 27 -18 36 0 8 -9 23 -20 33 -11 10
-20 22 -20 28 0 9 -7 18 -105 139 -30 36 -55 70 -55 73 0 4 -12 19 -27 34 -16
15 -37 42 -48 61 -39 66 -43 72 -64 86 -11 8 -21 21 -21 28 0 6 -16 27 -35 46
-19 19 -35 38 -35 43 0 5 -19 32 -42 60 -24 29 -47 59 -53 68 -20 33 -110 152
-131 173 -11 11 -23 29 -27 39 -3 9 -11 17 -18 17 -12 0 -119 108 -119 121 0
15 -17 10 -24 -6z" fill="none" stroke="#0a1a52" stroke-width="20" stroke-linejoin="round"/>
    <path d="M7461 7967 c-12 -19 -21 -39 -21 -44 0 -6 -8 -21 -19 -34 -10 -13
-21 -33 -25 -44 -3 -11 -29 -65 -58 -120 -104 -197 -170 -364 -204 -515 -8
-36 -19 -74 -23 -85 -15 -33 -84 -462 -101 -625 -48 -450 -70 -1006 -70 -1751
0 -339 -4 -529 -10 -529 -5 0 -12 10 -14 23 -23 105 -131 522 -167 639 -16 53
-29 103 -29 111 0 8 -6 37 -14 63 -8 27 -19 67 -24 89 -5 22 -24 92 -41 155
-58 215 -122 464 -130 504 -5 23 -25 104 -45 181 -21 77 -57 217 -82 310 -62
241 -69 263 -77 271 -4 4 -7 16 -7 26 0 10 -9 35 -20 55 -11 21 -20 43 -20 50
0 24 -40 35 -101 28 -45 -5 -60 -4 -64 7 -7 21 -12 338 -5 338 12 0 50 -46 50
-61 0 -8 14 -30 30 -49 24 -30 30 -32 35 -18 6 16 -46 189 -78 258 -31 69 -70
77 -138 28 -24 -18 -90 -63 -147 -100 -80 -53 -107 -77 -120 -106 -16 -34 -17
-133 -20 -1137 -3 -1104 0 -1260 34 -1610 50 -522 55 -1056 12 -1275 -6 -30
-14 -80 -19 -110 -19 -131 -67 -298 -117 -415 -43 -99 -127 -220 -229 -328
-52 -56 -143 -160 -202 -231 -109 -132 -131 -160 -310 -382 -57 -71 -109 -135
-116 -143 -11 -11 -21 -7 -64 30 -31 27 -51 52 -51 65 0 11 -12 31 -26 45 -14
13 -33 40 -42 59 -9 19 -30 58 -47 85 -17 28 -36 61 -42 75 -36 80 -44 101
-49 129 -4 17 -13 36 -20 42 -8 6 -14 17 -14 24 0 6 -18 68 -40 136 -33 104
-40 138 -40 207 0 46 -5 93 -12 105 -9 17 -12 271 -13 1027 -1 748 -4 1012
-13 1033 -15 34 -41 33 -59 -3 -7 -14 -20 -25 -30 -25 -22 -1 -68 -29 -110
-68 -18 -17 -48 -33 -69 -36 -32 -5 -39 -11 -45 -36 -28 -125 -30 -189 -26
-1095 4 -784 7 -941 20 -1030 9 -58 21 -121 27 -140 5 -19 10 -47 10 -61 0
-15 6 -32 14 -38 8 -6 19 -42 26 -79 7 -37 18 -74 25 -82 7 -8 15 -26 18 -40
15 -66 26 -99 51 -144 14 -27 26 -57 26 -66 0 -9 11 -27 24 -39 13 -13 27 -34
30 -47 4 -13 20 -45 36 -71 17 -26 30 -53 30 -59 0 -28 53 -110 106 -166 93
-97 79 -93 313 -90 113 2 215 5 226 9 60 17 108 50 177 125 63 68 230 279 273
346 59 91 300 387 390 477 89 90 217 325 261 479 61 218 82 341 100 586 19
253 14 731 -11 1085 -8 121 -19 297 -25 390 -13 226 -13 1035 0 1035 5 0 12
-12 16 -27 3 -16 17 -66 29 -113 13 -47 51 -193 85 -325 34 -132 75 -292 91
-355 16 -63 39 -149 50 -190 11 -41 28 -109 38 -150 32 -133 131 -514 146
-560 8 -25 26 -94 40 -155 14 -60 41 -166 60 -235 39 -147 63 -240 75 -294 4
-21 19 -50 34 -64 25 -26 25 -26 51 -2 24 23 25 23 46 4 20 -18 21 -18 35 1 8
10 14 29 14 42 0 13 4 23 9 23 10 0 17 -63 27 -255 8 -164 8 -175 -3 -186 -9
-9 -65 64 -97 129 -9 17 -21 32 -26 32 -15 0 -23 -21 -11 -33 6 -6 11 -20 11
-30 0 -10 6 -31 14 -45 8 -15 28 -56 45 -92 64 -136 92 -149 182 -83 35 27 96
69 134 95 100 67 103 71 120 117 13 36 14 166 12 929 -4 1846 0 2076 49 2577
31 314 59 524 82 610 6 22 21 83 33 135 26 114 54 194 74 210 8 7 15 19 15 26
0 35 170 268 322 442 55 61 96 116 93 122 -4 6 -33 -4 -72 -25 -36 -19 -69
-35 -73 -35 -5 0 -39 -19 -76 -42 -38 -22 -94 -53 -124 -68 -30 -14 -70 -36
-89 -48 -19 -11 -39 -19 -43 -16 -5 3 -8 85 -7 182 1 112 -2 177 -9 180 -5 1
-19 -12 -31 -31z M4815 7788 c-32 -17 -273 -259 -305 -305 -66 -97 -65 -89 -65 -423 0
-226 3 -313 13 -335 21 -50 -2 -84 -149 -222 -202 -190 -361 -347 -389 -384
-25 -33 -25 -33 -23 -267 1 -129 5 -237 8 -240 3 -3 19 4 35 16 16 12 34 22
39 22 6 0 14 6 18 13 4 8 87 85 183 171 96 87 191 175 211 197 19 22 38 36 42
33 4 -4 7 -208 7 -453 0 -263 5 -464 11 -490 12 -56 3 -67 -69 -82 -79 -16
-125 -42 -207 -115 -38 -34 -104 -91 -145 -126 -94 -80 -113 -124 -104 -238
10 -119 38 -123 54 -8 13 87 17 97 55 112 35 15 387 27 400 14 4 -3 8 -125 9
-270 2 -322 1 -319 112 -374 41 -20 103 -58 137 -84 35 -25 70 -49 79 -53 34
-12 84 13 143 73 54 55 58 61 43 76 -11 12 -21 13 -34 6 -33 -16 -83 -22 -90
-10 -8 13 -6 232 3 254 9 23 23 16 23 -11 0 -18 7 -28 25 -35 14 -5 30 -21 35
-35 5 -14 14 -25 20 -25 5 0 19 -9 30 -20 28 -28 51 -25 95 10 59 47 145 141
160 176 8 17 21 36 29 44 35 28 19 62 -59 129 -41 35 -75 73 -77 85 -4 31 -43
32 -87 2 -20 -14 -42 -26 -48 -26 -7 0 -42 -34 -79 -75 -37 -42 -71 -72 -75
-68 -4 5 -9 57 -11 117 -3 110 -3 110 24 117 15 4 69 5 120 3 51 -3 172 -6
269 -7 159 -2 179 -4 198 -21 19 -17 23 -18 35 -5 8 8 21 34 29 59 15 43 14
51 -9 140 -14 52 -29 99 -34 104 -6 6 -10 18 -10 27 0 10 -21 29 -47 46 -48
28 -48 28 -308 31 -216 2 -262 5 -274 17 -13 13 -13 19 -3 35 10 16 12 166 12
668 l-1 647 227 211 c124 116 231 218 236 227 5 10 14 17 20 17 7 0 50 37 97
83 47 45 148 140 224 211 77 71 143 139 148 150 5 12 18 32 29 46 24 30 37
121 23 153 -5 12 -22 47 -36 77 -14 30 -35 78 -47 105 -39 90 -18 85 -319 85
-146 0 -304 -5 -351 -10 -69 -8 -88 -7 -107 5 -26 17 -119 20 -148 3z m142
-44 c4 -10 -1 -22 -10 -29 -10 -7 -22 -36 -27 -66 -7 -34 -18 -60 -31 -70 -14
-10 -23 -31 -26 -62 -11 -96 -33 -31 -33 99 0 66 2 72 33 101 47 45 83 55 94
27z m617 -7 c11 -8 17 -18 15 -23 -2 -5 -34 -37 -71 -72 -60 -57 -70 -63 -103
-60 -37 3 -37 3 0 41 33 34 36 42 31 73 -6 30 -4 36 16 44 34 13 92 12 112 -3z
m-709 -307 c4 -6 81 -9 208 -8 138 2 202 0 202 -8 0 -15 -435 -416 -447 -412
-16 6 -11 394 5 419 13 21 23 24 32 9z M3383 7762 c-14 -9 -103 -120 -155 -192 -131 -184 -599 -731 -741
-866 -126 -119 -180 -149 -392 -217 -143 -46 -291 -87 -314 -87 -9 0 -25 -6
-35 -13 -40 -29 14 -43 276 -68 70 -6 135 -17 143 -23 13 -9 4 -26 -56 -106
-73 -97 -104 -148 -96 -156 9 -9 59 9 64 22 3 8 15 14 27 14 11 0 35 9 52 19
17 11 76 42 130 71 55 28 106 58 115 66 8 8 19 14 24 14 16 0 120 75 230 166
204 169 685 689 704 761 5 18 14 28 27 28 19 0 19 -39 21 -2538 1 -1397 -2
-2585 -5 -2640 -7 -99 -8 -102 -32 -105 -29 -3 -107 66 -154 136 -16 23 -32
42 -37 42 -22 0 -16 -24 18 -68 21 -27 56 -73 78 -101 22 -29 58 -73 80 -98
40 -45 40 -45 102 -40 53 5 73 13 125 49 83 57 97 65 140 84 74 33 68 -225 68
2808 0 1978 -3 2740 -11 2778 -24 111 -60 154 -164 192 -38 15 -79 30 -90 35
-41 19 -106 41 -118 41 -6 0 -18 -4 -24 -8z m12 -92 c15 -17 17 -37 13 -184
-2 -91 -6 -168 -10 -171 -8 -9 -77 66 -78 83 0 8 -20 37 -45 65 -25 29 -45 57
-45 63 0 6 10 19 21 30 12 10 32 36 45 56 24 37 62 78 74 78 4 0 15 -9 25 -20z M3255 5505 c-63 -51 -140 -122 -340 -310 -237 -224 -599 -563 -694
-648 -143 -131 -191 -179 -191 -192 0 -7 -7 -18 -15 -25 -8 -7 -26 -36 -40
-66 -27 -57 -36 -131 -52 -411 -7 -128 -4 -134 95 -253 62 -74 72 -81 72 -50
0 24 -23 70 -58 113 -16 21 -22 42 -22 77 0 42 4 52 33 75 17 15 34 33 37 39
3 7 31 36 64 65 32 29 72 69 90 89 29 33 391 379 751 716 209 197 274 261 300
296 20 27 22 41 24 222 1 106 6 197 12 203 16 16 10 64 -10 75 -25 13 -21 14
-56 -15z M2396 3635 c-3 -8 -13 -15 -21 -15 -18 0 -103 -54 -122 -78 -7 -9
-13 -28 -13 -44 0 -32 -10 -35 -45 -12 -13 9 -29 13 -35 9 -13 -8 -13 -52 0
-60 9 -6 42 -51 75 -104 6 -9 25 -33 43 -54 17 -20 32 -42 32 -48 0 -6 12 -23
28 -38 29 -29 122 -155 122 -166 0 -4 23 -32 50 -64 28 -32 50 -63 50 -69 0
-6 9 -16 21 -22 11 -7 27 -26 34 -44 7 -17 23 -40 34 -50 12 -11 21 -25 21
-31 0 -7 11 -20 25 -29 14 -9 25 -21 25 -28 0 -6 16 -28 35 -49 19 -22 35 -44
35 -50 0 -7 9 -21 21 -33 33 -35 129 -158 129 -167 0 -4 20 -29 45 -55 42 -42
47 -45 63 -32 16 15 33 20 112 36 23 5 36 14 39 27 3 20 52 70 87 91 16 9 17
14 4 45 -7 19 -22 43 -32 55 -10 11 -18 27 -18 36 0 8 -9 23 -20 33 -11 10
-20 22 -20 28 0 9 -7 18 -105 139 -30 36 -55 70 -55 73 0 4 -12 19 -27 34 -16
15 -37 42 -48 61 -39 66 -43 72 -64 86 -11 8 -21 21 -21 28 0 6 -16 27 -35 46
-19 19 -35 38 -35 43 0 5 -19 32 -42 60 -24 29 -47 59 -53 68 -20 33 -110 152
-131 173 -11 11 -23 29 -27 39 -3 9 -11 17 -18 17 -12 0 -119 108 -119 121 0
15 -17 10 -24 -6z" fill="url(#blue)"/>
    <path d="M4956 7746 c4 -16 1 -27 -9 -33 -21 -11 -35 -67 -16 -61 15 5 69 105
61 113 -3 3 -14 5 -24 5 -14 0 -17 -5 -12 -24z M4844 7725 c-24 -37 -12 -40 21 -5 22 23 25 30 12 30 -9 0 -24 -11
-33 -25z M5378 7553 c-7 -16 -18 -36 -27 -46 -8 -9 -11 -20 -7 -24 5 -6 96 83
96 94 0 2 -11 3 -25 3 -18 0 -29 -8 -37 -27z M3230 7495 c7 -9 15 -13 17 -11 7 7 -7 26 -19 26 -6 0 -6 -6 2 -15z M3400 7350 c0 -11 5 -20 10 -20 6 0 10 9 10 20 0 11 -4 20 -10 20 -5
0 -10 -9 -10 -20z M6084 6721 c-10 -10 -3 -41 10 -41 20 0 86 29 86 38 0 8 -88 10 -96
3z M4233 4468 c-5 -7 -13 -21 -16 -31 -4 -10 -15 -17 -24 -16 -20 3 -88
-37 -117 -70 -11 -11 -36 -26 -58 -31 -28 -8 -38 -16 -38 -30 0 -11 -4 -20 -9
-20 -13 0 -21 -69 -27 -237 -4 -107 -3 -153 5 -153 13 0 14 11 16 165 0 66 4
134 9 150 4 17 9 40 12 53 2 13 8 21 13 18 4 -3 19 6 32 20 13 14 60 44 104
65 92 46 132 76 137 104 4 23 -24 32 -39 13z M4280 3880 c0 -22 5 -40 10 -40 6 0 10 18 10 40 0 22 -4 40 -10 40
-5 0 -10 -18 -10 -40z M3940 3680 c0 -100 4 -160 10 -160 6 0 10 -33 10 -80 0 -47 -4 -80
-10 -80 -7 0 -10 -161 -10 -462 0 -435 4 -538 19 -538 3 0 5 296 5 658 -2 820
-2 822 -14 822 -6 0 -10 -60 -10 -160z M2040 3636 c0 -9 5 -16 10 -16 6 0 10 4 10 9 0 6 -4 13 -10 16 -5 3
-10 -1 -10 -9z M2376 3623 c-58 -15 -152 -100 -133 -120 11 -11 68 9 77 28 7 12 21
19 39 19 16 0 34 7 41 15 8 9 22 12 41 8 36 -7 40 13 5 27 -13 5 -27 14 -31
19 -7 12 -8 12 -39 4z M2166 3493 c-3 -3 -6 -17 -6 -30 0 -32 46 -51 69 -28 15 15 14 18 -4
31 -32 25 -52 34 -59 27z M2206 3385 c4 -8 10 -15 15 -15 5 0 9 7 9 15 0 8 -7 15 -15 15 -9 0
-12 -6 -9 -15z M2630 3381 c0 -6 5 -13 10 -16 6 -3 10 1 10 9 0 9 -4 16 -10 16 -5 0
-10 -4 -10 -9z M2246 3322 c-3 -6 -1 -14 5 -17 15 -10 25 3 12 16 -7 7 -13 7 -17 1z M2677 3314 c6 -15 23 -19 23 -5 0 5 -7 11 -14 14 -10 4 -13 1 -9 -9z M2770 3191 c0 -13 26 -32 33 -24 8 7 -11 33 -24 33 -5 0 -9 -4 -9 -9z M4280 2960 c0 -153 4 -240 10 -240 6 0 10 87 10 240 0 153 -4 240
-10 240 -6 0 -10 -87 -10 -240z M6920 3145 c0 -19 5 -35 10 -35 6 0 10 16 10 35 0 19 -4 35 -10 35
-5 0 -10 -16 -10 -35z M6873 3124 c-7 -7 -13 -18 -13 -24 0 -15 20 -12 26 5 9 22 0 35 -13
19z M2970 2905 c0 -8 4 -15 8 -15 5 0 9 7 9 15 0 8 -4 15 -9 15 -4 0 -8
-7 -8 -15z M6889 2754 c23 -48 71 -57 71 -14 0 27 -16 26 -24 -2 -6 -23 -7 -23
-32 7 -16 18 -22 22 -15 9z M2726 2682 c-3 -6 -1 -14 5 -17 15 -10 25 3 12 16 -7 7 -13 7 -17 1z M3246 2552 c-3 -5 4 -21 15 -36 19 -24 19 -27 3 -33 -9 -3 -25 -1
-35 5 -10 7 -25 12 -34 12 -15 0 -45 -48 -45 -73 0 -19 -55 -57 -83 -57 -12 0
-28 5 -34 11 -7 7 -13 7 -17 1 -3 -6 -2 -13 4 -17 5 -3 10 -15 10 -25 0 -24
17 -29 60 -18 19 5 51 13 70 16 24 5 36 14 39 27 2 11 26 41 54 67 41 38 49
50 39 60 -6 6 -12 20 -12 29 0 20 -26 44 -34 31z M4280 2520 c0 -22 5 -40 10 -40 6 0 10 18 10 40 0 22 -4 40 -10 40
-5 0 -10 -18 -10 -40z M2930 2453 c0 -10 5 -25 10 -33 8 -12 10 -9 10 12 0 15 -4 30 -10 33
-5 3 -10 -2 -10 -12z M4274 2437 c-7 -20 10 -90 24 -95 7 -2 12 5 12 17 0 12 -4 21 -9 21
-6 0 -7 16 -4 35 6 34 -11 51 -23 22z M3093 2423 c-20 -8 -15 -23 7 -23 11 0 20 7 20 15 0 15 -6 17 -27 8z M3950 2266 c0 -8 5 -18 10 -21 6 -3 10 3 10 14 0 12 -4 21 -10 21 -5
0 -10 -6 -10 -14z M3960 2195 c0 -8 5 -15 10 -15 6 0 10 7 10 15 0 8 -4 15 -10 15 -5 0
-10 -7 -10 -15z M4326 2123 c9 -37 24 -53 24 -26 0 28 -10 53 -21 53 -5 0 -6 -12 -3
-27z M3972 2096 c1 -10 8 -17 13 -17 15 1 12 24 -3 29 -9 3 -13 -2 -10
-12z M4342 2049 c2 -6 8 -10 13 -10 5 0 11 4 13 10 2 6 -4 11 -13 11 -9 0
-15 -5 -13 -11z M4360 2000 c0 -11 7 -20 15 -20 17 0 18 2 9 24 -9 23 -24 20 -24 -4z M4000 1964 c0 -3 5 -14 10 -25 16 -28 30 -23 17 6 -11 22 -27 34 -27
19z M4120 1629 c0 -4 7 -20 15 -35 8 -16 15 -22 15 -13 0 14 -29 61 -30
48z M4210 1449 c7 -11 14 -18 17 -15 8 8 -5 36 -17 36 -7 0 -7 -6 0 -21z M4290 1293 c0 -12 5 -25 10 -28 13 -8 13 15 0 35 -8 12 -10 11 -10
-7z M4340 1253 c0 -13 5 -23 10 -23 13 0 13 11 0 30 -8 12 -10 11 -10 -7z"   fill="#0a1f72"/>
    <path d="M7408 7874 c-5 -4 -8 -19 -8 -33 1 -23 2 -24 11 -8 11 19 9 53 -3 41z M7965 7850 c-10 -11 -16 -22 -13 -25 3 -3 13 4 23 15 10 11 16 22 13
25 -3 3 -13 -4 -23 -15z M7414 7796 c-8 -22 -2 -27 16 -16 12 7 12 12 3 21 -10 10 -14 9 -19
-5z M7795 7785 c-21 -18 -25 -25 -14 -25 9 0 19 7 23 15 3 8 11 14 17 13
6 -2 14 3 16 10 7 19 -9 14 -42 -13z M4825 7790 c-4 -6 17 -10 54 -10 34 0 61 4 61 10 0 6 -24 10 -54 10
-30 0 -58 -4 -61 -10z M4732 7716 c-37 -36 -64 -67 -61 -71 4 -3 26 15 50 40 23 24 51 47
60 50 15 5 35 45 22 45 -3 0 -35 -29 -71 -64z M3364 7745 c-9 -22 1 -29 15 -11 8 10 9 16 1 21 -5 3 -13 -1 -16 -10z M3405 7721 c-3 -5 -1 -12 5 -16 12 -7 30 2 30 16 0 12 -27 12 -35 0z M7670 7710 c-12 -8 -11 -10 7 -10 12 0 25 5 28 10 8 13 -15 13 -35 0z M7368 7680 c-7 -16 -16 -30 -20 -30 -5 0 -8 -7 -8 -16 0 -24 34 -12
38 13 2 12 10 27 18 33 18 16 18 30 0 30 -8 0 -20 -13 -28 -30z M7700 7693 c-21 -7 -50 -45 -50 -64 0 -9 11 -21 25 -27 24 -11 25
-10 25 21 0 22 7 36 20 45 31 19 16 38 -20 25z M7463 7683 c-7 -2 -13 -12 -13 -21 0 -14 2 -14 9 -3 5 7 14 10 20 7
6 -4 11 0 11 8 0 16 -6 18 -27 9z M7602 7682 c-25 -8 -31 -25 -10 -30 7 -1 19 7 26 18 7 11 11 20 10
19 -2 -1 -13 -4 -26 -7z M3635 7670 c28 -12 47 -12 40 0 -3 6 -18 10 -33 9 -24 0 -25 -1 -7
-9z M3624 7630 c8 -42 22 -58 37 -43 7 7 6 15 -5 25 -8 9 -13 17 -12 19
2 2 -3 10 -12 18 -14 13 -15 11 -8 -19z M3705 7630 c10 -11 20 -18 23 -15 7 6 -18 35 -31 35 -5 0 -2 -9 8
-20z M7489 7623 c-17 -20 5 -22 41 -3 35 19 35 19 2 17 -19 -1 -38 -7 -43
-14z M3251 7602 c-30 -42 -26 -50 5 -12 15 17 24 33 21 36 -2 3 -14 -8
-26 -24z M7713 7587 c5 -15 37 -22 37 -9 0 5 -9 12 -21 15 -13 3 -19 1 -16 -6z M3439 7569 c-6 -151 -3 -213 10 -217 11 -4 13 16 8 113 -3 64 -8 120
-11 123 -3 3 -6 -6 -7 -19z M4560 7545 c-24 -25 -38 -45 -32 -45 13 0 82 69 82 83 0 12 -4 9 -50
-38z M3686 7531 c-9 -53 -7 -81 4 -81 6 0 10 18 10 40 0 22 5 40 10 40 6
0 10 8 10 18 0 34 -28 20 -34 -17z M7317 7553 c-14 -13 -6 -33 13 -33 11 0 20 4 20 9 0 13 -26 32 -33
24z M7500 7546 c0 -8 5 -18 10 -21 6 -3 10 3 10 14 0 12 -4 21 -10 21 -5
0 -10 -6 -10 -14z M7599 7489 c-17 -18 -31 -69 -18 -69 27 0 38 13 32 41 -4 21 -2 29 7
27 7 -2 14 2 17 8 6 16 -20 12 -38 -7z M4533 7419 c-16 -16 -17 -49 -3 -49 13 0 23 24 18 45 -2 13 -5 14
-15 4z M7260 7413 c0 -7 -3 -12 -7 -12 -33 5 -78 -37 -80 -75 0 -16 -5 -31
-11 -35 -5 -3 -12 -16 -16 -28 -6 -17 -3 -23 8 -23 9 0 16 -4 16 -10 0 -5 -9
-10 -19 -10 -17 0 -19 -6 -17 -60 2 -33 0 -60 -5 -60 -5 0 -9 7 -9 16 0 8 -5
12 -11 8 -7 -4 -9 -21 -6 -40 4 -21 2 -34 -5 -34 -6 0 -8 -10 -4 -25 4 -16 2
-25 -5 -25 -7 0 -9 -11 -6 -30 4 -16 2 -32 -4 -36 -6 -3 -8 -13 -5 -21 4 -9 2
-21 -2 -27 -5 -6 -14 -45 -20 -86 -7 -41 -17 -106 -23 -145 -30 -190 -71 -736
-65 -880 1 -44 -2 -86 -7 -93 -11 -15 -3 -102 10 -111 6 -3 13 -65 16 -138 3
-72 10 -139 15 -150 5 -10 13 -46 17 -80 4 -35 11 -63 17 -63 6 0 7 22 3 59
-4 33 -4 73 -1 88 6 24 12 29 41 31 25 2 37 -3 45 -18 7 -13 21 -20 40 -20 16
0 32 -4 35 -10 3 -5 14 -10 24 -10 10 0 24 -7 31 -15 15 -18 30 -11 30 16 0
10 5 19 10 19 6 0 10 23 10 50 0 28 5 50 10 50 7 0 8 48 4 140 -5 104 -4 143
5 154 9 10 12 50 11 123 -2 59 0 115 3 123 3 8 8 71 12 139 13 265 76 787 105
876 6 19 12 55 13 80 1 25 5 45 8 45 12 0 19 44 9 54 -7 7 -10 2 -10 -12 0
-12 -5 -22 -11 -22 -6 0 -8 7 -5 16 3 9 9 33 12 55 6 36 24 65 24 39 0 -7 6
-5 15 4 20 19 19 40 -1 32 -12 -4 -15 0 -12 17 2 14 9 21 21 21 9 -1 17 2 17
6 0 4 9 10 20 13 24 6 26 30 3 53 -16 15 -16 17 0 29 24 17 21 29 -5 21 -65
-20 -223 2 -243 33 -8 14 -45 9 -45 -6z m40 -1993 c0 -11 -4 -20 -10 -20 -5 0
-10 9 -10 20 0 11 5 20 10 20 6 0 10 -9 10 -20z M3727 7343 c-12 -11 -8 -1081 3 -1088 7 -4 10 180 10 544 0 303 -1
551 -3 551 -2 0 -7 -3 -10 -7z M4440 7325 c0 -14 5 -25 10 -25 6 0 10 11 10 25 0 14 -4 25 -10 25
-5 0 -10 -11 -10 -25z M3440 7252 c0 -6 -9 -20 -21 -31 -21 -19 -21 -19 0 -26 19 -6 21 -14
21 -81 0 -67 2 -74 19 -74 11 0 22 4 25 9 8 12 -23 193 -35 206 -6 5 -9 5 -9
-3z M6050 7221 c-25 -7 -25 -7 3 -13 19 -4 27 -1 27 8 0 8 -1 14 -2 13
-2 -1 -14 -4 -28 -8z M4643 7185 c-3 -9 -3 -19 1 -22 7 -7 36 16 36 28 0 15 -30 10 -37 -6z M6006 7071 c-4 -6 -2 -19 4 -30 5 -11 10 -33 10 -50 0 -17 5 -31 10
-31 6 0 10 -87 10 -240 0 -186 -3 -240 -13 -240 -17 0 -24 -794 -7 -805 6 -4
13 -5 15 -3 3 2 6 185 7 406 2 319 5 402 15 402 10 0 13 52 13 240 0 197 -2
240 -14 240 -9 0 -15 17 -18 51 -5 52 -20 80 -32 60z M5720 6955 c0 -8 7 -15 15 -15 8 0 15 7 15 15 0 8 -7 15 -15 15 -8 0
-15 -7 -15 -15z M5700 6305 c0 -410 3 -625 10 -625 7 0 10 215 10 625 0 410 -3 625
-10 625 -7 0 -10 -215 -10 -625z M3423 6200 c0 -25 2 -35 4 -22 2 12 2 32 0 45 -2 12 -4 2 -4 -23z M3443 6200 c0 -25 2 -35 4 -22 2 12 2 32 0 45 -2 12 -4 2 -4 -23z M3440 5924 c0 -128 3 -165 13 -162 9 3 13 43 15 144 3 143 -1 184
-18 184 -6 0 -10 -64 -10 -166z M3680 6000 c0 -40 4 -70 10 -70 6 0 10 30 10 70 0 40 -4 70 -10 70
-6 0 -10 -30 -10 -70z M4604 5869 c-8 -14 11 -33 25 -25 16 10 13 36 -3 36 -8 0 -18 -5 -22
-11z M6071 5638 c1 -13 5 -34 9 -48 7 -20 8 -16 9 23 1 26 -3 47 -9 47 -5
0 -10 -10 -9 -22z M3740 5586 c-16 -42 -13 -131 5 -146 11 -9 15 -9 15 -1 0 7 5 9 11 5
8 -4 9 1 4 17 -5 13 -9 50 -9 81 -2 66 -11 82 -26 44z M5700 5560 c0 -22 5 -40 10 -40 6 0 10 18 10 40 0 22 -4 40 -10 40
-5 0 -10 -18 -10 -40z M6940 5340 c0 -27 5 -50 10 -50 6 0 10 23 10 50 0 28 -4 50 -10 50
-5 0 -10 -22 -10 -50z M5700 5320 c0 -22 5 -40 10 -40 6 0 10 18 10 40 0 22 -4 40 -10 40
-5 0 -10 -18 -10 -40z M7261 5117 c-10 -13 -11 -48 -6 -159 6 -122 5 -145 -8 -156 -8 -7
-21 -11 -28 -10 -11 2 -15 -15 -17 -70 -3 -67 -1 -74 18 -79 18 -5 20 -13 20
-79 0 -66 10 -98 24 -76 3 5 8 95 12 201 4 105 11 191 16 191 4 0 8 54 8 121
0 70 -4 118 -9 115 -5 -4 -11 -1 -13 5 -2 7 -8 6 -17 -4z M3407 5113 c-8 -12 4 -63 14 -63 12 0 12 57 0 65 -5 3 -12 2 -14 -2z M5700 5080 c0 -22 5 -40 10 -40 6 0 10 18 10 40 0 22 -4 40 -10 40
-5 0 -10 -18 -10 -40z M3727 4779 c-5 -10 -7 -120 -5 -246 l3 -229 -85 3 c-120 6 -114 3
-114 45 -1 21 -5 39 -11 40 -15 4 -18 -48 -5 -73 10 -17 9 -24 -4 -37 -24 -24
-41 0 -41 58 0 80 -20 63 -23 -20 -2 -44 -8 -77 -15 -82 -17 -10 -17 -1715 -1
-1726 7 -4 13 -16 16 -27 2 -14 10 -19 26 -17 17 3 25 -2 29 -17 6 -25 16 -27
33 -6 15 18 135 21 145 5 5 -8 12 -7 22 2 12 10 17 9 25 -6 9 -17 10 -17 24 1
7 10 14 39 14 65 0 28 5 48 13 51 17 5 18 1584 1 1595 -13 8 -34 292 -37 497
-1 81 -5 133 -10 124z M5700 4700 c0 -11 5 -20 10 -20 6 0 10 -10 10 -22 0 -12 3 -19 6 -16
8 9 -7 78 -17 78 -5 0 -9 -9 -9 -20z M7300 4600 c0 -22 5 -40 10 -40 6 0 10 18 10 40 0 22 -4 40 -10 40
-5 0 -10 -18 -10 -40z M5710 4524 c0 -8 8 -23 17 -32 16 -16 16 -16 10 1 -4 10 -7 25 -7 33
0 8 -4 14 -10 14 -5 0 -10 -7 -10 -16z M7310 4425 c0 -14 5 -25 10 -25 6 0 10 11 10 25 0 14 -4 25 -10 25
-5 0 -10 -11 -10 -25z M6080 4420 c0 -11 5 -20 10 -20 6 0 10 9 10 20 0 11 -4 20 -10 20 -5
0 -10 -9 -10 -20z M5720 4419 c0 -6 8 -18 17 -27 16 -16 16 -16 10 1 -4 10 -7 23 -7 28
0 5 -4 9 -10 9 -5 0 -10 -5 -10 -11z M4650 4410 c0 -5 14 -10 30 -10 17 0 30 5 30 10 0 6 -13 10 -30 10
-16 0 -30 -4 -30 -10z M4474 4365 c-3 -8 -3 -22 0 -30 5 -13 25 -15 123 -13 118 3 118 3
118 28 0 25 0 25 -118 28 -98 2 -118 0 -123 -13z M7020 4240 c0 -40 4 -70 10 -70 6 0 10 30 10 70 0 40 -4 70 -10 70
-6 0 -10 -30 -10 -70z M7220 3995 c0 -197 4 -305 10 -305 6 0 10 108 10 305 0 197 -4 305
-10 305 -6 0 -10 -108 -10 -305z M4440 4250 c0 -5 5 -10 10 -10 6 0 10 -7 10 -17 0 -9 3 -14 6 -10 8
8 -5 47 -17 47 -5 0 -9 -4 -9 -10z M6931 4185 c-1 -40 12 -75 24 -63 4 3 0 28 -8 55 -15 48 -15 48 -16
8z M5740 4180 c0 -11 5 -20 10 -20 6 0 10 9 10 20 0 11 -4 20 -10 20 -5
0 -10 -9 -10 -20z M4455 4128 c4 -13 19 -34 33 -48 14 -14 19 -16 11 -6 -11 15 -11 20
-1 23 19 7 14 23 -8 23 -11 0 -20 7 -20 15 0 8 -5 15 -11 15 -6 0 -8 -9 -4
-22z M4532 4108 c6 -18 28 -21 28 -4 0 9 -7 16 -16 16 -9 0 -14 -5 -12
-12z M4603 4066 c4 -13 56 -15 60 -2 1 5 -13 10 -31 11 -21 2 -32 -1 -29
-9z M4795 4031 c-3 -6 0 -14 9 -17 8 -3 17 -12 20 -20 4 -12 1 -14 -14
-9 -24 8 -26 -1 -5 -22 9 -8 22 -12 30 -9 21 8 32 39 16 44 -7 2 -20 13 -31
24 -11 13 -20 16 -25 9z M4912 3985 c-22 -25 -55 -52 -74 -60 -28 -12 -30 -14 -10 -15 25 0
142 103 131 115 -3 3 -24 -15 -47 -40z M5820 3961 c0 -22 -5 -43 -11 -46 -7 -5 -5 -15 6 -31 9 -15 13 -33 9
-49 -3 -14 -2 -25 4 -25 13 0 24 59 14 77 -5 8 -7 37 -4 64 3 32 1 49 -7 49
-6 0 -11 -17 -11 -39z M6950 3765 c0 -129 4 -235 9 -235 9 0 20 342 13 423 -2 26 -8 47 -13
47 -5 0 -9 -103 -9 -235z M4730 3965 c0 -8 9 -15 20 -15 11 0 20 -4 20 -10 0 -5 7 -10 15 -10
20 0 19 13 -3 33 -23 21 -52 22 -52 2z M6110 3960 c0 -11 5 -20 10 -20 6 0 10 9 10 20 0 11 -4 20 -10 20 -5
0 -10 -9 -10 -20z M4740 3916 c19 -18 60 -30 60 -18 0 10 -44 32 -63 32 -7 0 -6 -5 3
-14z M5760 3896 c0 -37 19 -51 22 -16 0 11 1 25 2 32 1 6 -5 13 -11 16 -9
2 -13 -8 -13 -32z M7004 3907 c-9 -25 0 -62 16 -62 10 0 15 10 15 34 0 36 -21 54 -31
28z M6088 3844 c-11 -10 -10 -76 2 -94 15 -24 19 -8 12 48 -4 30 -10 50
-14 46z M5811 3793 c0 -7 -10 -13 -21 -13 -16 0 -20 -7 -20 -35 0 -19 5 -35
10 -35 13 0 14 -427 0 -432 -5 -1 -11 -56 -14 -120 -2 -64 -6 -121 -9 -125 -3
-4 -10 -44 -17 -88 -6 -44 -18 -102 -26 -129 -8 -26 -14 -58 -14 -70 0 -69
-99 -313 -174 -426 -20 -30 -36 -63 -36 -73 0 -10 -4 -16 -9 -12 -5 3 -56 -44
-112 -105 -105 -112 -147 -165 -98 -125 13 11 28 26 32 33 5 7 12 10 18 7 13
-9 11 -25 -4 -25 -14 0 -47 -35 -47 -50 0 -6 8 -10 17 -10 9 0 25 -8 35 -17
10 -9 37 -19 60 -22 37 -5 43 -10 52 -41 7 -27 10 -31 14 -15 9 41 58 48 72
10 11 -30 57 -35 67 -7 9 23 25 38 49 46 12 3 33 20 48 37 15 17 34 28 41 25
8 -3 28 7 45 22 29 26 40 52 20 52 -5 0 -10 -5 -10 -12 0 -6 -3 -8 -6 -5 -10
10 18 38 32 33 30 -12 179 264 219 406 59 209 89 370 90 480 0 49 4 88 8 88 5
0 5 31 1 70 -4 46 -3 74 4 83 8 9 9 51 5 133 -4 73 -9 107 -13 89 -6 -26 -7
-23 -13 25 -4 30 -8 78 -10 105 -2 50 -2 50 -87 55 -48 3 -102 13 -124 23 -22
9 -41 16 -43 14 -2 -3 -7 -24 -12 -48 -8 -39 -9 -41 -11 -14 -3 25 -4 22 -10
-15 -5 -32 -7 -10 -8 77 -2 81 2 123 9 125 6 2 9 13 6 23 -2 11 -5 14 -6 8z
m-401 -1661 c0 -14 -39 -46 -47 -39 -3 4 2 16 12 27 19 21 35 26 35 12z M6080 3666 c0 -8 7 -16 15 -20 10 -4 15 1 15 14 0 11 -7 20 -15 20
-8 0 -15 -6 -15 -14z M6950 3171 c0 -11 4 -22 9 -25 12 -8 34 21 26 34 -11 17 -35 11 -35
-9z M7020 3160 c0 -16 5 -30 10 -30 6 0 10 14 10 30 0 17 -4 30 -10 30
-5 0 -10 -13 -10 -30z M7220 2960 c0 -40 4 -70 10 -70 6 0 10 30 10 70 0 40 -4 70 -10 70
-6 0 -10 -30 -10 -70z M6973 2864 c-8 -22 15 -43 27 -24 5 8 10 21 10 28 0 17 -30 15 -37
-4z M7205 2870 c-11 -17 3 -57 28 -80 22 -21 22 -22 3 -36 -33 -23 -12
-25 22 -1 37 26 50 49 24 45 -11 -2 -18 4 -20 18 -4 28 -47 70 -57 54z M6995 2709 c-4 -6 -5 -13 -2 -16 7 -7 27 6 27 18 0 12 -17 12 -25 -2z M7052 2665 c2 -19 -1 -36 -7 -38 -5 -3 -7 -7 -3 -11 7 -8 48 15 48
26 0 5 -8 8 -17 8 -15 0 -15 2 -4 9 15 10 8 41 -10 41 -7 0 -10 -13 -7 -35z M6910 2680 c0 -12 26 -30 33 -23 4 3 7 -3 7 -15 0 -15 6 -22 20 -22
18 0 19 3 9 23 -7 12 -12 23 -11 25 9 12 -3 21 -28 20 -16 -1 -30 -4 -30 -8z M6988 2583 c-10 -2 -18 -9 -18 -14 0 -13 12 -11 34 6 20 15 16 17
-16 8z M3412 2430 c-6 -11 -8 -21 -3 -25 5 -3 13 4 16 16 9 28 2 33 -13 9z M3500 2280 c0 -16 5 -30 10 -30 6 0 10 14 10 30 0 17 -4 30 -10 30
-5 0 -10 -13 -10 -30z M3427 2233 c-13 -12 -7 -60 8 -73 8 -7 15 -28 15 -46 0 -19 4 -34 9
-34 10 0 25 136 16 150 -7 11 -38 13 -48 3z M5215 1950 c-17 -18 -17 -20 -1 -20 9 0 19 7 23 15 9 25 -2 27 -22 5z M3554 1912 c-17 -2 -23 -12 -26 -38 -5 -41 8 -45 23 -7 6 15 15 31
22 35 16 10 7 15 -19 10z M3436 1895 c-11 -8 -31 -15 -44 -15 -15 0 -22 -5 -19 -12 2 -7 11
-12 21 -10 9 2 16 -2 16 -8 0 -5 14 -10 30 -10 24 0 33 6 40 26 17 43 -6 58
-44 29z M3637 1899 c-10 -6 -25 -8 -32 -5 -20 7 -29 -12 -15 -29 10 -12 10
-15 0 -15 -8 0 -11 -3 -7 -6 3 -3 19 3 35 15 17 12 35 21 41 21 6 0 11 7 11
15 0 17 -8 18 -33 4z M3320 1872 c0 -10 15 -32 33 -50 37 -36 53 -41 37 -13 -7 14 -6 21 3
25 6 3 2 3 -10 0 -17 -4 -25 2 -38 25 -18 35 -25 39 -25 13z M3460 1821 c0 -5 7 -12 16 -15 22 -9 24 -8 18 9 -7 16 -34 21 -34 6z M5497 1784 c-14 -14 -7 -35 11 -32 9 2 17 10 17 17 0 16 -18 25 -28
15z M5453 1730 c-13 -20 -8 -50 9 -50 6 0 8 10 5 22 -4 12 -1 28 5 35 6
7 6 13 2 13 -5 0 -15 -9 -21 -20z M4936 1616 c-30 -40 -31 -43 -11 -43 8 0 15 6 15 12 0 7 9 22 20 35
22 26 24 30 11 30 -5 0 -20 -15 -35 -34z M5332 1577 c-24 -26 -29 -57 -9 -57 14 0 58 65 50 74 -11 10 -19 7
-41 -17z M4872 1538 c-18 -18 -15 -33 4 -17 14 11 15 10 12 -11 -2 -19 -8 -24
-26 -23 -25 3 -26 2 -11 -31 12 -25 12 -25 45 7 19 17 34 39 34 48 0 10 6 20
13 22 6 3 2 6 -10 6 -12 1 -27 3 -35 6 -7 3 -19 0 -26 -7z M5250 1376 c0 -8 -5 -16 -11 -18 -7 -2 -10 -10 -8 -16 2 -7 12 0 22
18 10 16 13 30 8 30 -6 0 -11 -6 -11 -14z M4730 1371 c0 -5 6 -11 13 -14 7 -3 -2 -19 -26 -44 -26 -27 -36 -45
-31 -56 3 -10 0 -25 -7 -35 -12 -15 -11 -15 6 1 11 9 24 34 30 55 8 27 17 38
33 40 24 4 30 30 10 50 -14 14 -28 16 -28 3z M5190 1299 c0 -7 -8 -19 -17 -28 -19 -17 -28 -41 -15 -41 4 0 17 18
30 40 12 22 18 40 12 40 -5 0 -10 -5 -10 -11z M5048 1275 c-3 -23 -5 -31 -13 -48 -14 -32 3 -30 20 3 12 23 14 35 6
43 -6 6 -12 7 -13 2z M4320 1202 c0 -5 9 -17 20 -27 22 -20 26 -14 10 16 -11 19 -30 26
-30 11z M4595 1170 c-25 -27 -12 -37 14 -11 12 12 21 23 21 26 0 11 -18 4
-35 -15z M4646 1144 c-4 -9 -4 -19 -2 -21 8 -8 26 8 26 23 0 19 -16 18 -24 -2z M4761 1141 c-16 -28 -14 -31 15 -31 20 0 25 4 22 22 -4 29 -24 34
-37 9z M4430 1141 c0 -5 7 -12 16 -15 27 -10 36 -7 20 9 -16 17 -36 20 -36
6z M4539 1128 c-6 -24 -5 -68 2 -68 5 0 9 9 9 20 0 11 4 20 9 20 5 0 11
7 15 15 4 10 -1 15 -14 15 -11 0 -20 -1 -21 -2z M4690 1111 c0 -5 -8 -12 -17 -14 -10 -3 -3 -5 15 -6 22 -1 32 4 32
14 0 8 -7 15 -15 15 -8 0 -15 -4 -15 -9z M4430 1090 c0 -16 48 -50 69 -50 22 0 10 15 -21 29 -18 8 -36 19 -40
25 -5 7 -8 5 -8 -4z M4818 1093 c12 -2 30 -2 40 0 9 3 -1 5 -23 4 -22 0 -30 -2 -17 -4z M4910 1090 c0 -5 5 -10 10 -10 6 0 10 -4 10 -10 0 -5 -9 -10 -20 -10
-11 0 -20 -5 -20 -11 0 -7 10 -9 27 -4 35 9 36 9 28 34 -6 21 -35 30 -35 11z"   fill="#d6f4ff" opacity="0.7"/>
  </g>
</svg>
