<svg xmlns="http://www.w3.org/2000/svg" viewBox="0 0 960 960" width="960" height="960">
 <defs>
  <radialGradient id="disc" cx="46%" cy="44%" r="58%"><stop offset="0%" stop-color="#f1f3f9"/><stop offset="55%" stop-color="#d8dde9"/><stop offset="100%" stop-color="#bac2d8"/></radialGradient>
  <linearGradient id="ribbon" x1="200" y1="230" x2="730" y2="690" gradientUnits="userSpaceOnUse">
   <stop offset="0%" stop-color="#3fb0f5"/><stop offset="26%" stop-color="#1f7fe0"/><stop offset="54%" stop-color="#114fb8"/><stop offset="76%" stop-color="#0a2390"/><stop offset="100%" stop-color="#1e74d8"/></linearGradient>
  <filter id="ds" x="-20%" y="-20%" width="140%" height="140%"><feGaussianBlur stdDev="6"/></filter>
  <filter id="soft" x="-30%" y="-30%" width="160%" height="160%"><feGaussianBlur stdDev="4"/></filter>
 </defs>
 <rect width="960" height="960" fill="#fff"/>
 <circle cx="476" cy="504" r="422" fill="url(#disc)"/>
 <g transform="translate(14,50)">
  <g transform="translate(8,12)" opacity="0.4" filter="url(#ds)"><path d="M279.0,249.5 L278.7,262.7 278.5,275.7 278.3,288.5 278.1,301.3 277.9,313.8 277.7,326.2 277.5,338.4 277.3,350.4 277.2,362.3 277.1,374.0 276.9,385.6 276.8,396.9 276.7,408.1 276.6,419.1 276.5,430.0 276.4,440.6 276.4,451.1 276.3,461.4 276.3,471.5 276.2,481.4 276.2,491.1 276.1,500.7 276.1,510.1 276.1,519.2 276.1,528.2 276.0,537.0 276.0,545.6 276.0,553.9 276.0,562.1 276.0,570.1 276.0,577.9 276.0,585.5 276.0,592.8 276.0,599.1 275.6,605.6 274.9,611.9 274.1,617.8 273.0,623.3 271.8,628.3 270.4,632.9 268.9,637.2 267.4,641.0 265.7,644.3 264.0,647.3 262.4,649.9 260.7,652.1 259.1,653.9 257.6,655.4 256.2,656.5 255.0,657.4 253.9,658.0 252.9,658.4 252.1,658.7 251.5,658.8 250.9,658.9 250.4,658.9 249.9,658.8 249.3,658.7 248.7,658.4 247.9,658.1 246.9,657.5 245.9,656.7 244.7,655.7 243.4,654.3 242.0,652.6 240.5,650.5 239.1,648.0 237.6,645.1 237.3,644.3 237.0,643.3 236.8,642.5 236.7,641.8 236.6,641.4 236.6,641.1 236.6,641.0 236.6,641.0 236.6,641.1 236.6,641.2 236.5,641.4 236.4,641.5 236.3,641.7 236.3,641.7 236.2,641.8 236.3,641.7 236.4,641.6 236.6,641.5 237.0,641.3 237.4,641.1 238.0,640.9 238.7,640.8 239.5,640.6 240.4,640.5 241.4,640.4 242.6,640.4 243.8,640.4 245.2,640.6 246.6,640.8 248.1,641.1 249.7,641.5 251.4,642.1 253.1,642.7 255.8,643.9 262.1,646.5 269.6,648.7 277.3,650.1 284.9,650.6 292.5,650.3 299.8,649.3 306.9,647.7 313.8,645.5 320.5,642.8 326.9,639.6 333.0,636.1 339.0,632.3 344.8,628.1 350.5,623.7 355.9,619.0 361.3,614.1 366.5,609.1 371.5,603.8 376.5,598.4 381.3,592.8 386.0,587.1 390.6,581.4 395.0,575.5 399.3,569.6 403.5,563.7 407.6,557.7 411.5,551.8 415.3,545.9 419.0,540.0 422.5,534.3 425.8,528.6 429.0,523.0 432.0,517.6 437.8,503.2 438.0,482.9 438.0,465.7 438.0,448.6 438.0,431.4 438.0,414.3 438.0,397.1 438.0,380.0 438.0,362.9 438.0,345.7 438.0,328.6 438.0,311.4 438.0,294.3 438.0,277.1 434.8,272.5 421.9,285.9 431.4,285.7 440.9,285.6 450.4,285.4 459.9,285.3 469.4,285.1 478.9,285.0 488.4,284.9 497.9,284.7 507.4,284.6 516.9,284.4 526.4,284.3 535.9,284.1 519.2,260.9 531.7,233.7 522.4,235.2 513.0,236.6 503.6,238.0 494.3,239.4 484.9,240.9 475.6,242.3 466.2,243.7 456.9,245.2 447.5,246.6 438.1,248.0 428.8,249.4 419.4,250.9 398.0,257.5 388.0,283.9 388.0,289.7 388.0,295.6 388.0,301.4 388.0,307.3 388.0,313.1 388.0,319.0 388.0,324.9 388.0,330.7 388.0,336.6 388.0,342.4 388.0,348.3 388.0,354.1 398.1,380.6 421.6,386.0 429.1,386.0 436.7,386.0 444.3,386.0 451.9,386.0 459.4,386.0 467.0,386.0 474.6,386.0 482.1,386.0 489.7,386.0 497.3,386.0 504.9,386.0 512.4,386.0 494.0,360.0 507.6,335.9 500.0,337.3 492.5,338.7 484.9,340.2 477.3,341.6 469.8,343.0 462.2,344.5 454.6,345.9 447.0,347.3 439.5,348.7 431.9,350.2 424.3,351.6 416.8,353.0 393.2,364.4 388.0,388.7 388.0,397.4 388.0,406.1 388.0,414.9 388.0,423.6 388.0,432.3 388.0,441.0 388.0,449.7 388.0,458.4 388.0,467.1 388.0,475.9 388.0,484.6 388.0,493.3 396.3,521.1 423.2,528.1 432.8,528.3 442.3,528.4 451.9,528.6 461.5,528.7 471.0,528.9 480.6,529.0 490.2,529.1 499.8,529.3 509.3,529.4 518.9,529.6 528.5,529.7 538.0,529.9 537.8,527.9 528.2,521.8 530.8,526.6 533.3,531.5 535.8,536.5 538.2,541.6 540.5,546.8 542.8,552.0 545.0,557.3 547.1,562.6 549.2,568.0 551.3,573.4 553.3,578.7 555.3,584.1 557.2,589.4 559.1,594.6 560.9,599.8 562.8,605.0 564.6,610.0 566.4,615.0 568.1,619.9 569.9,624.6 571.7,629.3 573.5,633.8 575.3,638.2 577.2,642.5 579.1,646.6 581.1,650.6 583.2,654.6 585.4,658.4 587.9,662.1 590.8,665.8 594.0,669.5 597.9,673.0 642.0,655.6 641.7,628.4 641.4,603.1 641.1,577.8 640.9,552.6 640.6,527.3 640.3,502.0 640.0,476.7 639.7,451.4 639.4,426.1 639.1,400.8 638.9,375.6 638.6,350.3 638.3,325.0 612.0,326.0 594.8,332.9 602.6,358.2 610.3,383.4 618.0,408.7 625.7,434.0 633.4,459.3 641.1,484.6 648.8,509.9 656.6,535.2 664.3,560.4 672.0,585.7 679.7,611.0 687.4,636.3 720.0,680.0 746.1,628.9 746.3,603.6 746.4,578.3 746.6,553.0 746.7,527.7 746.9,502.4 747.0,477.1 747.1,451.9 747.3,426.6 747.4,401.3 747.6,376.0 747.7,350.7 747.9,325.4 748.0,300.1 L748.3,238.1 722.2,260.0 696.4,237.9 L696.0,299.9 695.9,325.1 695.7,350.4 695.6,375.7 695.4,401.0 695.3,426.3 695.1,451.6 695.0,476.9 694.9,502.1 694.7,527.4 694.6,552.7 694.4,578.0 694.3,603.3 694.1,628.6 720.0,628.0 737.2,621.1 729.4,595.8 721.7,570.6 714.0,545.3 706.3,520.0 698.6,494.7 690.9,469.4 683.2,444.1 675.4,418.8 667.7,393.6 660.0,368.3 652.3,343.0 644.6,317.7 612.0,274.0 586.3,325.6 586.6,350.9 586.9,376.2 587.1,401.4 587.4,426.7 587.7,452.0 588.0,477.3 588.3,502.6 588.6,527.9 588.9,553.2 589.1,578.4 589.4,603.7 589.7,629.0 590.0,652.4 630.6,632.5 631.0,632.9 630.9,632.8 630.4,632.0 629.5,630.8 628.5,629.0 627.3,626.8 626.0,624.2 624.6,621.2 623.2,617.9 621.7,614.3 620.1,610.4 618.6,606.2 616.9,601.9 615.2,597.3 613.5,592.5 611.7,587.5 609.9,582.4 608.0,577.1 606.1,571.7 604.1,566.2 602.0,560.6 599.9,554.9 597.7,549.2 595.4,543.4 593.1,537.5 590.6,531.7 588.1,525.8 585.4,519.9 582.7,514.0 579.8,508.1 576.8,502.3 573.7,496.6 558.2,480.1 538.8,477.9 529.2,477.7 519.7,477.6 510.1,477.4 500.5,477.3 491.0,477.1 481.4,477.0 471.8,476.9 462.2,476.7 452.7,476.6 443.1,476.4 433.5,476.3 424.0,476.1 431.7,482.9 440.0,493.3 440.0,484.6 440.0,475.9 440.0,467.1 440.0,458.4 440.0,449.7 440.0,441.0 440.0,432.3 440.0,423.6 440.0,414.9 440.0,406.1 440.0,397.4 440.0,388.7 434.8,395.6 426.4,404.1 434.0,402.7 441.5,401.3 449.1,399.8 456.7,398.4 464.2,397.0 471.8,395.5 479.4,394.1 487.0,392.7 494.5,391.3 502.1,389.8 509.7,388.4 517.2,387.0 546.0,360.0 512.4,334.0 504.9,334.0 497.3,334.0 489.7,334.0 482.1,334.0 474.6,334.0 467.0,334.0 459.4,334.0 451.9,334.0 444.3,334.0 436.7,334.0 429.1,334.0 421.6,334.0 429.9,339.4 440.0,354.1 440.0,348.3 440.0,342.4 440.0,336.6 440.0,330.7 440.0,324.9 440.0,319.0 440.0,313.1 440.0,307.3 440.0,301.4 440.0,295.6 440.0,289.7 440.0,283.9 430.0,298.5 427.3,302.3 436.6,300.8 446.0,299.4 455.4,298.0 464.7,296.6 474.1,295.1 483.4,293.7 492.8,292.3 502.1,290.8 511.5,289.4 520.9,288.0 530.2,286.6 539.6,285.1 570.8,255.1 535.1,232.1 525.6,232.3 516.1,232.4 506.6,232.6 497.1,232.7 487.6,232.9 478.1,233.0 468.6,233.1 459.1,233.3 449.6,233.4 440.1,233.6 430.6,233.7 421.1,233.9 389.2,247.5 386.0,277.1 386.0,294.3 386.0,311.4 386.0,328.6 386.0,345.7 386.0,362.9 386.0,380.0 386.0,397.1 386.0,414.3 386.0,431.4 386.0,448.6 386.0,465.7 386.0,482.9 386.2,496.8 386.5,492.5 383.8,497.4 380.9,502.5 377.8,507.6 374.7,512.8 371.4,518.1 368.0,523.4 364.5,528.7 360.8,534.0 357.1,539.2 353.4,544.4 349.5,549.5 345.6,554.4 341.6,559.2 337.6,563.8 333.6,568.2 329.5,572.4 325.5,576.4 321.5,580.1 317.5,583.5 313.6,586.5 309.8,589.3 306.1,591.7 302.5,593.7 299.2,595.3 296.0,596.6 293.1,597.6 290.4,598.2 288.0,598.5 285.7,598.6 283.6,598.5 281.6,598.1 279.5,597.5 276.2,596.1 272.9,594.6 268.7,593.0 264.4,591.7 260.2,590.5 255.9,589.6 251.7,589.0 247.5,588.6 243.2,588.4 239.0,588.4 234.9,588.8 230.8,589.3 226.7,590.2 222.7,591.2 218.8,592.6 214.9,594.2 211.2,596.2 207.6,598.4 204.1,600.9 200.9,603.7 197.8,606.8 195.0,610.1 192.5,613.8 190.2,617.6 188.4,621.7 186.9,626.0 185.7,630.4 185.0,634.9 184.7,639.5 184.7,644.1 185.1,648.6 185.9,653.2 187.0,657.7 188.4,662.1 190.4,666.9 193.4,672.8 196.7,678.4 200.3,683.7 204.3,688.6 208.6,693.1 213.3,697.2 218.3,700.9 223.6,704.0 229.2,706.6 235.0,708.7 241.1,710.0 247.2,710.8 253.4,710.8 259.6,710.2 265.6,708.9 271.5,707.0 277.1,704.5 282.5,701.5 287.6,698.0 292.4,694.0 296.9,689.6 301.1,684.9 304.9,679.7 308.5,674.2 311.8,668.4 314.8,662.2 317.5,655.7 319.9,648.9 322.0,641.8 323.8,634.3 325.3,626.5 326.5,618.4 327.4,609.9 328.0,600.9 328.0,592.8 328.0,585.5 328.0,577.9 328.0,570.1 328.0,562.2 328.0,554.0 328.0,545.6 328.0,537.1 328.1,528.3 328.1,519.4 328.1,510.2 328.1,500.9 328.2,491.4 328.2,481.6 328.3,471.8 328.3,461.7 328.4,451.4 328.4,441.0 328.5,430.4 328.6,419.6 328.7,408.6 328.8,397.4 328.9,386.1 329.1,374.6 329.2,362.9 329.3,351.1 329.5,339.1 329.7,326.9 329.9,314.6 330.1,302.1 330.3,289.4 330.5,276.6 330.7,263.7 331.0,250.5 L332.2,188.5 305.8,210.0 280.2,187.5 Z" fill="#05091f"/></g>
  <path d="M279.0,249.5 L278.7,262.7 278.5,275.7 278.3,288.5 278.1,301.3 277.9,313.8 277.7,326.2 277.5,338.4 277.3,350.4 277.2,362.3 277.1,374.0 276.9,385.6 276.8,396.9 276.7,408.1 276.6,419.1 276.5,430.0 276.4,440.6 276.4,451.1 276.3,461.4 276.3,471.5 276.2,481.4 276.2,491.1 276.1,500.7 276.1,510.1 276.1,519.2 276.1,528.2 276.0,537.0 276.0,545.6 276.0,553.9 276.0,562.1 276.0,570.1 276.0,577.9 276.0,585.5 276.0,592.8 276.0,599.1 275.6,605.6 274.9,611.9 274.1,617.8 273.0,623.3 271.8,628.3 270.4,632.9 268.9,637.2 267.4,641.0 265.7,644.3 264.0,647.3 262.4,649.9 260.7,652.1 259.1,653.9 257.6,655.4 256.2,656.5 255.0,657.4 253.9,658.0 252.9,658.4 252.1,658.7 251.5,658.8 250.9,658.9 250.4,658.9 249.9,658.8 249.3,658.7 248.7,658.4 247.9,658.1 246.9,657.5 245.9,656.7 244.7,655.7 243.4,654.3 242.0,652.6 240.5,650.5 239.1,648.0 237.6,645.1 237.3,644.3 237.0,643.3 236.8,642.5 236.7,641.8 236.6,641.4 236.6,641.1 236.6,641.0 236.6,641.0 236.6,641.1 236.6,641.2 236.5,641.4 236.4,641.5 236.3,641.7 236.3,641.7 236.2,641.8 236.3,641.7 236.4,641.6 236.6,641.5 237.0,641.3 237.4,641.1 238.0,640.9 238.7,640.8 239.5,640.6 240.4,640.5 241.4,640.4 242.6,640.4 243.8,640.4 245.2,640.6 246.6,640.8 248.1,641.1 249.7,641.5 251.4,642.1 253.1,642.7 255.8,643.9 262.1,646.5 269.6,648.7 277.3,650.1 284.9,650.6 292.5,650.3 299.8,649.3 306.9,647.7 313.8,645.5 320.5,642.8 326.9,639.6 333.0,636.1 339.0,632.3 344.8,628.1 350.5,623.7 355.9,619.0 361.3,614.1 366.5,609.1 371.5,603.8 376.5,598.4 381.3,592.8 386.0,587.1 390.6,581.4 395.0,575.5 399.3,569.6 403.5,563.7 407.6,557.7 411.5,551.8 415.3,545.9 419.0,540.0 422.5,534.3 425.8,528.6 429.0,523.0 432.0,517.6 437.8,503.2 438.0,482.9 438.0,465.7 438.0,448.6 438.0,431.4 438.0,414.3 438.0,397.1 438.0,380.0 438.0,362.9 438.0,345.7 438.0,328.6 438.0,311.4 438.0,294.3 438.0,277.1 434.8,272.5 421.9,285.9 431.4,285.7 440.9,285.6 450.4,285.4 459.9,285.3 469.4,285.1 478.9,285.0 488.4,284.9 497.9,284.7 507.4,284.6 516.9,284.4 526.4,284.3 535.9,284.1 519.2,260.9 531.7,233.7 522.4,235.2 513.0,236.6 503.6,238.0 494.3,239.4 484.9,240.9 475.6,242.3 466.2,243.7 456.9,245.2 447.5,246.6 438.1,248.0 428.8,249.4 419.4,250.9 398.0,257.5 388.0,283.9 388.0,289.7 388.0,295.6 388.0,301.4 388.0,307.3 388.0,313.1 388.0,319.0 388.0,324.9 388.0,330.7 388.0,336.6 388.0,342.4 388.0,348.3 388.0,354.1 398.1,380.6 421.6,386.0 429.1,386.0 436.7,386.0 444.3,386.0 451.9,386.0 459.4,386.0 467.0,386.0 474.6,386.0 482.1,386.0 489.7,386.0 497.3,386.0 504.9,386.0 512.4,386.0 494.0,360.0 507.6,335.9 500.0,337.3 492.5,338.7 484.9,340.2 477.3,341.6 469.8,343.0 462.2,344.5 454.6,345.9 447.0,347.3 439.5,348.7 431.9,350.2 424.3,351.6 416.8,353.0 393.2,364.4 388.0,388.7 388.0,397.4 388.0,406.1 388.0,414.9 388.0,423.6 388.0,432.3 388.0,441.0 388.0,449.7 388.0,458.4 388.0,467.1 388.0,475.9 388.0,484.6 388.0,493.3 396.3,521.1 423.2,528.1 432.8,528.3 442.3,528.4 451.9,528.6 461.5,528.7 471.0,528.9 480.6,529.0 490.2,529.1 499.8,529.3 509.3,529.4 518.9,529.6 528.5,529.7 538.0,529.9 537.8,527.9 528.2,521.8 530.8,526.6 533.3,531.5 535.8,536.5 538.2,541.6 540.5,546.8 542.8,552.0 545.0,557.3 547.1,562.6 549.2,568.0 551.3,573.4 553.3,578.7 555.3,584.1 557.2,589.4 559.1,594.6 560.9,599.8 562.8,605.0 564.6,610.0 566.4,615.0 568.1,619.9 569.9,624.6 571.7,629.3 573.5,633.8 575.3,638.2 577.2,642.5 579.1,646.6 581.1,650.6 583.2,654.6 585.4,658.4 587.9,662.1 590.8,665.8 594.0,669.5 597.9,673.0 642.0,655.6 641.7,628.4 641.4,603.1 641.1,577.8 640.9,552.6 640.6,527.3 640.3,502.0 640.0,476.7 639.7,451.4 639.4,426.1 639.1,400.8 638.9,375.6 638.6,350.3 638.3,325.0 612.0,326.0 594.8,332.9 602.6,358.2 610.3,383.4 618.0,408.7 625.7,434.0 633.4,459.3 641.1,484.6 648.8,509.9 656.6,535.2 664.3,560.4 672.0,585.7 679.7,611.0 687.4,636.3 720.0,680.0 746.1,628.9 746.3,603.6 746.4,578.3 746.6,553.0 746.7,527.7 746.9,502.4 747.0,477.1 747.1,451.9 747.3,426.6 747.4,401.3 747.6,376.0 747.7,350.7 747.9,325.4 748.0,300.1 L748.3,238.1 722.2,260.0 696.4,237.9 L696.0,299.9 695.9,325.1 695.7,350.4 695.6,375.7 695.4,401.0 695.3,426.3 695.1,451.6 695.0,476.9 694.9,502.1 694.7,527.4 694.6,552.7 694.4,578.0 694.3,603.3 694.1,628.6 720.0,628.0 737.2,621.1 729.4,595.8 721.7,570.6 714.0,545.3 706.3,520.0 698.6,494.7 690.9,469.4 683.2,444.1 675.4,418.8 667.7,393.6 660.0,368.3 652.3,343.0 644.6,317.7 612.0,274.0 586.3,325.6 586.6,350.9 586.9,376.2 587.1,401.4 587.4,426.7 587.7,452.0 588.0,477.3 588.3,502.6 588.6,527.9 588.9,553.2 589.1,578.4 589.4,603.7 589.7,629.0 590.0,652.4 630.6,632.5 631.0,632.9 630.9,632.8 630.4,632.0 629.5,630.8 628.5,629.0 627.3,626.8 626.0,624.2 624.6,621.2 623.2,617.9 621.7,614.3 620.1,610.4 618.6,606.2 616.9,601.9 615.2,597.3 613.5,592.5 611.7,587.5 609.9,582.4 608.0,577.1 606.1,571.7 604.1,566.2 602.0,560.6 599.9,554.9 597.7,549.2 595.4,543.4 593.1,537.5 590.6,531.7 588.1,525.8 585.4,519.9 582.7,514.0 579.8,508.1 576.8,502.3 573.7,496.6 558.2,480.1 538.8,477.9 529.2,477.7 519.7,477.6 510.1,477.4 500.5,477.3 491.0,477.1 481.4,477.0 471.8,476.9 462.2,476.7 452.7,476.6 443.1,476.4 433.5,476.3 424.0,476.1 431.7,482.9 440.0,493.3 440.0,484.6 440.0,475.9 440.0,467.1 440.0,458.4 440.0,449.7 440.0,441.0 440.0,432.3 440.0,423.6 440.0,414.9 440.0,406.1 440.0,397.4 440.0,388.7 434.8,395.6 426.4,404.1 434.0,402.7 441.5,401.3 449.1,399.8 456.7,398.4 464.2,397.0 471.8,395.5 479.4,394.1 487.0,392.7 494.5,391.3 502.1,389.8 509.7,388.4 517.2,387.0 546.0,360.0 512.4,334.0 504.9,334.0 497.3,334.0 489.7,334.0 482.1,334.0 474.6,334.0 467.0,334.0 459.4,334.0 451.9,334.0 444.3,334.0 436.7,334.0 429.1,334.0 421.6,334.0 429.9,339.4 440.0,354.1 440.0,348.3 440.0,342.4 440.0,336.6 440.0,330.7 440.0,324.9 440.0,319.0 440.0,313.1 440.0,307.3 440.0,301.4 440.0,295.6 440.0,289.7 440.0,283.9 430.0,298.5 427.3,302.3 436.6,300.8 446.0,299.4 455.4,298.0 464.7,296.6 474.1,295.1 483.4,293.7 492.8,292.3 502.1,290.8 511.5,289.4 520.9,288.0 530.2,286.6 539.6,285.1 570.8,255.1 535.1,232.1 525.6,232.3 516.1,232.4 506.6,232.6 497.1,232.7 487.6,232.9 478.1,233.0 468.6,233.1 459.1,233.3 449.6,233.4 440.1,233.6 430.6,233.7 421.1,233.9 389.2,247.5 386.0,277.1 386.0,294.3 386.0,311.4 386.0,328.6 386.0,345.7 386.0,362.9 386.0,380.0 386.0,397.1 386.0,414.3 386.0,431.4 386.0,448.6 386.0,465.7 386.0,482.9 386.2,496.8 386.5,492.5 383.8,497.4 380.9,502.5 377.8,507.6 374.7,512.8 371.4,518.1 368.0,523.4 364.5,528.7 360.8,534.0 357.1,539.2 353.4,544.4 349.5,549.5 345.6,554.4 341.6,559.2 337.6,563.8 333.6,568.2 329.5,572.4 325.5,576.4 321.5,580.1 317.5,583.5 313.6,586.5 309.8,589.3 306.1,591.7 302.5,593.7 299.2,595.3 296.0,596.6 293.1,597.6 290.4,598.2 288.0,598.5 285.7,598.6 283.6,598.5 281.6,598.1 279.5,597.5 276.2,596.1 272.9,594.6 268.7,593.0 264.4,591.7 260.2,590.5 255.9,589.6 251.7,589.0 247.5,588.6 243.2,588.4 239.0,588.4 234.9,588.8 230.8,589.3 226.7,590.2 222.7,591.2 218.8,592.6 214.9,594.2 211.2,596.2 207.6,598.4 204.1,600.9 200.9,603.7 197.8,606.8 195.0,610.1 192.5,613.8 190.2,617.6 188.4,621.7 186.9,626.0 185.7,630.4 185.0,634.9 184.7,639.5 184.7,644.1 185.1,648.6 185.9,653.2 187.0,657.7 188.4,662.1 190.4,666.9 193.4,672.8 196.7,678.4 200.3,683.7 204.3,688.6 208.6,693.1 213.3,697.2 218.3,700.9 223.6,704.0 229.2,706.6 235.0,708.7 241.1,710.0 247.2,710.8 253.4,710.8 259.6,710.2 265.6,708.9 271.5,707.0 277.1,704.5 282.5,701.5 287.6,698.0 292.4,694.0 296.9,689.6 301.1,684.9 304.9,679.7 308.5,674.2 311.8,668.4 314.8,662.2 317.5,655.7 319.9,648.9 322.0,641.8 323.8,634.3 325.3,626.5 326.5,618.4 327.4,609.9 328.0,600.9 328.0,592.8 328.0,585.5 328.0,577.9 328.0,570.1 328.0,562.2 328.0,554.0 328.0,545.6 328.0,537.1 328.1,528.3 328.1,519.4 328.1,510.2 328.1,500.9 328.2,491.4 328.2,481.6 328.3,471.8 328.3,461.7 328.4,451.4 328.4,441.0 328.5,430.4 328.6,419.6 328.7,408.6 328.8,397.4 328.9,386.1 329.1,374.6 329.2,362.9 329.3,351.1 329.5,339.1 329.7,326.9 329.9,314.6 330.1,302.1 330.3,289.4 330.5,276.6 330.7,263.7 331.0,250.5 L332.2,188.5 305.8,210.0 280.2,187.5 Z" fill="none" stroke="#ffffff" stroke-width="20" stroke-linejoin="round"/>
  <path d="M279.0,249.5 L278.7,262.7 278.5,275.7 278.3,288.5 278.1,301.3 277.9,313.8 277.7,326.2 277.5,338.4 277.3,350.4 277.2,362.3 277.1,374.0 276.9,385.6 276.8,396.9 276.7,408.1 276.6,419.1 276.5,430.0 276.4,440.6 276.4,451.1 276.3,461.4 276.3,471.5 276.2,481.4 276.2,491.1 276.1,500.7 276.1,510.1 276.1,519.2 276.1,528.2 276.0,537.0 276.0,545.6 276.0,553.9 276.0,562.1 276.0,570.1 276.0,577.9 276.0,585.5 276.0,592.8 276.0,599.1 275.6,605.6 274.9,611.9 274.1,617.8 273.0,623.3 271.8,628.3 270.4,632.9 268.9,637.2 267.4,641.0 265.7,644.3 264.0,647.3 262.4,649.9 260.7,652.1 259.1,653.9 257.6,655.4 256.2,656.5 255.0,657.4 253.9,658.0 252.9,658.4 252.1,658.7 251.5,658.8 250.9,658.9 250.4,658.9 249.9,658.8 249.3,658.7 248.7,658.4 247.9,658.1 246.9,657.5 245.9,656.7 244.7,655.7 243.4,654.3 242.0,652.6 240.5,650.5 239.1,648.0 237.6,645.1 237.3,644.3 237.0,643.3 236.8,642.5 236.7,641.8 236.6,641.4 236.6,641.1 236.6,641.0 236.6,641.0 236.6,641.1 236.6,641.2 236.5,641.4 236.4,641.5 236.3,641.7 236.3,641.7 236.2,641.8 236.3,641.7 236.4,641.6 236.6,641.5 237.0,641.3 237.4,641.1 238.0,640.9 238.7,640.8 239.5,640.6 240.4,640.5 241.4,640.4 242.6,640.4 243.8,640.4 245.2,640.6 246.6,640.8 248.1,641.1 249.7,641.5 251.4,642.1 253.1,642.7 255.8,643.9 262.1,646.5 269.6,648.7 277.3,650.1 284.9,650.6 292.5,650.3 299.8,649.3 306.9,647.7 313.8,645.5 320.5,642.8 326.9,639.6 333.0,636.1 339.0,632.3 344.8,628.1 350.5,623.7 355.9,619.0 361.3,614.1 366.5,609.1 371.5,603.8 376.5,598.4 381.3,592.8 386.0,587.1 390.6,581.4 395.0,575.5 399.3,569.6 403.5,563.7 407.6,557.7 411.5,551.8 415.3,545.9 419.0,540.0 422.5,534.3 425.8,528.6 429.0,523.0 432.0,517.6 437.8,503.2 438.0,482.9 438.0,465.7 438.0,448.6 438.0,431.4 438.0,414.3 438.0,397.1 438.0,380.0 438.0,362.9 438.0,345.7 438.0,328.6 438.0,311.4 438.0,294.3 438.0,277.1 434.8,272.5 421.9,285.9 431.4,285.7 440.9,285.6 450.4,285.4 459.9,285.3 469.4,285.1 478.9,285.0 488.4,284.9 497.9,284.7 507.4,284.6 516.9,284.4 526.4,284.3 535.9,284.1 519.2,260.9 531.7,233.7 522.4,235.2 513.0,236.6 503.6,238.0 494.3,239.4 484.9,240.9 475.6,242.3 466.2,243.7 456.9,245.2 447.5,246.6 438.1,248.0 428.8,249.4 419.4,250.9 398.0,257.5 388.0,283.9 388.0,289.7 388.0,295.6 388.0,301.4 388.0,307.3 388.0,313.1 388.0,319.0 388.0,324.9 388.0,330.7 388.0,336.6 388.0,342.4 388.0,348.3 388.0,354.1 398.1,380.6 421.6,386.0 429.1,386.0 436.7,386.0 444.3,386.0 451.9,386.0 459.4,386.0 467.0,386.0 474.6,386.0 482.1,386.0 489.7,386.0 497.3,386.0 504.9,386.0 512.4,386.0 494.0,360.0 507.6,335.9 500.0,337.3 492.5,338.7 484.9,340.2 477.3,341.6 469.8,343.0 462.2,344.5 454.6,345.9 447.0,347.3 439.5,348.7 431.9,350.2 424.3,351.6 416.8,353.0 393.2,364.4 388.0,388.7 388.0,397.4 388.0,406.1 388.0,414.9 388.0,423.6 388.0,432.3 388.0,441.0 388.0,449.7 388.0,458.4 388.0,467.1 388.0,475.9 388.0,484.6 388.0,493.3 396.3,521.1 423.2,528.1 432.8,528.3 442.3,528.4 451.9,528.6 461.5,528.7 471.0,528.9 480.6,529.0 490.2,529.1 499.8,529.3 509.3,529.4 518.9,529.6 528.5,529.7 538.0,529.9 537.8,527.9 528.2,521.8 530.8,526.6 533.3,531.5 535.8,536.5 538.2,541.6 540.5,546.8 542.8,552.0 545.0,557.3 547.1,562.6 549.2,568.0 551.3,573.4 553.3,578.7 555.3,584.1 557.2,589.4 559.1,594.6 560.9,599.8 562.8,605.0 564.6,610.0 566.4,615.0 568.1,619.9 569.9,624.6 571.7,629.3 573.5,633.8 575.3,638.2 577.2,642.5 579.1,646.6 581.1,650.6 583.2,654.6 585.4,658.4 587.9,662.1 590.8,665.8 594.0,669.5 597.9,673.0 642.0,655.6 641.7,628.4 641.4,603.1 641.1,577.8 640.9,552.6 640.6,527.3 640.3,502.0 640.0,476.7 639.7,451.4 639.4,426.1 639.1,400.8 638.9,375.6 638.6,350.3 638.3,325.0 612.0,326.0 594.8,332.9 602.6,358.2 610.3,383.4 618.0,408.7 625.7,434.0 633.4,459.3 641.1,484.6 648.8,509.9 656.6,535.2 664.3,560.4 672.0,585.7 679.7,611.0 687.4,636.3 720.0,680.0 746.1,628.9 746.3,603.6 746.4,578.3 746.6,553.0 746.7,527.7 746.9,502.4 747.0,477.1 747.1,451.9 747.3,426.6 747.4,401.3 747.6,376.0 747.7,350.7 747.9,325.4 748.0,300.1 L748.3,238.1 722.2,260.0 696.4,237.9 L696.0,299.9 695.9,325.1 695.7,350.4 695.6,375.7 695.4,401.0 695.3,426.3 695.1,451.6 695.0,476.9 694.9,502.1 694.7,527.4 694.6,552.7 694.4,578.0 694.3,603.3 694.1,628.6 720.0,628.0 737.2,621.1 729.4,595.8 721.7,570.6 714.0,545.3 706.3,520.0 698.6,494.7 690.9,469.4 683.2,444.1 675.4,418.8 667.7,393.6 660.0,368.3 652.3,343.0 644.6,317.7 612.0,274.0 586.3,325.6 586.6,350.9 586.9,376.2 587.1,401.4 587.4,426.7 587.7,452.0 588.0,477.3 588.3,502.6 588.6,527.9 588.9,553.2 589.1,578.4 589.4,603.7 589.7,629.0 590.0,652.4 630.6,632.5 631.0,632.9 630.9,632.8 630.4,632.0 629.5,630.8 628.5,629.0 627.3,626.8 626.0,624.2 624.6,621.2 623.2,617.9 621.7,614.3 620.1,610.4 618.6,606.2 616.9,601.9 615.2,597.3 613.5,592.5 611.7,587.5 609.9,582.4 608.0,577.1 606.1,571.7 604.1,566.2 602.0,560.6 599.9,554.9 597.7,549.2 595.4,543.4 593.1,537.5 590.6,531.7 588.1,525.8 585.4,519.9 582.7,514.0 579.8,508.1 576.8,502.3 573.7,496.6 558.2,480.1 538.8,477.9 529.2,477.7 519.7,477.6 510.1,477.4 500.5,477.3 491.0,477.1 481.4,477.0 471.8,476.9 462.2,476.7 452.7,476.6 443.1,476.4 433.5,476.3 424.0,476.1 431.7,482.9 440.0,493.3 440.0,484.6 440.0,475.9 440.0,467.1 440.0,458.4 440.0,449.7 440.0,441.0 440.0,432.3 440.0,423.6 440.0,414.9 440.0,406.1 440.0,397.4 440.0,388.7 434.8,395.6 426.4,404.1 434.0,402.7 441.5,401.3 449.1,399.8 456.7,398.4 464.2,397.0 471.8,395.5 479.4,394.1 487.0,392.7 494.5,391.3 502.1,389.8 509.7,388.4 517.2,387.0 546.0,360.0 512.4,334.0 504.9,334.0 497.3,334.0 489.7,334.0 482.1,334.0 474.6,334.0 467.0,334.0 459.4,334.0 451.9,334.0 444.3,334.0 436.7,334.0 429.1,334.0 421.6,334.0 429.9,339.4 440.0,354.1 440.0,348.3 440.0,342.4 440.0,336.6 440.0,330.7 440.0,324.9 440.0,319.0 440.0,313.1 440.0,307.3 440.0,301.4 440.0,295.6 440.0,289.7 440.0,283.9 430.0,298.5 427.3,302.3 436.6,300.8 446.0,299.4 455.4,298.0 464.7,296.6 474.1,295.1 483.4,293.7 492.8,292.3 502.1,290.8 511.5,289.4 520.9,288.0 530.2,286.6 539.6,285.1 570.8,255.1 535.1,232.1 525.6,232.3 516.1,232.4 506.6,232.6 497.1,232.7 487.6,232.9 478.1,233.0 468.6,233.1 459.1,233.3 449.6,233.4 440.1,233.6 430.6,233.7 421.1,233.9 389.2,247.5 386.0,277.1 386.0,294.3 386.0,311.4 386.0,328.6 386.0,345.7 386.0,362.9 386.0,380.0 386.0,397.1 386.0,414.3 386.0,431.4 386.0,448.6 386.0,465.7 386.0,482.9 386.2,496.8 386.5,492.5 383.8,497.4 380.9,502.5 377.8,507.6 374.7,512.8 371.4,518.1 368.0,523.4 364.5,528.7 360.8,534.0 357.1,539.2 353.4,544.4 349.5,549.5 345.6,554.4 341.6,559.2 337.6,563.8 333.6,568.2 329.5,572.4 325.5,576.4 321.5,580.1 317.5,583.5 313.6,586.5 309.8,589.3 306.1,591.7 302.5,593.7 299.2,595.3 296.0,596.6 293.1,597.6 290.4,598.2 288.0,598.5 285.7,598.6 283.6,598.5 281.6,598.1 279.5,597.5 276.2,596.1 272.9,594.6 268.7,593.0 264.4,591.7 260.2,590.5 255.9,589.6 251.7,589.0 247.5,588.6 243.2,588.4 239.0,588.4 234.9,588.8 230.8,589.3 226.7,590.2 222.7,591.2 218.8,592.6 214.9,594.2 211.2,596.2 207.6,598.4 204.1,600.9 200.9,603.7 197.8,606.8 195.0,610.1 192.5,613.8 190.2,617.6 188.4,621.7 186.9,626.0 185.7,630.4 185.0,634.9 184.7,639.5 184.7,644.1 185.1,648.6 185.9,653.2 187.0,657.7 188.4,662.1 190.4,666.9 193.4,672.8 196.7,678.4 200.3,683.7 204.3,688.6 208.6,693.1 213.3,697.2 218.3,700.9 223.6,704.0 229.2,706.6 235.0,708.7 241.1,710.0 247.2,710.8 253.4,710.8 259.6,710.2 265.6,708.9 271.5,707.0 277.1,704.5 282.5,701.5 287.6,698.0 292.4,694.0 296.9,689.6 301.1,684.9 304.9,679.7 308.5,674.2 311.8,668.4 314.8,662.2 317.5,655.7 319.9,648.9 322.0,641.8 323.8,634.3 325.3,626.5 326.5,618.4 327.4,609.9 328.0,600.9 328.0,592.8 328.0,585.5 328.0,577.9 328.0,570.1 328.0,562.2 328.0,554.0 328.0,545.6 328.0,537.1 328.1,528.3 328.1,519.4 328.1,510.2 328.1,500.9 328.2,491.4 328.2,481.6 328.3,471.8 328.3,461.7 328.4,451.4 328.4,441.0 328.5,430.4 328.6,419.6 328.7,408.6 328.8,397.4 328.9,386.1 329.1,374.6 329.2,362.9 329.3,351.1 329.5,339.1 329.7,326.9 329.9,314.6 330.1,302.1 330.3,289.4 330.5,276.6 330.7,263.7 331.0,250.5 L332.2,188.5 305.8,210.0 280.2,187.5 Z" fill="none" stroke="#0a1a52" stroke-width="6" stroke-linejoin="round"/>
  <path d="M279.0,249.5 L278.7,262.7 278.5,275.7 278.3,288.5 278.1,301.3 277.9,313.8 277.7,326.2 277.5,338.4 277.3,350.4 277.2,362.3 277.1,374.0 276.9,385.6 276.8,396.9 276.7,408.1 276.6,419.1 276.5,430.0 276.4,440.6 276.4,451.1 276.3,461.4 276.3,471.5 276.2,481.4 276.2,491.1 276.1,500.7 276.1,510.1 276.1,519.2 276.1,528.2 276.0,537.0 276.0,545.6 276.0,553.9 276.0,562.1 276.0,570.1 276.0,577.9 276.0,585.5 276.0,592.8 276.0,599.1 275.6,605.6 274.9,611.9 274.1,617.8 273.0,623.3 271.8,628.3 270.4,632.9 268.9,637.2 267.4,641.0 265.7,644.3 264.0,647.3 262.4,649.9 260.7,652.1 259.1,653.9 257.6,655.4 256.2,656.5 255.0,657.4 253.9,658.0 252.9,658.4 252.1,658.7 251.5,658.8 250.9,658.9 250.4,658.9 249.9,658.8 249.3,658.7 248.7,658.4 247.9,658.1 246.9,657.5 245.9,656.7 244.7,655.7 243.4,654.3 242.0,652.6 240.5,650.5 239.1,648.0 237.6,645.1 237.3,644.3 237.0,643.3 236.8,642.5 236.7,641.8 236.6,641.4 236.6,641.1 236.6,641.0 236.6,641.0 236.6,641.1 236.6,641.2 236.5,641.4 236.4,641.5 236.3,641.7 236.3,641.7 236.2,641.8 236.3,641.7 236.4,641.6 236.6,641.5 237.0,641.3 237.4,641.1 238.0,640.9 238.7,640.8 239.5,640.6 240.4,640.5 241.4,640.4 242.6,640.4 243.8,640.4 245.2,640.6 246.6,640.8 248.1,641.1 249.7,641.5 251.4,642.1 253.1,642.7 255.8,643.9 262.1,646.5 269.6,648.7 277.3,650.1 284.9,650.6 292.5,650.3 299.8,649.3 306.9,647.7 313.8,645.5 320.5,642.8 326.9,639.6 333.0,636.1 339.0,632.3 344.8,628.1 350.5,623.7 355.9,619.0 361.3,614.1 366.5,609.1 371.5,603.8 376.5,598.4 381.3,592.8 386.0,587.1 390.6,581.4 395.0,575.5 399.3,569.6 403.5,563.7 407.6,557.7 411.5,551.8 415.3,545.9 419.0,540.0 422.5,534.3 425.8,528.6 429.0,523.0 432.0,517.6 437.8,503.2 438.0,482.9 438.0,465.7 438.0,448.6 438.0,431.4 438.0,414.3 438.0,397.1 438.0,380.0 438.0,362.9 438.0,345.7 438.0,328.6 438.0,311.4 438.0,294.3 438.0,277.1 434.8,272.5 421.9,285.9 431.4,285.7 440.9,285.6 450.4,285.4 459.9,285.3 469.4,285.1 478.9,285.0 488.4,284.9 497.9,284.7 507.4,284.6 516.9,284.4 526.4,284.3 535.9,284.1 519.2,260.9 531.7,233.7 522.4,235.2 513.0,236.6 503.6,238.0 494.3,239.4 484.9,240.9 475.6,242.3 466.2,243.7 456.9,245.2 447.5,246.6 438.1,248.0 428.8,249.4 419.4,250.9 398.0,257.5 388.0,283.9 388.0,289.7 388.0,295.6 388.0,301.4 388.0,307.3 388.0,313.1 388.0,319.0 388.0,324.9 388.0,330.7 388.0,336.6 388.0,342.4 388.0,348.3 388.0,354.1 398.1,380.6 421.6,386.0 429.1,386.0 436.7,386.0 444.3,386.0 451.9,386.0 459.4,386.0 467.0,386.0 474.6,386.0 482.1,386.0 489.7,386.0 497.3,386.0 504.9,386.0 512.4,386.0 494.0,360.0 507.6,335.9 500.0,337.3 492.5,338.7 484.9,340.2 477.3,341.6 469.8,343.0 462.2,344.5 454.6,345.9 447.0,347.3 439.5,348.7 431.9,350.2 424.3,351.6 416.8,353.0 393.2,364.4 388.0,388.7 388.0,397.4 388.0,406.1 388.0,414.9 388.0,423.6 388.0,432.3 388.0,441.0 388.0,449.7 388.0,458.4 388.0,467.1 388.0,475.9 388.0,484.6 388.0,493.3 396.3,521.1 423.2,528.1 432.8,528.3 442.3,528.4 451.9,528.6 461.5,528.7 471.0,528.9 480.6,529.0 490.2,529.1 499.8,529.3 509.3,529.4 518.9,529.6 528.5,529.7 538.0,529.9 537.8,527.9 528.2,521.8 530.8,526.6 533.3,531.5 535.8,536.5 538.2,541.6 540.5,546.8 542.8,552.0 545.0,557.3 547.1,562.6 549.2,568.0 551.3,573.4 553.3,578.7 555.3,584.1 557.2,589.4 559.1,594.6 560.9,599.8 562.8,605.0 564.6,610.0 566.4,615.0 568.1,619.9 569.9,624.6 571.7,629.3 573.5,633.8 575.3,638.2 577.2,642.5 579.1,646.6 581.1,650.6 583.2,654.6 585.4,658.4 587.9,662.1 590.8,665.8 594.0,669.5 597.9,673.0 642.0,655.6 641.7,628.4 641.4,603.1 641.1,577.8 640.9,552.6 640.6,527.3 640.3,502.0 640.0,476.7 639.7,451.4 639.4,426.1 639.1,400.8 638.9,375.6 638.6,350.3 638.3,325.0 612.0,326.0 594.8,332.9 602.6,358.2 610.3,383.4 618.0,408.7 625.7,434.0 633.4,459.3 641.1,484.6 648.8,509.9 656.6,535.2 664.3,560.4 672.0,585.7 679.7,611.0 687.4,636.3 720.0,680.0 746.1,628.9 746.3,603.6 746.4,578.3 746.6,553.0 746.7,527.7 746.9,502.4 747.0,477.1 747.1,451.9 747.3,426.6 747.4,401.3 747.6,376.0 747.7,350.7 747.9,325.4 748.0,300.1 L748.3,238.1 722.2,260.0 696.4,237.9 L696.0,299.9 695.9,325.1 695.7,350.4 695.6,375.7 695.4,401.0 695.3,426.3 695.1,451.6 695.0,476.9 694.9,502.1 694.7,527.4 694.6,552.7 694.4,578.0 694.3,603.3 694.1,628.6 720.0,628.0 737.2,621.1 729.4,595.8 721.7,570.6 714.0,545.3 706.3,520.0 698.6,494.7 690.9,469.4 683.2,444.1 675.4,418.8 667.7,393.6 660.0,368.3 652.3,343.0 644.6,317.7 612.0,274.0 586.3,325.6 586.6,350.9 586.9,376.2 587.1,401.4 587.4,426.7 587.7,452.0 588.0,477.3 588.3,502.6 588.6,527.9 588.9,553.2 589.1,578.4 589.4,603.7 589.7,629.0 590.0,652.4 630.6,632.5 631.0,632.9 630.9,632.8 630.4,632.0 629.5,630.8 628.5,629.0 627.3,626.8 626.0,624.2 624.6,621.2 623.2,617.9 621.7,614.3 620.1,610.4 618.6,606.2 616.9,601.9 615.2,597.3 613.5,592.5 611.7,587.5 609.9,582.4 608.0,577.1 606.1,571.7 604.1,566.2 602.0,560.6 599.9,554.9 597.7,549.2 595.4,543.4 593.1,537.5 590.6,531.7 588.1,525.8 585.4,519.9 582.7,514.0 579.8,508.1 576.8,502.3 573.7,496.6 558.2,480.1 538.8,477.9 529.2,477.7 519.7,477.6 510.1,477.4 500.5,477.3 491.0,477.1 481.4,477.0 471.8,476.9 462.2,476.7 452.7,476.6 443.1,476.4 433.5,476.3 424.0,476.1 431.7,482.9 440.0,493.3 440.0,484.6 440.0,475.9 440.0,467.1 440.0,458.4 440.0,449.7 440.0,441.0 440.0,432.3 440.0,423.6 440.0,414.9 440.0,406.1 440.0,397.4 440.0,388.7 434.8,395.6 426.4,404.1 434.0,402.7 441.5,401.3 449.1,399.8 456.7,398.4 464.2,397.0 471.8,395.5 479.4,394.1 487.0,392.7 494.5,391.3 502.1,389.8 509.7,388.4 517.2,387.0 546.0,360.0 512.4,334.0 504.9,334.0 497.3,334.0 489.7,334.0 482.1,334.0 474.6,334.0 467.0,334.0 459.4,334.0 451.9,334.0 444.3,334.0 436.7,334.0 429.1,334.0 421.6,334.0 429.9,339.4 440.0,354.1 440.0,348.3 440.0,342.4 440.0,336.6 440.0,330.7 440.0,324.9 440.0,319.0 440.0,313.1 440.0,307.3 440.0,301.4 440.0,295.6 440.0,289.7 440.0,283.9 430.0,298.5 427.3,302.3 436.6,300.8 446.0,299.4 455.4,298.0 464.7,296.6 474.1,295.1 483.4,293.7 492.8,292.3 502.1,290.8 511.5,289.4 520.9,288.0 530.2,286.6 539.6,285.1 570.8,255.1 535.1,232.1 525.6,232.3 516.1,232.4 506.6,232.6 497.1,232.7 487.6,232.9 478.1,233.0 468.6,233.1 459.1,233.3 449.6,233.4 440.1,233.6 430.6,233.7 421.1,233.9 389.2,247.5 386.0,277.1 386.0,294.3 386.0,311.4 386.0,328.6 386.0,345.7 386.0,362.9 386.0,380.0 386.0,397.1 386.0,414.3 386.0,431.4 386.0,448.6 386.0,465.7 386.0,482.9 386.2,496.8 386.5,492.5 383.8,497.4 380.9,502.5 377.8,507.6 374.7,512.8 371.4,518.1 368.0,523.4 364.5,528.7 360.8,534.0 357.1,539.2 353.4,544.4 349.5,549.5 345.6,554.4 341.6,559.2 337.6,563.8 333.6,568.2 329.5,572.4 325.5,576.4 321.5,580.1 317.5,583.5 313.6,586.5 309.8,589.3 306.1,591.7 302.5,593.7 299.2,595.3 296.0,596.6 293.1,597.6 290.4,598.2 288.0,598.5 285.7,598.6 283.6,598.5 281.6,598.1 279.5,597.5 276.2,596.1 272.9,594.6 268.7,593.0 264.4,591.7 260.2,590.5 255.9,589.6 251.7,589.0 247.5,588.6 243.2,588.4 239.0,588.4 234.9,588.8 230.8,589.3 226.7,590.2 222.7,591.2 218.8,592.6 214.9,594.2 211.2,596.2 207.6,598.4 204.1,600.9 200.9,603.7 197.8,606.8 195.0,610.1 192.5,613.8 190.2,617.6 188.4,621.7 186.9,626.0 185.7,630.4 185.0,634.9 184.7,639.5 184.7,644.1 185.1,648.6 185.9,653.2 187.0,657.7 188.4,662.1 190.4,666.9 193.4,672.8 196.7,678.4 200.3,683.7 204.3,688.6 208.6,693.1 213.3,697.2 218.3,700.9 223.6,704.0 229.2,706.6 235.0,708.7 241.1,710.0 247.2,710.8 253.4,710.8 259.6,710.2 265.6,708.9 271.5,707.0 277.1,704.5 282.5,701.5 287.6,698.0 292.4,694.0 296.9,689.6 301.1,684.9 304.9,679.7 308.5,674.2 311.8,668.4 314.8,662.2 317.5,655.7 319.9,648.9 322.0,641.8 323.8,634.3 325.3,626.5 326.5,618.4 327.4,609.9 328.0,600.9 328.0,592.8 328.0,585.5 328.0,577.9 328.0,570.1 328.0,562.2 328.0,554.0 328.0,545.6 328.0,537.1 328.1,528.3 328.1,519.4 328.1,510.2 328.1,500.9 328.2,491.4 328.2,481.6 328.3,471.8 328.3,461.7 328.4,451.4 328.4,441.0 328.5,430.4 328.6,419.6 328.7,408.6 328.8,397.4 328.9,386.1 329.1,374.6 329.2,362.9 329.3,351.1 329.5,339.1 329.7,326.9 329.9,314.6 330.1,302.1 330.3,289.4 330.5,276.6 330.7,263.7 331.0,250.5 L332.2,188.5 305.8,210.0 280.2,187.5 Z" fill="url(#ribbon)"/>
  <path d="M330.2,250.5 330.0,263.6 329.7,276.6 329.5,289.4 329.3,302.1 329.1,314.6 328.9,326.9 328.7,339.1 328.6,351.1 328.4,362.9 328.3,374.6 328.1,386.1 328.0,397.4 327.9,408.6 327.8,419.5 327.7,430.3 327.7,441.0 327.6,451.4 327.5,461.7 327.5,471.8 327.4,481.6 327.4,491.4 327.4,500.9 327.3,510.2 327.3,519.3 327.3,528.3 327.3,537.1 327.2,545.6 327.2,554.0 327.2,562.2 327.2,570.1 327.2,577.9 327.2,585.5 327.2,592.8 327.2,600.8 326.6,609.9 325.8,618.3 324.6,626.4 323.1,634.1 321.3,641.6 319.2,648.7 316.8,655.5 314.1,661.9 311.1,668.0 307.9,673.8 304.3,679.3 300.5,684.4 296.3,689.1 291.9,693.4 287.1,697.4 282.1,700.8 276.8,703.8 271.2,706.3 265.4,708.1 259.5,709.4 253.4,710.0 247.3,710.0 241.2,709.3 235.2,707.9 229.5,705.9 223.9,703.3 218.7,700.2 213.7,696.6 209.1,692.6 204.9,688.1 200.9,683.2 197.3,678.0 194.0,672.4 191.1,666.6 189.2,661.8 187.8,657.4 186.7,653.0 185.9,648.5 185.5,644.0 235.9,641.1 235.9,640.9 235.9,640.8 235.9,640.9 235.8,640.9 235.8,641.0 235.8,641.1 235.7,641.2 235.7,641.2 235.7,641.2 235.8,641.1 236.0,641.0 236.3,640.8 236.6,640.6 237.1,640.4 237.8,640.2 238.5,640.0 239.3,639.8 240.3,639.7 241.4,639.6 242.6,639.6 243.9,639.6 245.3,639.8 246.7,640.0 248.3,640.3 249.9,640.8 251.6,641.3 253.4,642.0 256.1,643.2 262.3,645.8 269.8,648.0 277.4,649.3 284.9,649.8 292.4,649.5 299.7,648.6 306.7,646.9 313.6,644.7 320.1,642.1 326.5,638.9 332.6,635.5 338.6,631.6 344.4,627.5 350.0,623.1 355.4,618.4 360.7,613.6 365.9,608.5 371.0,603.3 375.9,597.8 380.7,592.3 385.4,586.6 390.0,580.9 394.4,575.0 398.7,569.2 402.9,563.2 407.0,557.3 410.9,551.4 414.7,545.5 418.3,539.6 421.8,533.9 425.1,528.2 428.3,522.6 431.4,517.2 437.0,503.1 437.2,482.9 437.2,465.7 437.2,448.6 437.2,431.4 437.2,414.3 437.2,397.1 437.2,380.0 437.2,362.9 437.2,345.7 437.2,328.6 437.2,311.4 437.2,294.3 437.2,277.1 434.1,272.1 421.9,285.1 431.4,284.9 440.9,284.8 450.4,284.6 459.9,284.5 469.4,284.4 478.9,284.2 488.4,284.1 497.9,283.9 507.4,283.8 516.9,283.6 526.4,283.5 535.9,283.4 519.9,260.8 539.4,284.4 530.1,285.8 520.7,287.2 511.4,288.6 502.0,290.1 492.7,291.5 483.3,292.9 473.9,294.4 464.6,295.8 455.2,297.2 445.9,298.6 436.5,300.1 427.2,301.5 429.5,297.9 388.8,283.9 388.8,289.7 388.8,295.6 388.8,301.4 388.8,307.3 388.8,313.1 388.8,319.0 388.8,324.9 388.8,330.7 388.8,336.6 388.8,342.4 388.8,348.3 388.8,354.1 398.6,379.9 421.6,385.2 429.1,385.2 436.7,385.2 444.3,385.2 451.9,385.2 459.4,385.2 467.0,385.2 474.6,385.2 482.1,385.2 489.7,385.2 497.3,385.2 504.9,385.2 512.4,385.2 494.8,360.0 517.1,386.2 509.5,387.6 502.0,389.1 494.4,390.5 486.8,391.9 479.2,393.4 471.7,394.8 464.1,396.2 456.5,397.6 449.0,399.1 441.4,400.5 433.8,401.9 426.2,403.4 434.2,395.1 388.8,388.7 388.8,397.4 388.8,406.1 388.8,414.9 388.8,423.6 388.8,432.3 388.8,441.0 388.8,449.7 388.8,458.4 388.8,467.1 388.8,475.9 388.8,484.6 388.8,493.3 396.9,520.5 423.2,527.4 432.8,527.5 442.3,527.6 451.9,527.8 461.5,527.9 471.1,528.1 480.6,528.2 490.2,528.4 499.8,528.5 509.3,528.6 518.9,528.8 528.5,528.9 538.1,529.1 538.1,527.2 528.9,521.4 531.5,526.2 534.0,531.1 536.5,536.1 538.9,541.3 541.2,546.4 543.5,551.7 545.7,557.0 547.9,562.4 550.0,567.7 552.0,573.1 554.0,578.5 556.0,583.8 557.9,589.1 559.8,594.4 561.7,599.6 563.5,604.7 565.3,609.8 567.1,614.7 568.9,619.6 570.6,624.4 572.4,629.0 574.2,633.5 576.0,637.9 577.9,642.2 579.8,646.3 581.8,650.3 583.9,654.2 586.1,658.0 588.6,661.7 591.4,665.3 594.6,668.9 598.4,672.4 641.2,655.5 590.5,629.0 590.2,603.7 589.9,578.4 589.6,553.1 589.4,527.9 589.1,502.6 588.8,477.3 588.5,452.0 588.2,426.7 587.9,401.4 587.6,376.1 587.4,350.9 587.1,325.6 612.0,325.2 595.6,332.6 603.3,357.9 611.0,383.2 618.7,408.5 626.4,433.8 634.2,459.1 641.9,484.4 649.6,509.6 657.3,534.9 665.0,560.2 672.7,585.5 680.4,610.8 688.2,636.1 720.0,679.2 745.4,628.9 745.5,603.6 745.6,578.3 745.8,553.0 745.9,527.7 746.1,502.4 746.2,477.1 746.4,451.9 746.5,426.6 746.6,401.3 746.8,376.0 746.9,350.7 747.1,325.4 747.2,300.1 L730.3,300.0 730.2,325.3 730.0,350.6 729.9,375.9 729.7,401.2 729.6,426.5 729.5,451.8 729.3,477.0 729.2,502.3 729.0,527.6 728.9,552.9 728.7,578.2 728.6,603.5 728.5,628.8 720.0,662.3 704.3,631.1 696.6,605.9 688.9,580.6 681.2,555.3 673.5,530.0 665.8,504.7 658.0,479.4 650.3,454.1 642.6,428.9 634.9,403.6 627.2,378.3 619.5,353.0 611.8,327.7 612.0,308.3 604.0,325.4 604.3,350.7 604.5,376.0 604.8,401.2 605.1,426.5 605.4,451.8 605.7,477.1 606.0,502.4 606.3,527.7 606.5,553.0 606.8,578.2 607.1,603.5 607.4,628.8 624.3,654.5 609.0,659.2 606.6,657.0 604.4,654.6 602.4,651.9 600.4,649.0 598.6,645.9 596.8,642.5 595.0,639.0 593.3,635.2 591.6,631.3 589.9,627.2 588.2,622.9 586.5,618.4 584.7,613.8 583.0,609.0 581.2,604.1 579.4,599.0 577.6,593.9 575.7,588.7 573.8,583.4 571.9,578.0 569.9,572.6 567.8,567.1 565.7,561.6 563.5,556.1 561.3,550.6 559.0,545.1 556.7,539.6 554.2,534.2 551.7,528.8 549.1,523.5 546.4,518.3 543.7,513.2 544.7,511.7 538.3,512.2 528.7,512.0 519.2,511.9 509.6,511.7 500.0,511.6 490.4,511.5 480.9,511.3 471.3,511.2 461.7,511.0 452.2,510.9 442.6,510.7 433.0,510.6 423.4,510.5 408.3,508.1 405.7,493.3 405.7,484.6 405.7,475.9 405.7,467.1 405.7,458.4 405.7,449.7 405.7,441.0 405.7,432.3 405.7,423.6 405.7,414.9 405.7,406.1 405.7,397.4 405.7,388.7 420.7,385.0 423.1,386.7 430.7,385.3 438.3,383.9 445.8,382.5 453.4,381.0 461.0,379.6 468.5,378.2 476.1,376.7 483.7,375.3 491.3,373.9 498.8,372.5 506.4,371.0 514.0,369.6 511.7,360.0 512.4,368.3 504.9,368.3 497.3,368.3 489.7,368.3 482.1,368.3 474.6,368.3 467.0,368.3 459.4,368.3 451.9,368.3 444.3,368.3 436.7,368.3 429.1,368.3 421.6,368.3 408.9,366.6 405.7,354.1 405.7,348.3 405.7,342.4 405.7,336.6 405.7,330.7 405.7,324.9 405.7,319.0 405.7,313.1 405.7,307.3 405.7,301.4 405.7,295.6 405.7,289.7 405.7,283.9 419.1,284.6 424.6,284.8 434.0,283.4 443.3,281.9 452.7,280.5 462.0,279.1 471.4,277.7 480.8,276.2 490.1,274.8 499.5,273.4 508.8,271.9 518.2,270.5 527.5,269.1 536.9,267.7 536.7,258.9 535.6,266.5 526.1,266.6 516.6,266.7 507.1,266.9 497.6,267.0 488.1,267.2 478.6,267.3 469.1,267.5 459.6,267.6 450.1,267.7 440.6,267.9 431.1,268.0 421.6,268.2 419.3,264.0 420.3,277.1 420.3,294.3 420.3,311.4 420.3,328.6 420.3,345.7 420.3,362.9 420.3,380.0 420.3,397.1 420.3,414.3 420.3,431.4 420.3,448.6 420.3,465.7 420.3,482.9 420.3,501.0 416.6,509.0 413.6,514.3 410.5,519.7 407.3,525.2 403.9,530.8 400.4,536.4 396.7,542.1 392.9,547.9 389.0,553.6 385.0,559.3 380.9,564.9 376.6,570.5 372.3,576.0 367.8,581.4 363.3,586.6 358.6,591.7 353.9,596.6 349.1,601.3 344.2,605.8 339.3,610.0 334.2,614.0 329.1,617.7 323.9,621.0 318.6,624.0 313.2,626.6 307.8,628.9 302.2,630.6 296.6,631.9 290.9,632.7 285.2,632.9 279.4,632.5 273.7,631.5 268.0,629.8 262.7,627.7 259.8,626.4 257.3,625.4 254.7,624.6 252.2,623.9 249.8,623.4 247.4,623.0 245.1,622.8 242.8,622.7 240.6,622.7 238.5,622.9 236.5,623.2 234.6,623.6 232.8,624.0 231.1,624.6 229.5,625.3 228.0,626.1 226.6,626.9 225.4,627.8 224.2,628.8 223.2,629.8 222.3,630.9 221.5,632.1 220.8,633.3 220.2,634.6 219.7,636.0 219.3,637.4 219.1,638.9 219.0,640.6 202.4,643.2 202.6,646.3 203.2,649.5 204.0,652.8 205.1,656.0 206.4,659.5 208.9,664.4 211.6,668.9 214.5,673.1 217.6,676.9 220.9,680.4 224.3,683.5 228.0,686.1 231.8,688.4 235.8,690.3 239.9,691.7 244.1,692.6 248.3,693.1 252.6,693.1 256.8,692.7 261.0,691.8 265.2,690.5 269.2,688.7 273.1,686.5 276.9,683.9 280.6,680.9 284.0,677.5 287.3,673.7 290.5,669.6 293.4,665.1 296.1,660.2 298.7,655.0 301.0,649.4 303.1,643.5 304.9,637.2 306.5,630.5 307.9,623.5 309.0,616.2 309.8,608.4 310.3,600.3 310.3,592.8 310.3,585.5 310.3,577.9 310.3,570.1 310.3,562.1 310.3,554.0 310.3,545.6 310.4,537.0 310.4,528.3 310.4,519.3 310.4,510.2 310.5,500.8 310.5,491.3 310.5,481.6 310.6,471.7 310.6,461.6 310.7,451.3 310.8,440.9 310.8,430.2 310.9,419.4 311.0,408.4 311.1,397.3 311.2,385.9 311.4,374.4 311.5,362.7 311.7,350.9 311.8,338.9 312.0,326.7 312.2,314.3 312.4,301.8 312.6,289.1 312.8,276.3 313.1,263.3 313.3,250.2 Z" fill="#061544" opacity="0.5" filter="url(#soft)"/>
  <path d="M279.8,249.5 279.5,262.7 279.3,275.7 279.1,288.6 278.8,301.3 278.6,313.8 278.5,326.2 278.3,338.4 278.1,350.4 278.0,362.3 277.8,374.0 277.7,385.6 277.6,396.9 277.5,408.1 277.4,419.1 277.3,430.0 277.2,440.6 277.2,451.1 277.1,461.4 277.0,471.5 277.0,481.4 276.9,491.1 276.9,500.7 276.9,510.1 276.9,519.2 276.8,528.2 276.8,537.0 276.8,545.6 276.8,553.9 276.8,562.1 276.8,570.1 276.8,577.9 276.8,585.5 276.8,592.8 276.8,599.2 276.4,605.6 275.7,612.0 274.8,617.9 273.8,623.4 272.5,628.5 271.2,633.2 269.7,637.4 268.1,641.3 266.4,644.7 264.7,647.7 263.0,650.3 261.3,652.6 259.7,654.4 258.1,655.9 256.7,657.1 255.4,658.0 254.2,658.7 253.2,659.1 252.3,659.4 251.6,659.6 251.0,659.6 250.4,659.6 249.8,659.6 249.1,659.4 248.4,659.2 247.5,658.8 246.5,658.2 245.4,657.3 244.1,656.2 242.8,654.8 241.3,653.0 239.9,650.9 238.4,648.4 236.9,645.4 236.6,644.6 236.2,643.5 236.0,642.6 235.9,641.9 235.9,641.4 185.4,639.5 185.8,635.0 186.5,630.6 187.6,626.2 189.1,622.0 190.9,618.0 193.1,614.2 195.6,610.6 198.4,607.3 201.4,604.2 204.6,601.5 208.0,599.0 211.6,596.8 215.2,594.9 219.0,593.3 222.9,592.0 226.9,590.9 230.9,590.1 235.0,589.5 239.1,589.2 243.2,589.2 247.4,589.3 251.6,589.7 255.8,590.4 260.0,591.3 264.2,592.4 268.4,593.8 272.6,595.4 275.9,596.8 279.2,598.2 281.4,598.9 283.5,599.2 285.7,599.4 288.0,599.3 290.6,598.9 293.3,598.3 296.3,597.3 299.5,596.0 302.9,594.4 306.5,592.3 310.2,589.9 314.1,587.2 318.0,584.1 322.0,580.7 326.0,577.0 330.1,573.0 334.1,568.8 338.2,564.3 342.2,559.7 346.2,554.9 350.1,549.9 354.0,544.9 357.8,539.7 361.5,534.4 365.1,529.1 368.6,523.8 372.0,518.5 375.3,513.2 378.5,508.0 381.5,502.8 384.4,497.8 387.2,492.9 387.0,496.9 386.8,482.9 386.8,465.7 386.8,448.6 386.8,431.4 386.8,414.3 386.8,397.1 386.8,380.0 386.8,362.9 386.8,345.7 386.8,328.6 386.8,311.4 386.8,294.3 386.8,277.1 389.9,247.9 421.1,234.6 430.6,234.5 440.1,234.4 449.6,234.2 459.1,234.1 468.6,233.9 478.1,233.8 487.6,233.6 497.1,233.5 506.6,233.4 516.1,233.2 525.6,233.1 535.1,232.9 570.1,255.2 531.8,234.5 522.5,235.9 513.1,237.4 503.8,238.8 494.4,240.2 485.1,241.6 475.7,243.1 466.3,244.5 457.0,245.9 447.6,247.4 438.3,248.8 428.9,250.2 419.6,251.6 398.5,258.1 439.2,283.9 439.2,289.7 439.2,295.6 439.2,301.4 439.2,307.3 439.2,313.1 439.2,319.0 439.2,324.9 439.2,330.7 439.2,336.6 439.2,342.4 439.2,348.3 439.2,354.1 429.4,340.1 421.6,334.8 429.1,334.8 436.7,334.8 444.3,334.8 451.9,334.8 459.4,334.8 467.0,334.8 474.6,334.8 482.1,334.8 489.7,334.8 497.3,334.8 504.9,334.8 512.4,334.8 545.2,360.0 507.8,336.6 500.2,338.1 492.6,339.5 485.0,340.9 477.5,342.4 469.9,343.8 462.3,345.2 454.8,346.6 447.2,348.1 439.6,349.5 432.0,350.9 424.5,352.4 416.9,353.8 393.8,364.9 439.2,388.7 439.2,397.4 439.2,406.1 439.2,414.9 439.2,423.6 439.2,432.3 439.2,441.0 439.2,449.7 439.2,458.4 439.2,467.1 439.2,475.9 439.2,484.6 439.2,493.3 431.1,483.5 423.9,476.9 433.5,477.1 443.1,477.2 452.7,477.4 462.2,477.5 471.8,477.6 481.4,477.8 490.9,477.9 500.5,478.1 510.1,478.2 519.7,478.4 529.2,478.5 538.8,478.6 557.9,480.8 573.0,496.9 576.1,502.7 579.1,508.5 582.0,514.3 584.7,520.2 587.3,526.1 589.9,532.0 592.3,537.8 594.7,543.7 597.0,549.5 599.2,555.2 601.3,560.9 603.4,566.5 605.4,572.0 607.3,577.4 609.2,582.7 611.0,587.8 612.8,592.7 614.5,597.5 616.2,602.1 617.8,606.5 619.4,610.7 621.0,614.6 622.5,618.2 623.9,621.5 625.3,624.5 626.6,627.2 627.8,629.4 628.9,631.2 629.7,632.5 630.3,633.3 630.5,633.5 630.1,633.1 590.8,652.5 640.9,628.4 640.6,603.1 640.4,577.9 640.1,552.6 639.8,527.3 639.5,502.0 639.2,476.7 638.9,451.4 638.6,426.1 638.4,400.9 638.1,375.6 637.8,350.3 637.5,325.0 612.0,274.8 643.8,317.9 651.6,343.2 659.3,368.5 667.0,393.8 674.7,419.1 682.4,444.4 690.1,469.6 697.8,494.9 705.6,520.2 713.3,545.5 721.0,570.8 728.7,596.1 736.4,621.4 720.0,628.8 694.9,628.6 695.1,603.3 695.2,578.0 695.4,552.7 695.5,527.4 695.6,502.1 695.8,476.9 695.9,451.6 696.1,426.3 696.2,401.0 696.4,375.7 696.5,350.4 696.6,325.1 696.8,299.9 L713.7,300.0 713.5,325.2 713.4,350.5 713.3,375.8 713.1,401.1 713.0,426.4 712.8,451.7 712.7,477.0 712.5,502.2 712.4,527.5 712.3,552.8 712.1,578.1 712.0,603.4 711.8,628.7 720.0,645.7 720.2,626.3 712.5,601.0 704.8,575.7 697.1,550.4 689.4,525.1 681.7,499.9 674.0,474.6 666.2,449.3 658.5,424.0 650.8,398.7 643.1,373.4 635.4,348.1 627.7,322.9 612.0,291.7 620.6,325.2 620.9,350.5 621.2,375.8 621.5,401.0 621.7,426.3 622.0,451.6 622.3,476.9 622.6,502.2 622.9,527.5 623.2,552.8 623.5,578.0 623.7,603.3 624.0,628.6 607.7,653.5 619.5,646.3 618.5,645.4 617.3,644.0 615.9,642.3 614.5,640.2 613.1,637.7 611.6,634.9 610.0,631.8 608.5,628.4 606.9,624.8 605.3,620.9 603.7,616.8 602.0,612.5 600.3,608.0 598.6,603.3 596.9,598.5 595.1,593.5 593.3,588.3 591.4,583.1 589.5,577.7 587.5,572.3 585.5,566.8 583.4,561.2 581.2,555.6 579.0,549.9 576.7,544.3 574.3,538.6 571.9,532.9 569.3,527.3 566.7,521.6 564.0,516.1 561.2,510.6 558.2,505.1 551.3,496.3 538.6,495.5 529.0,495.4 519.4,495.3 509.8,495.1 500.3,495.0 490.7,494.8 481.1,494.7 471.6,494.5 462.0,494.4 452.4,494.3 442.8,494.1 433.3,494.0 423.7,493.8 419.7,495.9 422.3,493.3 422.3,484.6 422.3,475.9 422.3,467.1 422.3,458.4 422.3,449.7 422.3,441.0 422.3,432.3 422.3,423.6 422.3,414.9 422.3,406.1 422.3,397.4 422.3,388.7 407.3,375.0 420.0,370.4 427.6,369.0 435.2,367.5 442.7,366.1 450.3,364.7 457.9,363.3 465.5,361.8 473.0,360.4 480.6,359.0 488.2,357.5 495.7,356.1 503.3,354.7 510.9,353.3 528.3,360.0 512.4,351.7 504.9,351.7 497.3,351.7 489.7,351.7 482.1,351.7 474.6,351.7 467.0,351.7 459.4,351.7 451.9,351.7 444.3,351.7 436.7,351.7 429.1,351.7 421.6,351.7 419.1,353.4 422.3,354.1 422.3,348.3 422.3,342.4 422.3,336.6 422.3,330.7 422.3,324.9 422.3,319.0 422.3,313.1 422.3,307.3 422.3,301.4 422.3,295.6 422.3,289.7 422.3,283.9 408.9,271.4 422.1,268.3 431.5,266.9 440.8,265.5 450.2,264.1 459.5,262.6 468.9,261.2 478.2,259.8 487.6,258.3 497.0,256.9 506.3,255.5 515.7,254.1 525.0,252.6 534.4,251.2 553.3,257.1 535.4,249.8 525.9,250.0 516.4,250.1 506.9,250.3 497.4,250.4 487.9,250.5 478.4,250.7 468.9,250.8 459.4,251.0 449.9,251.1 440.4,251.3 430.9,251.4 421.4,251.5 404.7,256.0 403.7,277.1 403.7,294.3 403.7,311.4 403.7,328.6 403.7,345.7 403.7,362.9 403.7,380.0 403.7,397.1 403.7,414.3 403.7,431.4 403.7,448.6 403.7,465.7 403.7,482.9 403.7,499.0 402.0,501.0 399.1,506.1 396.1,511.3 393.0,516.7 389.7,522.1 386.3,527.6 382.8,533.1 379.1,538.6 375.4,544.1 371.5,549.6 367.5,555.0 363.5,560.3 359.3,565.5 355.1,570.6 350.8,575.6 346.5,580.3 342.1,584.9 337.7,589.2 333.2,593.3 328.7,597.1 324.2,600.7 319.7,603.9 315.3,606.8 310.8,609.3 306.4,611.5 302.1,613.2 297.8,614.6 293.6,615.6 289.5,616.1 285.4,616.3 281.5,616.0 277.5,615.3 273.6,614.2 269.3,612.3 266.2,611.0 262.8,609.7 259.4,608.6 256.1,607.7 252.8,607.0 249.5,606.5 246.2,606.2 243.0,606.1 239.9,606.1 236.8,606.3 233.7,606.8 230.8,607.4 227.9,608.1 225.1,609.1 222.4,610.2 219.8,611.6 217.4,613.1 215.1,614.8 212.9,616.6 210.9,618.7 209.0,620.9 207.4,623.2 206.0,625.7 204.8,628.4 203.8,631.1 203.0,634.0 202.6,637.0 202.3,640.0 219.0,642.3 219.1,644.2 219.5,646.1 220.0,648.2 220.7,650.4 221.6,652.5 223.5,656.4 225.6,660.0 227.8,663.1 230.1,666.0 232.4,668.4 234.8,670.5 237.2,672.3 239.6,673.7 242.0,674.8 244.5,675.7 246.9,676.2 249.3,676.5 251.8,676.5 254.2,676.3 256.7,675.7 259.2,674.9 261.8,673.8 264.3,672.4 266.9,670.6 269.4,668.5 272.0,666.1 274.4,663.2 276.8,660.0 279.2,656.5 281.4,652.5 283.5,648.2 285.4,643.5 287.2,638.4 288.9,632.9 290.3,627.0 291.5,620.7 292.5,614.1 293.2,607.1 293.7,599.7 293.7,592.8 293.7,585.5 293.7,577.9 293.7,570.1 293.7,562.1 293.7,554.0 293.7,545.6 293.7,537.0 293.7,528.2 293.8,519.3 293.8,510.1 293.8,500.8 293.8,491.2 293.9,481.5 293.9,471.6 294.0,461.5 294.1,451.2 294.1,440.7 294.2,430.1 294.3,419.3 294.4,408.3 294.5,397.1 294.6,385.7 294.7,374.2 294.9,362.5 295.0,350.7 295.2,338.6 295.4,326.4 295.5,314.1 295.7,301.5 296.0,288.9 296.2,276.0 296.4,263.0 296.7,249.8 Z" fill="#cfeeff" opacity="0.62" filter="url(#soft)"/>
 </g>
</svg>