<svg xmlns="http://www.w3.org/2000/svg" viewBox="0 0 600 600" width="600" height="600">
  <defs>
    <clipPath id="circ"><circle cx="300" cy="300" r="280"/></clipPath>
    <path id="topArc" d="M 90,300 A 210,210 0 0,1 510,300"/>
    <path id="botArc" d="M 90,300 A 210,210 0 0,0 510,300"/>
    <filter id="ts" x="-10%" y="-10%" width="120%" height="120%">
      <feDropShadow dx="0" dy="2" stdDeviation="3" flood-color="#00000055"/>
    </filter>
  </defs>

  <rect width="600" height="600" fill="#ffffff"/>
  <g clip-path="url(#circ)"><circle cx="300" cy="300" r="280" fill="#c94030"/>
<circle cx="300" cy="300" r="240" fill="#e8702a"/>
<circle cx="300" cy="300" r="200" fill="#f0b820"/>
<circle cx="300" cy="300" r="160" fill="#7aaa30"/>
<circle cx="300" cy="300" r="120" fill="#28a898"/>
<circle cx="300" cy="300" r="80" fill="#7848b8"/>
<circle cx="300" cy="300" r="40" fill="#f8ead8"/>
<circle cx="300" cy="300" r="240" fill="none" stroke="rgba(255,255,255,0.35)" stroke-width="2"/>
<circle cx="300" cy="300" r="200" fill="none" stroke="rgba(255,255,255,0.35)" stroke-width="2"/>
<circle cx="300" cy="300" r="160" fill="none" stroke="rgba(255,255,255,0.35)" stroke-width="2"/>
<circle cx="300" cy="300" r="120" fill="none" stroke="rgba(255,255,255,0.35)" stroke-width="2"/>
<circle cx="300" cy="300" r="80" fill="none" stroke="rgba(255,255,255,0.35)" stroke-width="2"/>
<circle cx="300" cy="300" r="40" fill="none" stroke="rgba(255,255,255,0.35)" stroke-width="2"/>
</g>
  <g clip-path="url(#circ)"><g transform="translate(300,300)" opacity="1.0"><ellipse cx="0" cy="-16.9" rx="11.4" ry="18.7" fill="#ffffff" transform="rotate(0.0)"/><ellipse cx="0" cy="-16.9" rx="11.4" ry="18.7" fill="#ffffff" transform="rotate(72.0)"/><ellipse cx="0" cy="-16.9" rx="11.4" ry="18.7" fill="#ffffff" transform="rotate(144.0)"/><ellipse cx="0" cy="-16.9" rx="11.4" ry="18.7" fill="#ffffff" transform="rotate(216.0)"/><ellipse cx="0" cy="-16.9" rx="11.4" ry="18.7" fill="#ffffff" transform="rotate(288.0)"/><circle r="10.4" fill="#f0b820"/><circle r="4.4" fill="#ffffff"/></g><g transform="translate(307,279)" opacity="0.9"><ellipse cx="0" cy="-7.2" rx="4.8" ry="7.9" fill="#e8702a" transform="rotate(18.0)"/><ellipse cx="0" cy="-7.2" rx="4.8" ry="7.9" fill="#e8702a" transform="rotate(90.0)"/><ellipse cx="0" cy="-7.2" rx="4.8" ry="7.9" fill="#e8702a" transform="rotate(162.0)"/><ellipse cx="0" cy="-7.2" rx="4.8" ry="7.9" fill="#e8702a" transform="rotate(234.0)"/><ellipse cx="0" cy="-7.2" rx="4.8" ry="7.9" fill="#e8702a" transform="rotate(306.0)"/><circle r="4.4" fill="#f0b820"/><circle r="1.9" fill="#e8702a"/></g><g transform="translate(322,300)" opacity="0.9"><ellipse cx="0" cy="-7.2" rx="4.8" ry="7.9" fill="#e8702a" transform="rotate(55.0)"/><ellipse cx="0" cy="-7.2" rx="4.8" ry="7.9" fill="#e8702a" transform="rotate(127.0)"/><ellipse cx="0" cy="-7.2" rx="4.8" ry="7.9" fill="#e8702a" transform="rotate(199.0)"/><ellipse cx="0" cy="-7.2" rx="4.8" ry="7.9" fill="#e8702a" transform="rotate(271.0)"/><ellipse cx="0" cy="-7.2" rx="4.8" ry="7.9" fill="#e8702a" transform="rotate(343.0)"/><circle r="4.4" fill="#f0b820"/><circle r="1.9" fill="#e8702a"/></g><g transform="translate(307,321)" opacity="0.9"><ellipse cx="0" cy="-7.2" rx="4.8" ry="7.9" fill="#e8702a" transform="rotate(92.0)"/><ellipse cx="0" cy="-7.2" rx="4.8" ry="7.9" fill="#e8702a" transform="rotate(164.0)"/><ellipse cx="0" cy="-7.2" rx="4.8" ry="7.9" fill="#e8702a" transform="rotate(236.0)"/><ellipse cx="0" cy="-7.2" rx="4.8" ry="7.9" fill="#e8702a" transform="rotate(308.0)"/><ellipse cx="0" cy="-7.2" rx="4.8" ry="7.9" fill="#e8702a" transform="rotate(380.0)"/><circle r="4.4" fill="#f0b820"/><circle r="1.9" fill="#e8702a"/></g><g transform="translate(282,313)" opacity="0.9"><ellipse cx="0" cy="-7.2" rx="4.8" ry="7.9" fill="#e8702a" transform="rotate(129.0)"/><ellipse cx="0" cy="-7.2" rx="4.8" ry="7.9" fill="#e8702a" transform="rotate(201.0)"/><ellipse cx="0" cy="-7.2" rx="4.8" ry="7.9" fill="#e8702a" transform="rotate(273.0)"/><ellipse cx="0" cy="-7.2" rx="4.8" ry="7.9" fill="#e8702a" transform="rotate(345.0)"/><ellipse cx="0" cy="-7.2" rx="4.8" ry="7.9" fill="#e8702a" transform="rotate(417.0)"/><circle r="4.4" fill="#f0b820"/><circle r="1.9" fill="#e8702a"/></g><g transform="translate(282,287)" opacity="0.9"><ellipse cx="0" cy="-7.2" rx="4.8" ry="7.9" fill="#e8702a" transform="rotate(166.0)"/><ellipse cx="0" cy="-7.2" rx="4.8" ry="7.9" fill="#e8702a" transform="rotate(238.0)"/><ellipse cx="0" cy="-7.2" rx="4.8" ry="7.9" fill="#e8702a" transform="rotate(310.0)"/><ellipse cx="0" cy="-7.2" rx="4.8" ry="7.9" fill="#e8702a" transform="rotate(382.0)"/><ellipse cx="0" cy="-7.2" rx="4.8" ry="7.9" fill="#e8702a" transform="rotate(454.0)"/><circle r="4.4" fill="#f0b820"/><circle r="1.9" fill="#e8702a"/></g><g transform="translate(300,242)" opacity="1.0"><ellipse cx="0" cy="-9.8" rx="6.6" ry="10.8" fill="#ffffff" transform="rotate(0.0)"/><ellipse cx="0" cy="-9.8" rx="6.6" ry="10.8" fill="#ffffff" transform="rotate(72.0)"/><ellipse cx="0" cy="-9.8" rx="6.6" ry="10.8" fill="#ffffff" transform="rotate(144.0)"/><ellipse cx="0" cy="-9.8" rx="6.6" ry="10.8" fill="#ffffff" transform="rotate(216.0)"/><ellipse cx="0" cy="-9.8" rx="6.6" ry="10.8" fill="#ffffff" transform="rotate(288.0)"/><circle r="6.0" fill="#f0b820"/><circle r="2.6" fill="#ffffff"/></g><g transform="translate(350,271)" opacity="1.0"><ellipse cx="0" cy="-9.8" rx="6.6" ry="10.8" fill="#ffffff" transform="rotate(37.0)"/><ellipse cx="0" cy="-9.8" rx="6.6" ry="10.8" fill="#ffffff" transform="rotate(109.0)"/><ellipse cx="0" cy="-9.8" rx="6.6" ry="10.8" fill="#ffffff" transform="rotate(181.0)"/><ellipse cx="0" cy="-9.8" rx="6.6" ry="10.8" fill="#ffffff" transform="rotate(253.0)"/><ellipse cx="0" cy="-9.8" rx="6.6" ry="10.8" fill="#ffffff" transform="rotate(325.0)"/><circle r="6.0" fill="#f0b820"/><circle r="2.6" fill="#ffffff"/></g><g transform="translate(350,329)" opacity="1.0"><ellipse cx="0" cy="-9.8" rx="6.6" ry="10.8" fill="#ffffff" transform="rotate(74.0)"/><ellipse cx="0" cy="-9.8" rx="6.6" ry="10.8" fill="#ffffff" transform="rotate(146.0)"/><ellipse cx="0" cy="-9.8" rx="6.6" ry="10.8" fill="#ffffff" transform="rotate(218.0)"/><ellipse cx="0" cy="-9.8" rx="6.6" ry="10.8" fill="#ffffff" transform="rotate(290.0)"/><ellipse cx="0" cy="-9.8" rx="6.6" ry="10.8" fill="#ffffff" transform="rotate(362.0)"/><circle r="6.0" fill="#f0b820"/><circle r="2.6" fill="#ffffff"/></g><g transform="translate(300,358)" opacity="1.0"><ellipse cx="0" cy="-9.8" rx="6.6" ry="10.8" fill="#ffffff" transform="rotate(111.0)"/><ellipse cx="0" cy="-9.8" rx="6.6" ry="10.8" fill="#ffffff" transform="rotate(183.0)"/><ellipse cx="0" cy="-9.8" rx="6.6" ry="10.8" fill="#ffffff" transform="rotate(255.0)"/><ellipse cx="0" cy="-9.8" rx="6.6" ry="10.8" fill="#ffffff" transform="rotate(327.0)"/><ellipse cx="0" cy="-9.8" rx="6.6" ry="10.8" fill="#ffffff" transform="rotate(399.0)"/><circle r="6.0" fill="#f0b820"/><circle r="2.6" fill="#ffffff"/></g><g transform="translate(250,329)" opacity="1.0"><ellipse cx="0" cy="-9.8" rx="6.6" ry="10.8" fill="#ffffff" transform="rotate(148.0)"/><ellipse cx="0" cy="-9.8" rx="6.6" ry="10.8" fill="#ffffff" transform="rotate(220.0)"/><ellipse cx="0" cy="-9.8" rx="6.6" ry="10.8" fill="#ffffff" transform="rotate(292.0)"/><ellipse cx="0" cy="-9.8" rx="6.6" ry="10.8" fill="#ffffff" transform="rotate(364.0)"/><ellipse cx="0" cy="-9.8" rx="6.6" ry="10.8" fill="#ffffff" transform="rotate(436.0)"/><circle r="6.0" fill="#f0b820"/><circle r="2.6" fill="#ffffff"/></g><g transform="translate(250,271)" opacity="1.0"><ellipse cx="0" cy="-9.8" rx="6.6" ry="10.8" fill="#ffffff" transform="rotate(185.0)"/><ellipse cx="0" cy="-9.8" rx="6.6" ry="10.8" fill="#ffffff" transform="rotate(257.0)"/><ellipse cx="0" cy="-9.8" rx="6.6" ry="10.8" fill="#ffffff" transform="rotate(329.0)"/><ellipse cx="0" cy="-9.8" rx="6.6" ry="10.8" fill="#ffffff" transform="rotate(401.0)"/><ellipse cx="0" cy="-9.8" rx="6.6" ry="10.8" fill="#ffffff" transform="rotate(473.0)"/><circle r="6.0" fill="#f0b820"/><circle r="2.6" fill="#ffffff"/></g><ellipse cx="329" cy="250" rx="5" ry="12" fill="#5a9828" transform="rotate(30,329,250)" opacity="0.9"/><ellipse cx="358" cy="300" rx="5" ry="12" fill="#5a9828" transform="rotate(90,358,300)" opacity="0.9"/><ellipse cx="329" cy="350" rx="5" ry="12" fill="#5a9828" transform="rotate(150,329,350)" opacity="0.9"/><ellipse cx="271" cy="350" rx="5" ry="12" fill="#5a9828" transform="rotate(210,271,350)" opacity="0.9"/><ellipse cx="242" cy="300" rx="5" ry="12" fill="#5a9828" transform="rotate(270,242,300)" opacity="0.9"/><ellipse cx="271" cy="250" rx="5" ry="12" fill="#5a9828" transform="rotate(330,271,250)" opacity="0.9"/><g transform="translate(321,202)" opacity="1.0"><ellipse cx="0" cy="-9.1" rx="6.2" ry="10.1" fill="#ffffff" transform="rotate(12.0)"/><ellipse cx="0" cy="-9.1" rx="6.2" ry="10.1" fill="#ffffff" transform="rotate(84.0)"/><ellipse cx="0" cy="-9.1" rx="6.2" ry="10.1" fill="#ffffff" transform="rotate(156.0)"/><ellipse cx="0" cy="-9.1" rx="6.2" ry="10.1" fill="#ffffff" transform="rotate(228.0)"/><ellipse cx="0" cy="-9.1" rx="6.2" ry="10.1" fill="#ffffff" transform="rotate(300.0)"/><circle r="5.6" fill="#e8702a"/><circle r="2.4" fill="#ffffff"/></g><g transform="translate(384,246)" opacity="1.0"><ellipse cx="0" cy="-9.1" rx="6.2" ry="10.1" fill="#ffffff" transform="rotate(49.0)"/><ellipse cx="0" cy="-9.1" rx="6.2" ry="10.1" fill="#ffffff" transform="rotate(121.0)"/><ellipse cx="0" cy="-9.1" rx="6.2" ry="10.1" fill="#ffffff" transform="rotate(193.0)"/><ellipse cx="0" cy="-9.1" rx="6.2" ry="10.1" fill="#ffffff" transform="rotate(265.0)"/><ellipse cx="0" cy="-9.1" rx="6.2" ry="10.1" fill="#ffffff" transform="rotate(337.0)"/><circle r="5.6" fill="#e8702a"/><circle r="2.4" fill="#ffffff"/></g><g transform="translate(398,321)" opacity="1.0"><ellipse cx="0" cy="-9.1" rx="6.2" ry="10.1" fill="#ffffff" transform="rotate(86.0)"/><ellipse cx="0" cy="-9.1" rx="6.2" ry="10.1" fill="#ffffff" transform="rotate(158.0)"/><ellipse cx="0" cy="-9.1" rx="6.2" ry="10.1" fill="#ffffff" transform="rotate(230.0)"/><ellipse cx="0" cy="-9.1" rx="6.2" ry="10.1" fill="#ffffff" transform="rotate(302.0)"/><ellipse cx="0" cy="-9.1" rx="6.2" ry="10.1" fill="#ffffff" transform="rotate(374.0)"/><circle r="5.6" fill="#e8702a"/><circle r="2.4" fill="#ffffff"/></g><g transform="translate(354,384)" opacity="1.0"><ellipse cx="0" cy="-9.1" rx="6.2" ry="10.1" fill="#ffffff" transform="rotate(123.0)"/><ellipse cx="0" cy="-9.1" rx="6.2" ry="10.1" fill="#ffffff" transform="rotate(195.0)"/><ellipse cx="0" cy="-9.1" rx="6.2" ry="10.1" fill="#ffffff" transform="rotate(267.0)"/><ellipse cx="0" cy="-9.1" rx="6.2" ry="10.1" fill="#ffffff" transform="rotate(339.0)"/><ellipse cx="0" cy="-9.1" rx="6.2" ry="10.1" fill="#ffffff" transform="rotate(411.0)"/><circle r="5.6" fill="#e8702a"/><circle r="2.4" fill="#ffffff"/></g><g transform="translate(279,398)" opacity="1.0"><ellipse cx="0" cy="-9.1" rx="6.2" ry="10.1" fill="#ffffff" transform="rotate(160.0)"/><ellipse cx="0" cy="-9.1" rx="6.2" ry="10.1" fill="#ffffff" transform="rotate(232.0)"/><ellipse cx="0" cy="-9.1" rx="6.2" ry="10.1" fill="#ffffff" transform="rotate(304.0)"/><ellipse cx="0" cy="-9.1" rx="6.2" ry="10.1" fill="#ffffff" transform="rotate(376.0)"/><ellipse cx="0" cy="-9.1" rx="6.2" ry="10.1" fill="#ffffff" transform="rotate(448.0)"/><circle r="5.6" fill="#e8702a"/><circle r="2.4" fill="#ffffff"/></g><g transform="translate(216,354)" opacity="1.0"><ellipse cx="0" cy="-9.1" rx="6.2" ry="10.1" fill="#ffffff" transform="rotate(197.0)"/><ellipse cx="0" cy="-9.1" rx="6.2" ry="10.1" fill="#ffffff" transform="rotate(269.0)"/><ellipse cx="0" cy="-9.1" rx="6.2" ry="10.1" fill="#ffffff" transform="rotate(341.0)"/><ellipse cx="0" cy="-9.1" rx="6.2" ry="10.1" fill="#ffffff" transform="rotate(413.0)"/><ellipse cx="0" cy="-9.1" rx="6.2" ry="10.1" fill="#ffffff" transform="rotate(485.0)"/><circle r="5.6" fill="#e8702a"/><circle r="2.4" fill="#ffffff"/></g><g transform="translate(202,279)" opacity="1.0"><ellipse cx="0" cy="-9.1" rx="6.2" ry="10.1" fill="#ffffff" transform="rotate(234.0)"/><ellipse cx="0" cy="-9.1" rx="6.2" ry="10.1" fill="#ffffff" transform="rotate(306.0)"/><ellipse cx="0" cy="-9.1" rx="6.2" ry="10.1" fill="#ffffff" transform="rotate(378.0)"/><ellipse cx="0" cy="-9.1" rx="6.2" ry="10.1" fill="#ffffff" transform="rotate(450.0)"/><ellipse cx="0" cy="-9.1" rx="6.2" ry="10.1" fill="#ffffff" transform="rotate(522.0)"/><circle r="5.6" fill="#e8702a"/><circle r="2.4" fill="#ffffff"/></g><g transform="translate(246,216)" opacity="1.0"><ellipse cx="0" cy="-9.1" rx="6.2" ry="10.1" fill="#ffffff" transform="rotate(271.0)"/><ellipse cx="0" cy="-9.1" rx="6.2" ry="10.1" fill="#ffffff" transform="rotate(343.0)"/><ellipse cx="0" cy="-9.1" rx="6.2" ry="10.1" fill="#ffffff" transform="rotate(415.0)"/><ellipse cx="0" cy="-9.1" rx="6.2" ry="10.1" fill="#ffffff" transform="rotate(487.0)"/><ellipse cx="0" cy="-9.1" rx="6.2" ry="10.1" fill="#ffffff" transform="rotate(559.0)"/><circle r="5.6" fill="#e8702a"/><circle r="2.4" fill="#ffffff"/></g><ellipse cx="334" cy="206" rx="5" ry="12" fill="#5a9828" transform="rotate(20,334,206)" opacity="0.9"/><ellipse cx="391" cy="258" rx="5" ry="12" fill="#5a9828" transform="rotate(65,391,258)" opacity="0.9"/><ellipse cx="394" cy="334" rx="5" ry="12" fill="#5a9828" transform="rotate(110,394,334)" opacity="0.9"/><ellipse cx="342" cy="391" rx="5" ry="12" fill="#5a9828" transform="rotate(155,342,391)" opacity="0.9"/><ellipse cx="266" cy="394" rx="5" ry="12" fill="#5a9828" transform="rotate(200,266,394)" opacity="0.9"/><ellipse cx="209" cy="342" rx="5" ry="12" fill="#5a9828" transform="rotate(245,209,342)" opacity="0.9"/><ellipse cx="206" cy="266" rx="5" ry="12" fill="#5a9828" transform="rotate(290,206,266)" opacity="0.9"/><ellipse cx="258" cy="209" rx="5" ry="12" fill="#5a9828" transform="rotate(335,258,209)" opacity="0.9"/><g transform="translate(312,163)" opacity="1.0"><ellipse cx="0" cy="-8.5" rx="5.7" ry="9.4" fill="#ffffff" transform="rotate(5.0)"/><ellipse cx="0" cy="-8.5" rx="5.7" ry="9.4" fill="#ffffff" transform="rotate(77.0)"/><ellipse cx="0" cy="-8.5" rx="5.7" ry="9.4" fill="#ffffff" transform="rotate(149.0)"/><ellipse cx="0" cy="-8.5" rx="5.7" ry="9.4" fill="#ffffff" transform="rotate(221.0)"/><ellipse cx="0" cy="-8.5" rx="5.7" ry="9.4" fill="#ffffff" transform="rotate(293.0)"/><circle r="5.2" fill="#f0b820"/><circle r="2.2" fill="#ffffff"/></g><g transform="translate(398,202)" opacity="1.0"><ellipse cx="0" cy="-8.5" rx="5.7" ry="9.4" fill="#ffffff" transform="rotate(42.0)"/><ellipse cx="0" cy="-8.5" rx="5.7" ry="9.4" fill="#ffffff" transform="rotate(114.0)"/><ellipse cx="0" cy="-8.5" rx="5.7" ry="9.4" fill="#ffffff" transform="rotate(186.0)"/><ellipse cx="0" cy="-8.5" rx="5.7" ry="9.4" fill="#ffffff" transform="rotate(258.0)"/><ellipse cx="0" cy="-8.5" rx="5.7" ry="9.4" fill="#ffffff" transform="rotate(330.0)"/><circle r="5.2" fill="#f0b820"/><circle r="2.2" fill="#ffffff"/></g><g transform="translate(437,288)" opacity="1.0"><ellipse cx="0" cy="-8.5" rx="5.7" ry="9.4" fill="#ffffff" transform="rotate(79.0)"/><ellipse cx="0" cy="-8.5" rx="5.7" ry="9.4" fill="#ffffff" transform="rotate(151.0)"/><ellipse cx="0" cy="-8.5" rx="5.7" ry="9.4" fill="#ffffff" transform="rotate(223.0)"/><ellipse cx="0" cy="-8.5" rx="5.7" ry="9.4" fill="#ffffff" transform="rotate(295.0)"/><ellipse cx="0" cy="-8.5" rx="5.7" ry="9.4" fill="#ffffff" transform="rotate(367.0)"/><circle r="5.2" fill="#f0b820"/><circle r="2.2" fill="#ffffff"/></g><g transform="translate(413,379)" opacity="1.0"><ellipse cx="0" cy="-8.5" rx="5.7" ry="9.4" fill="#ffffff" transform="rotate(116.0)"/><ellipse cx="0" cy="-8.5" rx="5.7" ry="9.4" fill="#ffffff" transform="rotate(188.0)"/><ellipse cx="0" cy="-8.5" rx="5.7" ry="9.4" fill="#ffffff" transform="rotate(260.0)"/><ellipse cx="0" cy="-8.5" rx="5.7" ry="9.4" fill="#ffffff" transform="rotate(332.0)"/><ellipse cx="0" cy="-8.5" rx="5.7" ry="9.4" fill="#ffffff" transform="rotate(404.0)"/><circle r="5.2" fill="#f0b820"/><circle r="2.2" fill="#ffffff"/></g><g transform="translate(336,433)" opacity="1.0"><ellipse cx="0" cy="-8.5" rx="5.7" ry="9.4" fill="#ffffff" transform="rotate(153.0)"/><ellipse cx="0" cy="-8.5" rx="5.7" ry="9.4" fill="#ffffff" transform="rotate(225.0)"/><ellipse cx="0" cy="-8.5" rx="5.7" ry="9.4" fill="#ffffff" transform="rotate(297.0)"/><ellipse cx="0" cy="-8.5" rx="5.7" ry="9.4" fill="#ffffff" transform="rotate(369.0)"/><ellipse cx="0" cy="-8.5" rx="5.7" ry="9.4" fill="#ffffff" transform="rotate(441.0)"/><circle r="5.2" fill="#f0b820"/><circle r="2.2" fill="#ffffff"/></g><g transform="translate(242,425)" opacity="1.0"><ellipse cx="0" cy="-8.5" rx="5.7" ry="9.4" fill="#ffffff" transform="rotate(190.0)"/><ellipse cx="0" cy="-8.5" rx="5.7" ry="9.4" fill="#ffffff" transform="rotate(262.0)"/><ellipse cx="0" cy="-8.5" rx="5.7" ry="9.4" fill="#ffffff" transform="rotate(334.0)"/><ellipse cx="0" cy="-8.5" rx="5.7" ry="9.4" fill="#ffffff" transform="rotate(406.0)"/><ellipse cx="0" cy="-8.5" rx="5.7" ry="9.4" fill="#ffffff" transform="rotate(478.0)"/><circle r="5.2" fill="#f0b820"/><circle r="2.2" fill="#ffffff"/></g><g transform="translate(175,358)" opacity="1.0"><ellipse cx="0" cy="-8.5" rx="5.7" ry="9.4" fill="#ffffff" transform="rotate(227.0)"/><ellipse cx="0" cy="-8.5" rx="5.7" ry="9.4" fill="#ffffff" transform="rotate(299.0)"/><ellipse cx="0" cy="-8.5" rx="5.7" ry="9.4" fill="#ffffff" transform="rotate(371.0)"/><ellipse cx="0" cy="-8.5" rx="5.7" ry="9.4" fill="#ffffff" transform="rotate(443.0)"/><ellipse cx="0" cy="-8.5" rx="5.7" ry="9.4" fill="#ffffff" transform="rotate(515.0)"/><circle r="5.2" fill="#f0b820"/><circle r="2.2" fill="#ffffff"/></g><g transform="translate(167,264)" opacity="1.0"><ellipse cx="0" cy="-8.5" rx="5.7" ry="9.4" fill="#ffffff" transform="rotate(264.0)"/><ellipse cx="0" cy="-8.5" rx="5.7" ry="9.4" fill="#ffffff" transform="rotate(336.0)"/><ellipse cx="0" cy="-8.5" rx="5.7" ry="9.4" fill="#ffffff" transform="rotate(408.0)"/><ellipse cx="0" cy="-8.5" rx="5.7" ry="9.4" fill="#ffffff" transform="rotate(480.0)"/><ellipse cx="0" cy="-8.5" rx="5.7" ry="9.4" fill="#ffffff" transform="rotate(552.0)"/><circle r="5.2" fill="#f0b820"/><circle r="2.2" fill="#ffffff"/></g><g transform="translate(221,187)" opacity="1.0"><ellipse cx="0" cy="-8.5" rx="5.7" ry="9.4" fill="#ffffff" transform="rotate(301.0)"/><ellipse cx="0" cy="-8.5" rx="5.7" ry="9.4" fill="#ffffff" transform="rotate(373.0)"/><ellipse cx="0" cy="-8.5" rx="5.7" ry="9.4" fill="#ffffff" transform="rotate(445.0)"/><ellipse cx="0" cy="-8.5" rx="5.7" ry="9.4" fill="#ffffff" transform="rotate(517.0)"/><ellipse cx="0" cy="-8.5" rx="5.7" ry="9.4" fill="#ffffff" transform="rotate(589.0)"/><circle r="5.2" fill="#f0b820"/><circle r="2.2" fill="#ffffff"/></g><circle cx="300" cy="162" r="3" fill="#e8702a" opacity="0.9"/><circle cx="389" cy="194" r="3" fill="#e8702a" opacity="0.9"/><circle cx="436" cy="276" r="3" fill="#e8702a" opacity="0.9"/><circle cx="420" cy="369" r="3" fill="#e8702a" opacity="0.9"/><circle cx="347" cy="430" r="3" fill="#e8702a" opacity="0.9"/><circle cx="253" cy="430" r="3" fill="#e8702a" opacity="0.9"/><circle cx="180" cy="369" r="3" fill="#e8702a" opacity="0.9"/><circle cx="164" cy="276" r="3" fill="#e8702a" opacity="0.9"/><circle cx="211" cy="194" r="3" fill="#e8702a" opacity="0.9"/><g transform="translate(325,124)" opacity="1.0"><ellipse cx="0" cy="-7.8" rx="5.3" ry="8.6" fill="#c94030" transform="rotate(8.0)"/><ellipse cx="0" cy="-7.8" rx="5.3" ry="8.6" fill="#c94030" transform="rotate(80.0)"/><ellipse cx="0" cy="-7.8" rx="5.3" ry="8.6" fill="#c94030" transform="rotate(152.0)"/><ellipse cx="0" cy="-7.8" rx="5.3" ry="8.6" fill="#c94030" transform="rotate(224.0)"/><ellipse cx="0" cy="-7.8" rx="5.3" ry="8.6" fill="#c94030" transform="rotate(296.0)"/><circle r="4.8" fill="#ffffff"/><circle r="2.0" fill="#c94030"/></g><g transform="translate(424,172)" opacity="1.0"><ellipse cx="0" cy="-7.8" rx="5.3" ry="8.6" fill="#c94030" transform="rotate(45.0)"/><ellipse cx="0" cy="-7.8" rx="5.3" ry="8.6" fill="#c94030" transform="rotate(117.0)"/><ellipse cx="0" cy="-7.8" rx="5.3" ry="8.6" fill="#c94030" transform="rotate(189.0)"/><ellipse cx="0" cy="-7.8" rx="5.3" ry="8.6" fill="#c94030" transform="rotate(261.0)"/><ellipse cx="0" cy="-7.8" rx="5.3" ry="8.6" fill="#c94030" transform="rotate(333.0)"/><circle r="4.8" fill="#ffffff"/><circle r="2.0" fill="#c94030"/></g><g transform="translate(475,269)" opacity="1.0"><ellipse cx="0" cy="-7.8" rx="5.3" ry="8.6" fill="#c94030" transform="rotate(82.0)"/><ellipse cx="0" cy="-7.8" rx="5.3" ry="8.6" fill="#c94030" transform="rotate(154.0)"/><ellipse cx="0" cy="-7.8" rx="5.3" ry="8.6" fill="#c94030" transform="rotate(226.0)"/><ellipse cx="0" cy="-7.8" rx="5.3" ry="8.6" fill="#c94030" transform="rotate(298.0)"/><ellipse cx="0" cy="-7.8" rx="5.3" ry="8.6" fill="#c94030" transform="rotate(370.0)"/><circle r="4.8" fill="#ffffff"/><circle r="2.0" fill="#c94030"/></g><g transform="translate(460,378)" opacity="1.0"><ellipse cx="0" cy="-7.8" rx="5.3" ry="8.6" fill="#c94030" transform="rotate(119.0)"/><ellipse cx="0" cy="-7.8" rx="5.3" ry="8.6" fill="#c94030" transform="rotate(191.0)"/><ellipse cx="0" cy="-7.8" rx="5.3" ry="8.6" fill="#c94030" transform="rotate(263.0)"/><ellipse cx="0" cy="-7.8" rx="5.3" ry="8.6" fill="#c94030" transform="rotate(335.0)"/><ellipse cx="0" cy="-7.8" rx="5.3" ry="8.6" fill="#c94030" transform="rotate(407.0)"/><circle r="4.8" fill="#ffffff"/><circle r="2.0" fill="#c94030"/></g><g transform="translate(384,457)" opacity="1.0"><ellipse cx="0" cy="-7.8" rx="5.3" ry="8.6" fill="#c94030" transform="rotate(156.0)"/><ellipse cx="0" cy="-7.8" rx="5.3" ry="8.6" fill="#c94030" transform="rotate(228.0)"/><ellipse cx="0" cy="-7.8" rx="5.3" ry="8.6" fill="#c94030" transform="rotate(300.0)"/><ellipse cx="0" cy="-7.8" rx="5.3" ry="8.6" fill="#c94030" transform="rotate(372.0)"/><ellipse cx="0" cy="-7.8" rx="5.3" ry="8.6" fill="#c94030" transform="rotate(444.0)"/><circle r="4.8" fill="#ffffff"/><circle r="2.0" fill="#c94030"/></g><g transform="translate(275,476)" opacity="1.0"><ellipse cx="0" cy="-7.8" rx="5.3" ry="8.6" fill="#c94030" transform="rotate(193.0)"/><ellipse cx="0" cy="-7.8" rx="5.3" ry="8.6" fill="#c94030" transform="rotate(265.0)"/><ellipse cx="0" cy="-7.8" rx="5.3" ry="8.6" fill="#c94030" transform="rotate(337.0)"/><ellipse cx="0" cy="-7.8" rx="5.3" ry="8.6" fill="#c94030" transform="rotate(409.0)"/><ellipse cx="0" cy="-7.8" rx="5.3" ry="8.6" fill="#c94030" transform="rotate(481.0)"/><circle r="4.8" fill="#ffffff"/><circle r="2.0" fill="#c94030"/></g><g transform="translate(176,428)" opacity="1.0"><ellipse cx="0" cy="-7.8" rx="5.3" ry="8.6" fill="#c94030" transform="rotate(230.0)"/><ellipse cx="0" cy="-7.8" rx="5.3" ry="8.6" fill="#c94030" transform="rotate(302.0)"/><ellipse cx="0" cy="-7.8" rx="5.3" ry="8.6" fill="#c94030" transform="rotate(374.0)"/><ellipse cx="0" cy="-7.8" rx="5.3" ry="8.6" fill="#c94030" transform="rotate(446.0)"/><ellipse cx="0" cy="-7.8" rx="5.3" ry="8.6" fill="#c94030" transform="rotate(518.0)"/><circle r="4.8" fill="#ffffff"/><circle r="2.0" fill="#c94030"/></g><g transform="translate(125,331)" opacity="1.0"><ellipse cx="0" cy="-7.8" rx="5.3" ry="8.6" fill="#c94030" transform="rotate(267.0)"/><ellipse cx="0" cy="-7.8" rx="5.3" ry="8.6" fill="#c94030" transform="rotate(339.0)"/><ellipse cx="0" cy="-7.8" rx="5.3" ry="8.6" fill="#c94030" transform="rotate(411.0)"/><ellipse cx="0" cy="-7.8" rx="5.3" ry="8.6" fill="#c94030" transform="rotate(483.0)"/><ellipse cx="0" cy="-7.8" rx="5.3" ry="8.6" fill="#c94030" transform="rotate(555.0)"/><circle r="4.8" fill="#ffffff"/><circle r="2.0" fill="#c94030"/></g><g transform="translate(140,222)" opacity="1.0"><ellipse cx="0" cy="-7.8" rx="5.3" ry="8.6" fill="#c94030" transform="rotate(304.0)"/><ellipse cx="0" cy="-7.8" rx="5.3" ry="8.6" fill="#c94030" transform="rotate(376.0)"/><ellipse cx="0" cy="-7.8" rx="5.3" ry="8.6" fill="#c94030" transform="rotate(448.0)"/><ellipse cx="0" cy="-7.8" rx="5.3" ry="8.6" fill="#c94030" transform="rotate(520.0)"/><ellipse cx="0" cy="-7.8" rx="5.3" ry="8.6" fill="#c94030" transform="rotate(592.0)"/><circle r="4.8" fill="#ffffff"/><circle r="2.0" fill="#c94030"/></g><g transform="translate(216,143)" opacity="1.0"><ellipse cx="0" cy="-7.8" rx="5.3" ry="8.6" fill="#c94030" transform="rotate(341.0)"/><ellipse cx="0" cy="-7.8" rx="5.3" ry="8.6" fill="#c94030" transform="rotate(413.0)"/><ellipse cx="0" cy="-7.8" rx="5.3" ry="8.6" fill="#c94030" transform="rotate(485.0)"/><ellipse cx="0" cy="-7.8" rx="5.3" ry="8.6" fill="#c94030" transform="rotate(557.0)"/><ellipse cx="0" cy="-7.8" rx="5.3" ry="8.6" fill="#c94030" transform="rotate(629.0)"/><circle r="4.8" fill="#ffffff"/><circle r="2.0" fill="#c94030"/></g><ellipse cx="346" cy="128" rx="4" ry="10" fill="#5a9828" transform="rotate(15,346,128)" opacity="0.8"/><ellipse cx="438" cy="188" rx="4" ry="10" fill="#5a9828" transform="rotate(51,438,188)" opacity="0.8"/><ellipse cx="478" cy="291" rx="4" ry="10" fill="#5a9828" transform="rotate(87,478,291)" opacity="0.8"/><ellipse cx="449" cy="397" rx="4" ry="10" fill="#5a9828" transform="rotate(123,449,397)" opacity="0.8"/><ellipse cx="364" cy="466" rx="4" ry="10" fill="#5a9828" transform="rotate(159,364,466)" opacity="0.8"/><ellipse cx="254" cy="472" rx="4" ry="10" fill="#5a9828" transform="rotate(195,254,472)" opacity="0.8"/><ellipse cx="162" cy="412" rx="4" ry="10" fill="#5a9828" transform="rotate(231,162,412)" opacity="0.8"/><ellipse cx="122" cy="309" rx="4" ry="10" fill="#5a9828" transform="rotate(267,122,309)" opacity="0.8"/><ellipse cx="151" cy="203" rx="4" ry="10" fill="#5a9828" transform="rotate(303,151,203)" opacity="0.8"/><ellipse cx="236" cy="134" rx="4" ry="10" fill="#5a9828" transform="rotate(339,236,134)" opacity="0.8"/><g transform="translate(311,82)" opacity="0.9"><ellipse cx="0" cy="-6.5" rx="4.4" ry="7.2" fill="#ffffff" transform="rotate(3.0)"/><ellipse cx="0" cy="-6.5" rx="4.4" ry="7.2" fill="#ffffff" transform="rotate(75.0)"/><ellipse cx="0" cy="-6.5" rx="4.4" ry="7.2" fill="#ffffff" transform="rotate(147.0)"/><ellipse cx="0" cy="-6.5" rx="4.4" ry="7.2" fill="#ffffff" transform="rotate(219.0)"/><ellipse cx="0" cy="-6.5" rx="4.4" ry="7.2" fill="#ffffff" transform="rotate(291.0)"/><circle r="4.0" fill="#f0b820"/><circle r="1.7" fill="#ffffff"/></g><g transform="translate(427,123)" opacity="0.9"><ellipse cx="0" cy="-6.5" rx="4.4" ry="7.2" fill="#ffffff" transform="rotate(40.0)"/><ellipse cx="0" cy="-6.5" rx="4.4" ry="7.2" fill="#ffffff" transform="rotate(112.0)"/><ellipse cx="0" cy="-6.5" rx="4.4" ry="7.2" fill="#ffffff" transform="rotate(184.0)"/><ellipse cx="0" cy="-6.5" rx="4.4" ry="7.2" fill="#ffffff" transform="rotate(256.0)"/><ellipse cx="0" cy="-6.5" rx="4.4" ry="7.2" fill="#ffffff" transform="rotate(328.0)"/><circle r="4.0" fill="#f0b820"/><circle r="1.7" fill="#ffffff"/></g><g transform="translate(503,220)" opacity="0.9"><ellipse cx="0" cy="-6.5" rx="4.4" ry="7.2" fill="#ffffff" transform="rotate(77.0)"/><ellipse cx="0" cy="-6.5" rx="4.4" ry="7.2" fill="#ffffff" transform="rotate(149.0)"/><ellipse cx="0" cy="-6.5" rx="4.4" ry="7.2" fill="#ffffff" transform="rotate(221.0)"/><ellipse cx="0" cy="-6.5" rx="4.4" ry="7.2" fill="#ffffff" transform="rotate(293.0)"/><ellipse cx="0" cy="-6.5" rx="4.4" ry="7.2" fill="#ffffff" transform="rotate(365.0)"/><circle r="4.0" fill="#f0b820"/><circle r="1.7" fill="#ffffff"/></g><g transform="translate(514,342)" opacity="0.9"><ellipse cx="0" cy="-6.5" rx="4.4" ry="7.2" fill="#ffffff" transform="rotate(114.0)"/><ellipse cx="0" cy="-6.5" rx="4.4" ry="7.2" fill="#ffffff" transform="rotate(186.0)"/><ellipse cx="0" cy="-6.5" rx="4.4" ry="7.2" fill="#ffffff" transform="rotate(258.0)"/><ellipse cx="0" cy="-6.5" rx="4.4" ry="7.2" fill="#ffffff" transform="rotate(330.0)"/><ellipse cx="0" cy="-6.5" rx="4.4" ry="7.2" fill="#ffffff" transform="rotate(402.0)"/><circle r="4.0" fill="#f0b820"/><circle r="1.7" fill="#ffffff"/></g><g transform="translate(457,451)" opacity="0.9"><ellipse cx="0" cy="-6.5" rx="4.4" ry="7.2" fill="#ffffff" transform="rotate(151.0)"/><ellipse cx="0" cy="-6.5" rx="4.4" ry="7.2" fill="#ffffff" transform="rotate(223.0)"/><ellipse cx="0" cy="-6.5" rx="4.4" ry="7.2" fill="#ffffff" transform="rotate(295.0)"/><ellipse cx="0" cy="-6.5" rx="4.4" ry="7.2" fill="#ffffff" transform="rotate(367.0)"/><ellipse cx="0" cy="-6.5" rx="4.4" ry="7.2" fill="#ffffff" transform="rotate(439.0)"/><circle r="4.0" fill="#f0b820"/><circle r="1.7" fill="#ffffff"/></g><g transform="translate(350,512)" opacity="0.9"><ellipse cx="0" cy="-6.5" rx="4.4" ry="7.2" fill="#ffffff" transform="rotate(188.0)"/><ellipse cx="0" cy="-6.5" rx="4.4" ry="7.2" fill="#ffffff" transform="rotate(260.0)"/><ellipse cx="0" cy="-6.5" rx="4.4" ry="7.2" fill="#ffffff" transform="rotate(332.0)"/><ellipse cx="0" cy="-6.5" rx="4.4" ry="7.2" fill="#ffffff" transform="rotate(404.0)"/><ellipse cx="0" cy="-6.5" rx="4.4" ry="7.2" fill="#ffffff" transform="rotate(476.0)"/><circle r="4.0" fill="#f0b820"/><circle r="1.7" fill="#ffffff"/></g><g transform="translate(228,506)" opacity="0.9"><ellipse cx="0" cy="-6.5" rx="4.4" ry="7.2" fill="#ffffff" transform="rotate(225.0)"/><ellipse cx="0" cy="-6.5" rx="4.4" ry="7.2" fill="#ffffff" transform="rotate(297.0)"/><ellipse cx="0" cy="-6.5" rx="4.4" ry="7.2" fill="#ffffff" transform="rotate(369.0)"/><ellipse cx="0" cy="-6.5" rx="4.4" ry="7.2" fill="#ffffff" transform="rotate(441.0)"/><ellipse cx="0" cy="-6.5" rx="4.4" ry="7.2" fill="#ffffff" transform="rotate(513.0)"/><circle r="4.0" fill="#f0b820"/><circle r="1.7" fill="#ffffff"/></g><g transform="translate(128,434)" opacity="0.9"><ellipse cx="0" cy="-6.5" rx="4.4" ry="7.2" fill="#ffffff" transform="rotate(262.0)"/><ellipse cx="0" cy="-6.5" rx="4.4" ry="7.2" fill="#ffffff" transform="rotate(334.0)"/><ellipse cx="0" cy="-6.5" rx="4.4" ry="7.2" fill="#ffffff" transform="rotate(406.0)"/><ellipse cx="0" cy="-6.5" rx="4.4" ry="7.2" fill="#ffffff" transform="rotate(478.0)"/><ellipse cx="0" cy="-6.5" rx="4.4" ry="7.2" fill="#ffffff" transform="rotate(550.0)"/><circle r="4.0" fill="#f0b820"/><circle r="1.7" fill="#ffffff"/></g><g transform="translate(83,320)" opacity="0.9"><ellipse cx="0" cy="-6.5" rx="4.4" ry="7.2" fill="#ffffff" transform="rotate(299.0)"/><ellipse cx="0" cy="-6.5" rx="4.4" ry="7.2" fill="#ffffff" transform="rotate(371.0)"/><ellipse cx="0" cy="-6.5" rx="4.4" ry="7.2" fill="#ffffff" transform="rotate(443.0)"/><ellipse cx="0" cy="-6.5" rx="4.4" ry="7.2" fill="#ffffff" transform="rotate(515.0)"/><ellipse cx="0" cy="-6.5" rx="4.4" ry="7.2" fill="#ffffff" transform="rotate(587.0)"/><circle r="4.0" fill="#f0b820"/><circle r="1.7" fill="#ffffff"/></g><g transform="translate(107,199)" opacity="0.9"><ellipse cx="0" cy="-6.5" rx="4.4" ry="7.2" fill="#ffffff" transform="rotate(336.0)"/><ellipse cx="0" cy="-6.5" rx="4.4" ry="7.2" fill="#ffffff" transform="rotate(408.0)"/><ellipse cx="0" cy="-6.5" rx="4.4" ry="7.2" fill="#ffffff" transform="rotate(480.0)"/><ellipse cx="0" cy="-6.5" rx="4.4" ry="7.2" fill="#ffffff" transform="rotate(552.0)"/><ellipse cx="0" cy="-6.5" rx="4.4" ry="7.2" fill="#ffffff" transform="rotate(624.0)"/><circle r="4.0" fill="#f0b820"/><circle r="1.7" fill="#ffffff"/></g><g transform="translate(192,111)" opacity="0.9"><ellipse cx="0" cy="-6.5" rx="4.4" ry="7.2" fill="#ffffff" transform="rotate(373.0)"/><ellipse cx="0" cy="-6.5" rx="4.4" ry="7.2" fill="#ffffff" transform="rotate(445.0)"/><ellipse cx="0" cy="-6.5" rx="4.4" ry="7.2" fill="#ffffff" transform="rotate(517.0)"/><ellipse cx="0" cy="-6.5" rx="4.4" ry="7.2" fill="#ffffff" transform="rotate(589.0)"/><ellipse cx="0" cy="-6.5" rx="4.4" ry="7.2" fill="#ffffff" transform="rotate(661.0)"/><circle r="4.0" fill="#f0b820"/><circle r="1.7" fill="#ffffff"/></g><g transform="translate(367,51)" opacity="0.85"><ellipse cx="0" cy="-5.2" rx="3.5" ry="5.8" fill="#ffffff" transform="rotate(15.0)"/><ellipse cx="0" cy="-5.2" rx="3.5" ry="5.8" fill="#ffffff" transform="rotate(87.0)"/><ellipse cx="0" cy="-5.2" rx="3.5" ry="5.8" fill="#ffffff" transform="rotate(159.0)"/><ellipse cx="0" cy="-5.2" rx="3.5" ry="5.8" fill="#ffffff" transform="rotate(231.0)"/><ellipse cx="0" cy="-5.2" rx="3.5" ry="5.8" fill="#ffffff" transform="rotate(303.0)"/><circle r="3.2" fill="#e8702a"/><circle r="1.4" fill="#ffffff"/></g><g transform="translate(482,118)" opacity="0.85"><ellipse cx="0" cy="-5.2" rx="3.5" ry="5.8" fill="#ffffff" transform="rotate(52.0)"/><ellipse cx="0" cy="-5.2" rx="3.5" ry="5.8" fill="#ffffff" transform="rotate(124.0)"/><ellipse cx="0" cy="-5.2" rx="3.5" ry="5.8" fill="#ffffff" transform="rotate(196.0)"/><ellipse cx="0" cy="-5.2" rx="3.5" ry="5.8" fill="#ffffff" transform="rotate(268.0)"/><ellipse cx="0" cy="-5.2" rx="3.5" ry="5.8" fill="#ffffff" transform="rotate(340.0)"/><circle r="3.2" fill="#e8702a"/><circle r="1.4" fill="#ffffff"/></g><g transform="translate(549,233)" opacity="0.85"><ellipse cx="0" cy="-5.2" rx="3.5" ry="5.8" fill="#ffffff" transform="rotate(89.0)"/><ellipse cx="0" cy="-5.2" rx="3.5" ry="5.8" fill="#ffffff" transform="rotate(161.0)"/><ellipse cx="0" cy="-5.2" rx="3.5" ry="5.8" fill="#ffffff" transform="rotate(233.0)"/><ellipse cx="0" cy="-5.2" rx="3.5" ry="5.8" fill="#ffffff" transform="rotate(305.0)"/><ellipse cx="0" cy="-5.2" rx="3.5" ry="5.8" fill="#ffffff" transform="rotate(377.0)"/><circle r="3.2" fill="#e8702a"/><circle r="1.4" fill="#ffffff"/></g><g transform="translate(549,367)" opacity="0.85"><ellipse cx="0" cy="-5.2" rx="3.5" ry="5.8" fill="#ffffff" transform="rotate(126.0)"/><ellipse cx="0" cy="-5.2" rx="3.5" ry="5.8" fill="#ffffff" transform="rotate(198.0)"/><ellipse cx="0" cy="-5.2" rx="3.5" ry="5.8" fill="#ffffff" transform="rotate(270.0)"/><ellipse cx="0" cy="-5.2" rx="3.5" ry="5.8" fill="#ffffff" transform="rotate(342.0)"/><ellipse cx="0" cy="-5.2" rx="3.5" ry="5.8" fill="#ffffff" transform="rotate(414.0)"/><circle r="3.2" fill="#e8702a"/><circle r="1.4" fill="#ffffff"/></g><g transform="translate(482,482)" opacity="0.85"><ellipse cx="0" cy="-5.2" rx="3.5" ry="5.8" fill="#ffffff" transform="rotate(163.0)"/><ellipse cx="0" cy="-5.2" rx="3.5" ry="5.8" fill="#ffffff" transform="rotate(235.0)"/><ellipse cx="0" cy="-5.2" rx="3.5" ry="5.8" fill="#ffffff" transform="rotate(307.0)"/><ellipse cx="0" cy="-5.2" rx="3.5" ry="5.8" fill="#ffffff" transform="rotate(379.0)"/><ellipse cx="0" cy="-5.2" rx="3.5" ry="5.8" fill="#ffffff" transform="rotate(451.0)"/><circle r="3.2" fill="#e8702a"/><circle r="1.4" fill="#ffffff"/></g><g transform="translate(367,549)" opacity="0.85"><ellipse cx="0" cy="-5.2" rx="3.5" ry="5.8" fill="#ffffff" transform="rotate(200.0)"/><ellipse cx="0" cy="-5.2" rx="3.5" ry="5.8" fill="#ffffff" transform="rotate(272.0)"/><ellipse cx="0" cy="-5.2" rx="3.5" ry="5.8" fill="#ffffff" transform="rotate(344.0)"/><ellipse cx="0" cy="-5.2" rx="3.5" ry="5.8" fill="#ffffff" transform="rotate(416.0)"/><ellipse cx="0" cy="-5.2" rx="3.5" ry="5.8" fill="#ffffff" transform="rotate(488.0)"/><circle r="3.2" fill="#e8702a"/><circle r="1.4" fill="#ffffff"/></g><g transform="translate(233,549)" opacity="0.85"><ellipse cx="0" cy="-5.2" rx="3.5" ry="5.8" fill="#ffffff" transform="rotate(237.0)"/><ellipse cx="0" cy="-5.2" rx="3.5" ry="5.8" fill="#ffffff" transform="rotate(309.0)"/><ellipse cx="0" cy="-5.2" rx="3.5" ry="5.8" fill="#ffffff" transform="rotate(381.0)"/><ellipse cx="0" cy="-5.2" rx="3.5" ry="5.8" fill="#ffffff" transform="rotate(453.0)"/><ellipse cx="0" cy="-5.2" rx="3.5" ry="5.8" fill="#ffffff" transform="rotate(525.0)"/><circle r="3.2" fill="#e8702a"/><circle r="1.4" fill="#ffffff"/></g><g transform="translate(118,482)" opacity="0.85"><ellipse cx="0" cy="-5.2" rx="3.5" ry="5.8" fill="#ffffff" transform="rotate(274.0)"/><ellipse cx="0" cy="-5.2" rx="3.5" ry="5.8" fill="#ffffff" transform="rotate(346.0)"/><ellipse cx="0" cy="-5.2" rx="3.5" ry="5.8" fill="#ffffff" transform="rotate(418.0)"/><ellipse cx="0" cy="-5.2" rx="3.5" ry="5.8" fill="#ffffff" transform="rotate(490.0)"/><ellipse cx="0" cy="-5.2" rx="3.5" ry="5.8" fill="#ffffff" transform="rotate(562.0)"/><circle r="3.2" fill="#e8702a"/><circle r="1.4" fill="#ffffff"/></g><g transform="translate(51,367)" opacity="0.85"><ellipse cx="0" cy="-5.2" rx="3.5" ry="5.8" fill="#ffffff" transform="rotate(311.0)"/><ellipse cx="0" cy="-5.2" rx="3.5" ry="5.8" fill="#ffffff" transform="rotate(383.0)"/><ellipse cx="0" cy="-5.2" rx="3.5" ry="5.8" fill="#ffffff" transform="rotate(455.0)"/><ellipse cx="0" cy="-5.2" rx="3.5" ry="5.8" fill="#ffffff" transform="rotate(527.0)"/><ellipse cx="0" cy="-5.2" rx="3.5" ry="5.8" fill="#ffffff" transform="rotate(599.0)"/><circle r="3.2" fill="#e8702a"/><circle r="1.4" fill="#ffffff"/></g><g transform="translate(51,233)" opacity="0.85"><ellipse cx="0" cy="-5.2" rx="3.5" ry="5.8" fill="#ffffff" transform="rotate(348.0)"/><ellipse cx="0" cy="-5.2" rx="3.5" ry="5.8" fill="#ffffff" transform="rotate(420.0)"/><ellipse cx="0" cy="-5.2" rx="3.5" ry="5.8" fill="#ffffff" transform="rotate(492.0)"/><ellipse cx="0" cy="-5.2" rx="3.5" ry="5.8" fill="#ffffff" transform="rotate(564.0)"/><ellipse cx="0" cy="-5.2" rx="3.5" ry="5.8" fill="#ffffff" transform="rotate(636.0)"/><circle r="3.2" fill="#e8702a"/><circle r="1.4" fill="#ffffff"/></g><g transform="translate(118,118)" opacity="0.85"><ellipse cx="0" cy="-5.2" rx="3.5" ry="5.8" fill="#ffffff" transform="rotate(385.0)"/><ellipse cx="0" cy="-5.2" rx="3.5" ry="5.8" fill="#ffffff" transform="rotate(457.0)"/><ellipse cx="0" cy="-5.2" rx="3.5" ry="5.8" fill="#ffffff" transform="rotate(529.0)"/><ellipse cx="0" cy="-5.2" rx="3.5" ry="5.8" fill="#ffffff" transform="rotate(601.0)"/><ellipse cx="0" cy="-5.2" rx="3.5" ry="5.8" fill="#ffffff" transform="rotate(673.0)"/><circle r="3.2" fill="#e8702a"/><circle r="1.4" fill="#ffffff"/></g><g transform="translate(233,51)" opacity="0.85"><ellipse cx="0" cy="-5.2" rx="3.5" ry="5.8" fill="#ffffff" transform="rotate(422.0)"/><ellipse cx="0" cy="-5.2" rx="3.5" ry="5.8" fill="#ffffff" transform="rotate(494.0)"/><ellipse cx="0" cy="-5.2" rx="3.5" ry="5.8" fill="#ffffff" transform="rotate(566.0)"/><ellipse cx="0" cy="-5.2" rx="3.5" ry="5.8" fill="#ffffff" transform="rotate(638.0)"/><ellipse cx="0" cy="-5.2" rx="3.5" ry="5.8" fill="#ffffff" transform="rotate(710.0)"/><circle r="3.2" fill="#e8702a"/><circle r="1.4" fill="#ffffff"/></g></g>

  <circle cx="300" cy="300" r="280" fill="none" stroke="#3a1808" stroke-width="6"/>
  <circle cx="300" cy="300" r="274" fill="none" stroke="#ffffff" stroke-width="2.5"/>

  <text font-family="Yellowtail" font-size="74" letter-spacing="2"
        fill="#ffffff" stroke="#3a1808" stroke-width="9" paint-order="stroke"
        filter="url(#ts)">
    <textPath href="#topArc" startOffset="50%" text-anchor="middle">Spring</textPath>
  </text>

  <text font-family="Yellowtail" font-size="60" letter-spacing="1"
        fill="#ffffff" stroke="#3a1808" stroke-width="9" paint-order="stroke"
        filter="url(#ts)">
    <textPath href="#botArc" startOffset="50%" text-anchor="middle">Blossoms</textPath>
  </text>
</svg>