<svg width="367" height="42" viewBox="0 0 367 42" fill="none" xmlns="http://www.w3.org/2000/svg">
<path d="M117.489 10.6209C118.926 10.3593 120.916 10.1642 123.625 10.1642C126.565 10.1642 128.719 10.7848 130.12 11.9597C131.428 13.037 132.275 14.7662 132.275 16.8232C132.275 18.8803 131.623 20.6445 130.382 21.8194C128.782 23.4198 126.268 24.1692 123.43 24.1692C122.681 24.1692 121.994 24.138 121.471 24.0404V32.331H117.489V10.6209ZM121.471 20.8709C121.959 20.9997 122.614 21.0349 123.43 21.0349C126.432 21.0349 128.262 19.5672 128.262 16.9872C128.262 14.4071 126.565 13.2322 123.789 13.2322C122.681 13.2322 121.896 13.3298 121.471 13.4273V20.8709Z" fill="#20697A"/>
<path d="M135.476 9.14932H139.524V32.3271H135.476V9.14932Z" fill="#20697A"/>
<path d="M152.81 32.3271L152.549 30.5628H152.451C151.472 31.8041 149.809 32.6862 147.752 32.6862C144.551 32.6862 142.755 30.3677 142.755 27.9515C142.755 23.935 146.315 21.9131 152.19 21.9443V21.6828C152.19 20.6367 151.764 18.9076 148.958 18.9076C147.393 18.9076 145.757 19.3955 144.68 20.0825L143.895 17.4712C145.07 16.753 147.127 16.066 149.641 16.066C154.735 16.066 156.202 19.2979 156.202 22.7562V28.5019C156.202 29.9383 156.269 31.3435 156.433 32.3232H152.81V32.3271ZM152.291 24.5596C149.45 24.4932 146.741 25.1138 146.741 27.53C146.741 29.0952 147.752 29.8134 149.024 29.8134C150.624 29.8134 151.799 28.7673 152.158 27.6276C152.256 27.3348 152.287 27.0069 152.287 26.7454V24.5596H152.291Z" fill="#20697A"/>
<path d="M162.639 16.429L165.512 24.9499C165.84 25.9296 166.164 27.1357 166.394 28.053H166.491C166.753 27.1396 167.046 25.9647 167.338 24.9187L169.821 16.429H174.13L170.149 27.2684C167.963 33.2093 166.491 35.8557 164.598 37.4873C163.033 38.8925 161.398 39.4116 160.387 39.5443L159.473 36.1485C160.16 35.9845 161.007 35.6254 161.823 35.0399C162.572 34.552 163.455 33.6035 164.009 32.5262C164.173 32.2334 164.27 32.0032 164.27 31.808C164.27 31.644 164.239 31.4177 164.04 31.0234L158.228 16.4329H162.635L162.639 16.429Z" fill="#20697A"/>
<path d="M175.859 28.6385C176.773 29.1928 178.502 29.7822 179.942 29.7822C181.706 29.7822 182.487 29.064 182.487 28.0179C182.487 26.9718 181.835 26.3863 179.876 25.6993C176.773 24.622 175.469 22.9241 175.5 21.0622C175.5 18.2557 177.819 16.066 181.507 16.066C183.272 16.066 184.806 16.5227 185.719 17.0145L184.935 19.8561C184.248 19.4658 182.975 18.9427 181.574 18.9427C180.172 18.9427 179.353 19.6297 179.353 20.6094C179.353 21.5891 180.102 22.1122 182.128 22.8304C185.001 23.8765 186.34 25.3441 186.371 27.6939C186.371 30.5667 184.119 32.655 179.907 32.655C177.983 32.655 176.25 32.1983 175.075 31.5465L175.859 28.6424V28.6385Z" fill="#20697A"/>
<path d="M198.616 32.3271L198.354 30.5628H198.256C197.277 31.8041 195.614 32.6862 193.557 32.6862C190.356 32.6862 188.561 30.3677 188.561 27.9515C188.561 23.935 192.12 21.9131 197.995 21.9443V21.6828C197.995 20.6367 197.569 18.9076 194.763 18.9076C193.198 18.9076 191.562 19.3955 190.485 20.0825L189.7 17.4712C190.875 16.753 192.932 16.066 195.446 16.066C200.54 16.066 202.008 19.2979 202.008 22.7562V28.5019C202.008 29.9383 202.074 31.3435 202.238 32.3232H198.616V32.3271ZM198.093 24.5596C195.251 24.4932 192.542 25.1138 192.542 27.53C192.542 29.0952 193.553 29.8134 194.825 29.8134C196.426 29.8134 197.601 28.7673 197.96 27.6276C198.057 27.3348 198.089 27.0069 198.089 26.7454V24.5596H198.093Z" fill="#20697A"/>
<path d="M206.711 32.3271V19.4306H204.556V16.429H206.711V15.742C206.711 13.685 207.265 11.6279 208.635 10.3242C209.81 9.21569 211.411 8.79022 212.781 8.79022C213.858 8.79022 214.705 8.95416 215.361 9.18055L215.068 12.2837C214.643 12.1197 214.088 11.9909 213.37 11.9909C211.379 11.9909 210.692 13.6576 210.692 15.6132V16.429H214.186V19.4306H210.724V32.3271H206.707H206.711Z" fill="#20697A"/>
<path d="M219.151 25.5042C219.248 28.377 221.501 29.6182 224.046 29.6182C225.907 29.6182 227.246 29.3567 228.452 28.9L229.038 31.6753C227.668 32.2296 225.775 32.655 223.487 32.655C218.331 32.655 215.294 29.4894 215.294 24.6259C215.294 20.2191 217.972 16.0738 223.066 16.0738C228.16 16.0738 229.92 20.3167 229.92 23.8101C229.92 24.5596 229.854 25.149 229.791 25.5081H219.151V25.5042ZM226.134 22.6977C226.165 21.2301 225.513 18.8139 222.836 18.8139C220.353 18.8139 219.311 21.0661 219.147 22.6977H226.134Z" fill="#20697A"/>
<path d="M256.986 31.3474C255.713 31.8041 253.199 32.5535 250.229 32.5535C246.899 32.5535 244.155 31.7065 242.001 29.6495C240.108 27.8227 238.933 24.8835 238.933 21.4564C238.964 14.895 243.468 10.0978 250.85 10.0978C253.394 10.0978 255.385 10.6521 256.334 11.1088L255.647 13.4274C254.472 12.9043 253.004 12.4788 250.783 12.4788C245.428 12.4788 241.934 15.8084 241.934 21.3276C241.934 26.8469 245.295 30.2076 250.424 30.2076C252.286 30.2076 253.558 29.9461 254.21 29.6221V23.0607H249.737V20.7773H256.986V31.3552V31.3474Z" fill="#04AA9D"/>
<path d="M261.228 21.4564C261.228 19.5945 261.197 17.9942 261.1 16.5266H263.613L263.711 19.6297H263.84C264.558 17.5063 266.287 16.1674 268.215 16.1674C268.543 16.1674 268.77 16.1987 269.031 16.265V18.9739C268.738 18.9076 268.442 18.8763 268.051 18.8763C266.026 18.8763 264.589 20.4103 264.199 22.565C264.132 22.9553 264.07 23.412 264.07 23.9038V32.3271H261.228V21.4564Z" fill="#04AA9D"/>
<path d="M285.878 24.298C285.878 30.1413 281.83 32.6862 278.009 32.6862C273.731 32.6862 270.436 29.5519 270.436 24.5595C270.436 19.2706 273.899 16.1714 278.27 16.1714C282.642 16.1714 285.878 19.4696 285.878 24.298ZM273.34 24.462C273.34 27.9242 275.331 30.5355 278.137 30.5355C280.944 30.5355 282.935 27.9554 282.935 24.3995C282.935 21.7218 281.596 18.326 278.2 18.326C274.804 18.326 273.336 21.4603 273.336 24.462H273.34Z" fill="#04AA9D"/>
<path d="M302.72 28.0179C302.72 29.6495 302.752 31.0859 302.849 32.3271H300.304L300.14 29.7471H300.074C299.325 31.0195 297.658 32.6862 294.851 32.6862C292.369 32.6862 289.399 31.3162 289.399 25.7657V16.5266H292.271V25.2739C292.271 28.2755 293.185 30.3013 295.796 30.3013C297.72 30.3013 299.059 28.9625 299.582 27.69C299.746 27.2646 299.844 26.7415 299.844 26.2224V16.5266H302.717V28.0179H302.72Z" fill="#04AA9D"/>
<path d="M307.486 21.6867C307.486 19.6609 307.42 18.0293 307.358 16.5305H309.938L310.066 19.2394H310.133C311.308 17.315 313.17 16.1714 315.746 16.1714C319.567 16.1714 322.436 19.4033 322.436 24.2004C322.436 29.8797 318.974 32.6901 315.254 32.6901C313.166 32.6901 311.335 31.7767 310.39 30.2076H310.324V38.7949H307.483V21.6906L307.486 21.6867ZM310.328 25.8984C310.328 26.3238 310.394 26.7142 310.457 27.0733C310.98 29.064 312.709 30.434 314.766 30.434C317.803 30.434 319.563 27.9515 319.563 24.3293C319.563 21.1637 317.897 18.4548 314.864 18.4548C312.904 18.4548 311.077 19.86 310.523 22.0146C310.426 22.3737 310.328 22.7992 310.328 23.1895V25.8984Z" fill="#04AA9D"/>
<path d="M337.327 26.0936L335.434 32.3271H331.289L338.342 10.3242H343.467L350.618 32.3271H346.309L344.318 26.0936H337.331H337.327ZM343.627 23.0568L341.898 17.639C341.472 16.3002 341.113 14.7974 340.789 13.5249H340.723C340.395 14.7974 340.071 16.3314 339.677 17.639L337.979 23.0568H343.627Z" fill="#20697A"/>
<path d="M353.584 27.9554C354.888 28.7049 356.848 29.3606 358.905 29.3606C361.485 29.3606 362.921 28.1545 362.921 26.359C362.921 24.6923 361.813 23.7165 359.002 22.7016C355.38 21.394 353.061 19.4697 353.061 16.3041C353.061 12.713 356.063 9.97293 360.833 9.97293C363.218 9.97293 364.978 10.496 366.122 11.0815L365.142 14.3134C364.357 13.8879 362.824 13.2673 360.766 13.2673C358.222 13.2673 357.109 14.6374 357.109 15.9099C357.109 17.6078 358.382 18.3924 361.321 19.5321C365.142 20.9685 367 22.8929 367 26.0623C367 29.587 364.322 32.655 358.643 32.655C356.325 32.655 353.908 32.0032 352.702 31.285L353.584 27.9554Z" fill="#20697A"/>
<path d="M83.7843 18.5953V19.7936C83.7843 22.8421 86.2668 25.3207 89.3153 25.3207H96.9111C96.2983 27.8149 95.1 29.8095 93.3474 31.2615C91.4387 32.8345 89.1201 33.6308 86.4581 33.6308C82.8163 33.6308 79.9201 32.534 77.8513 30.3638L77.824 30.3364C77.742 30.2584 77.6639 30.1647 77.5937 30.0749L77.3205 29.7587C77.2385 29.669 77.1643 29.5714 77.0784 29.4543L76.7194 28.9742H66.844L67.5895 30.6565C67.6832 30.8673 67.773 31.0664 67.8667 31.2498C67.9564 31.4372 68.0384 31.605 68.1243 31.7611C69.7832 34.8643 72.1525 37.3116 75.1697 39.0369C78.1831 40.7582 81.7 41.6326 85.6267 41.6326C89.0811 41.6326 92.1803 40.9495 94.8463 39.6068C97.5278 38.2562 99.7215 36.4334 101.373 34.1929C103.004 31.9836 104.121 29.5285 104.698 26.8898L104.726 18.5953H83.7921H83.7843Z" fill="#20697A"/>
<path d="M74.8965 23.9467C74.8536 23.6696 74.8223 23.3886 74.795 23.0841L74.7677 22.8421C74.7482 22.6938 74.7365 22.5259 74.7365 22.3659V21.8936L74.7091 21.8663C74.6974 21.6282 74.6974 21.3901 74.6974 21.1559C74.6974 18.6773 75.1619 16.4836 76.0792 14.6413C76.2939 14.2158 76.5203 13.8294 76.813 13.3922C76.8521 13.3259 76.9106 13.2439 77.0238 13.0917L77.1995 12.8575C77.2385 12.8028 77.2853 12.7482 77.418 12.5842C77.4649 12.5179 77.5507 12.4242 77.6874 12.272L77.8279 12.1197C77.8786 12.0573 77.9567 11.9831 78.0543 11.8816L78.2494 11.6943C78.3431 11.6045 78.4368 11.5186 78.5851 11.4015C78.8154 11.1986 79.0496 11.0151 79.2916 10.8473C79.4634 10.7224 79.6429 10.6053 79.963 10.4101L81.6648 9.40694C83.6711 8.22424 84.9163 6.0462 84.9163 3.71593V0.593292L83.6282 0.690875C82.1644 0.80407 80.7476 1.05779 79.4243 1.44421C78.105 1.81893 76.934 2.27952 75.8528 2.8455C75.6108 2.9704 75.3727 3.10311 75.1307 3.24363C72.133 4.99621 69.7754 7.45139 68.1243 10.5467C66.4771 13.6342 65.6418 17.2018 65.6418 21.1559C65.6418 21.796 65.6652 22.4323 65.712 23.0138C65.7277 23.291 65.7511 23.5447 65.7784 23.7984L65.8018 24.0092H66.9923L65.9501 25.3246H75.1034L74.9004 23.9506L74.8965 23.9467Z" fill="#20697A"/>
<path d="M43.0378 9.51624C43.1939 9.26643 43.393 9.04003 43.6233 8.84097C44.3961 8.18131 45.4422 7.84562 46.7342 7.84562C48.2331 7.84562 49.4236 8.24766 50.2667 9.04003C51.0239 9.75434 51.5313 10.656 51.7772 11.7216L51.9919 12.6467H61.4848L61.274 11.2688C60.7978 8.16179 59.3575 5.61684 56.996 3.70032C54.4588 1.63938 51.0239 0.593292 46.7888 0.593292C42.5537 0.593292 39.3609 1.60815 36.8588 3.61445C34.4544 5.53877 33.1702 8.16179 33.0453 11.4054L32.9946 12.6506H37.6278C39.7785 12.6506 41.8004 11.4796 43.0378 9.51624Z" fill="#04AA9D"/>
<path d="M60.3879 23.6267C59.2365 22.0146 57.8196 20.7851 56.1763 19.9732C54.5954 19.1925 52.5228 18.3494 49.9895 17.4556C48.8459 17.0808 47.8154 16.7139 46.9371 16.3626L33.3888 16.2768L34.7432 18.1699C35.883 19.7624 37.2843 20.992 38.9159 21.8273C40.485 22.6313 42.5186 23.4471 44.9582 24.259C46.8044 24.8757 48.2721 25.4261 49.3221 25.8984C50.3096 26.3395 51.1371 26.9328 51.7811 27.6588C52.394 28.3536 52.6906 29.2162 52.6906 30.2974C52.6906 31.484 52.3393 32.4247 51.6211 33.1742L51.5469 33.2483C50.1691 34.6184 49.4118 36.3475 49.4118 38.1196V41.6443L50.7312 41.5077C52.6984 41.3047 54.451 40.8129 55.9421 40.0401C57.9796 38.9823 59.5409 37.5576 60.5831 35.7972C61.6253 34.0407 62.1522 32.1007 62.1522 30.0203C62.1522 27.4129 61.5589 25.2583 60.3918 23.6189L60.3879 23.6267Z" fill="#04AA9D"/>
<path d="M26.1014 4.13359C23.6189 1.7838 19.9068 0.593292 15.0745 0.593292H0V1.79161C0 5.30067 2.85331 8.15399 6.36237 8.15399H14.2236C16.5773 8.15399 18.205 8.61848 19.1964 9.57479C20.1683 10.5194 20.6602 11.9246 20.6602 13.7435C20.6602 17.4673 18.5524 19.2784 14.2197 19.2784H12.8184V26.7805H15.0667C19.739 26.7805 23.4081 25.5939 25.9726 23.248C28.5526 20.8866 29.8563 17.6897 29.8563 13.7435C29.8563 9.79728 28.5878 6.49508 26.0897 4.12968L26.1014 4.13359Z" fill="#20697A"/>
<path d="M2.4825 19.4658H0V41.5819H9.08298V26.0701C9.08298 22.4284 6.12037 19.4658 2.47859 19.4658H2.4825Z" fill="#20697A"/>
</svg>
