<svg xmlns="http://www.w3.org/2000/svg" viewBox="0 0 149 160"><g transform="translate(0,160) scale(1,-1)"><path d="M123 158 c-3 -2 -7 -11 -8 -17 0 -5 1 -3 -25 -32 -9 -10 -16 -18 -16 -19 0 -1 10 -10 11 -10 0 0 10 11 22 24 12 12 22 23 23 23 3 0 14 6 16 9 3 4 3 6 -4 12 -10 10 -15 12 -19 10z m11 -12 c6 -5 6 -7 1 -10 -10 -5 -17 3 -11 13 2 2 2 2 10 -3z M35 84 c-25 -28 -28 -31 -31 -40 -5 -15 -2 -39 5 -41 15 -5 38 1 50 11 9 9 32 35 31 36 0 1 -4 5 -8 8 l-8 6 -7 -6 c-24 -24 -34 -12 -12 13 l4 5 -8 7 c-10 7 -10 7 -16 1z M64 77 c-17 -19 -22 -29 -16 -29 4 0 18 12 30 26 l3 4 -4 4 c-6 5 -4 5 -13 -5z" fill="currentColor"/></g></svg>