<svg xmlns="http://www.w3.org/2000/svg" viewBox="0 0 606.46 500">
  <path d="M227.86,222.57c-8.11-17.46-30.25-29.36-42.26-21.35-12.01,8.01-21.35,27.58-9.79,56.5,11.57,28.92,26.69,49.52,32.92,79.92,6.23,30.4,15.57,53.98,38.7,69.11s21.35,30.25,45.82,34.25,38.26-2.22,59.17-26.25c20.91-24.02,30.7-20.02,40.04-51.6s27.14-75.63,35.59-92.98c8.45-17.35,13.79-46.27,6.23-57.83-7.56-11.57-30.7-28.03-50.27,6.23-19.57,34.25-32.92,61.39-40.04,48.94-7.12-12.46-5.34-42.71-5.78-75.18-.44-32.48-12.78-59.17-33.97-58.72-21.19.44-31.87,20.02-32.32,52.49-.44,32.48,0,66.28,0,66.28-1.33,14.68-6.67,24.02-15.57,15.57-8.9-8.45-22.69-32.92-28.47-45.38Z" style="fill: #15110E;"/>
  <path d="M114.16,228.06v-76.52c0-14.24,9.79-23.13,19.57-23.13h16.02v-22.24h-30.25c-20.46,0-35.59,19.13-35.59,32.48v90.31c0,19.57-31.14,16.9-31.14,16.9v29.36s31.14-2.67,31.14,16.9v90.31c0,13.35,15.13,32.48,35.59,32.48h30.25v-22.24h-16.02c-9.79,0-19.57-8.9-19.57-23.13v-76.52c0-7.12-10.23-22.69-17.79-27.58l-7.56-4.89,7.56-4.89c7.56-4.89,17.79-20.46,17.79-27.58Z" style="fill: #9A5F12;"/>
  <path d="M492.29,228.06c0-7.12,0-62.28,0-76.52,0-14.24-9.79-23.13-19.57-23.13s-16.02,0-16.02,0v-22.24h30.25c20.46,0,35.59,19.13,35.59,32.48,0,13.35,0,70.73,0,90.31,0,19.57,31.14,16.9,31.14,16.9v14.68s0,14.68,0,14.68c0,0-31.14-2.67-31.14,16.9,0,19.57,0,76.96,0,90.31,0,13.35-15.13,32.48-35.59,32.48-20.46,0-30.25,0-30.25,0v-22.24s6.23,0,16.02,0c9.79,0,19.57-8.9,19.57-23.13s0-69.4,0-76.52c0-7.12,10.23-22.69,17.79-27.58l7.56-4.89-7.56-4.89c-7.56-4.89-17.79-20.46-17.79-27.58Z" style="fill: #9A5F12;"/>
  <rect x="252.51" y="334.67" width="22.24" height="40.64" style="fill: #9A5F12;"/>
  <rect x="292.11" y="313.56" width="22.24" height="61.75" style="fill: #9A5F12;"/>
  <rect x="331.7" y="287.85" width="22.24" height="87.45" style="fill: #9A5F12;"/>
  <path d="M186.67,183.13c-5.78.19-6.39,1.28-10.9,4.62s-8.51,7.51-9.01,1.84-.17-23.86,0-29.03,3.5-3.67,7.67,1.84c4.17,5.51,11.18,13.51,13.51,15.51s2.11,5.12-1.28,5.23Z" style="fill: #15110E;"/>
  <path d="M299.89,83.64c-5.54,8.62-10.68,26.02-10.51,31.7s4.84,6.34,7.67,4.67,10.18-2.67,14.18-.5,9.51,4.17,7.34-2.34-7.34-26.02-10.01-31.7-5.67-6.51-8.67-1.84Z" style="fill: #15110E;"/>
  <path d="M432.68,162.88c-6.61,6.77-13.51,15.01-15.01,16.68s-.67,4.17,7.51,6.34,11.58,6.01,11.58,6.01c2.44,2.67,6.61,1.33,6.77-5.67.17-7.01-1.33-22.02-1.17-26.19s-2.5-4.5-9.68,2.84Z" style="fill: #15110E;"/>
</svg>