<?xml version="1.0" encoding="UTF-8"?>
<svg id="a" data-name="Layer 1" xmlns="http://www.w3.org/2000/svg" viewBox="0 0 890.51 890.51">
  <circle cx="445.25" cy="445.25" r="445.25" fill="#ffffff"/>
  <g>
    <path d="M783.84,217.38c2.06,4.34-.98,7.87-5.28,5.44-8.69-6.89-17.82-12.12-28.48-15.67-20.22-6.46-42.27-3.86-59.51,8.59-11.41,8.24-18.37,20.26-19.21,34.77-14.72-22.52-38.22-35.81-65.87-34.71,10.19-6.29,18.75-13.03,25.08-22.57,13.94-21.03,11.21-47.09-6.5-65.14-10.8-11.01-24.06-18.84-39.02-23.83-50.39-16.81-110.66-8.7-160.36,9.01-35.04,12.48-67.69,29.99-96.94,52.85-25.79,20.16-48.31,42.99-66.62,69.98-11.54,17.02-24.62,40.36-20.66,60.09,2.83,14.1,13.85,20.02,28.58,17.84l-2.16,26.65-10.83,78.32c-10.04-23.41-29.65-40.54-54.57-47.41-34.43-9.49-70.44.11-97.25,23.63-14.6,12.8-25.39,28.4-33.79,46-9.44,19.77-13.4,40.5-16.14,62.19-18.1-125.83,20.31-250.6,109.35-340.81,55.28-56.01,126.42-94.66,203.76-110.25,69.65-14.04,142.2-10.62,209.71,11.09,84.34,27.13,156.64,81.33,206.72,153.93Z" fill="#ffffff"/>
    <path d="M118.22,407.91c30.63-26.11,74.08-29.94,104.65-4.26,32.26,27.09,30.62,76.47,6.71,109.64-6.17,8.56-13.92,15.07-23.44,19.22-9.67,4.21-24.78,3-29.1-1.97-.78-.9,6.43-5.76,5.4-13.44-.51-3.83-3.02-8.13-7.15-10.13-8.89-4.29-19.01.72-21.76,10.39-4.28,15.06,2.44,30.93,16.46,38.47,15.95,8.58,35.09,6.86,50.21-2.94,20.47-13.27,33.26-40.4,40.11-63.76,6.13-20.87,10.07-41.38,13.3-62.99l12.23-81.84c1.87-12.53,3.47-24.31,3.85-36.68.08-2.67-1.26-5.63-2.69-6.88-5.2-4.56-12.68.85-18.77-2.32-8.18-4.26-7.67-16.15-3.62-25.97,11.93-28.93,41.58-60.74,65.82-81.47,37.31-31.9,81.23-54.85,128.58-68.1,34.93-9.77,77.04-13.73,111.79-4.23,12.51,3.42,24.24,8.99,32.89,18.3,17.63,18.97,11.8,45.39-7.73,61.52-45.87,37.89-123.69,5.35-189.36,42.1-21.49,12.02-37.55,29.91-46.66,52.79-12.42,29.83-13.71,65.4-17.15,97.97-25.22-4.83-48.74,9.63-56.5,33.28-.73,2.23-1.91,3.94-1.47,6.61-2.74,15.31,1.93,30.96,12.23,42.14,10.24,11.11,24.82,16.95,40.73,15.61-1.92,27.57-6.63,52.89-13.06,78.66-13.52,54.17-41.1,115.15-100.84,125.48-36.46,6.31-72.29-5.72-98.73-31.3-11.44-11.07-20.84-22.96-28.58-37.11-14.71-26.89-22.27-56.21-24.15-86.95-2.8-45.62,9.86-99.17,45.81-129.82Z" fill="#ffffff"/>
    <path d="M465.66,420.35c-28.47,9.31-38.61,72.05-19.09,91.05,10.91,10.63,27.9,8.24,36.15-3.87,4.41-6.48,5.39-13.71,3.39-21.25-1.32-4.99-6.07-7.29-10.33-9.07.11-9.57,7.14-17.9,13.99-22.01,9.11-5.46,18.72-5.45,28.1-1.49,22.82,9.63,32.45,37.13,31.27,61.84-1.27,26.79-12.44,51.51-31.04,70.92-29,30.28-74.17,41.34-113.88,27.95-31.04-10.47-44.5-38.55-46.23-70.17-2.93-53.61,19.18-111.54,58.78-149.63-7.77-3.82-14.81-7.52-21.1-13.15-32.18-28.78-24.31-80.97,7.05-111.06,17.17-16.48,38.76-25.91,62.2-30.01,18.37-3.21,36.28-3.75,54.3.64,13.12,3.19,23.86,11.18,28.41,24.12,6.4,18.19,2.05,38.85-11.67,52.28-8.94,8.76-21.29,12.53-32.9,9.21-5.34-1.53-9.08-4.88-10.46-10.03-1.92-7.14-7.91-11.34-15.18-11.72-20.16-1.08-31.49,22.57-26.75,41.15,2.02,7.92,8.98,12.92,16.96,12.88,10.68-.05,20.09-10.07,33.67-12,13.99-1.99,27.21,5.4,31.5,19.21,5.61,18.02,1.51,39.14-11.81,52.38-10.05,9.99-24.41,10.77-35.95,4.27-5.91-3.33-13.19-4.45-19.38-2.43Z" fill="#ffffff"/>
    <circle cx="333.62" cy="439.63" r="34.19" fill="#ffffff"/>
    <circle cx="572.19" cy="439.64" r="34.16" fill="#ffffff"/>
    <path d="M778.56,222.82c1.61-.35,3.09-.73,3.85-1.65.91-1.09,1.06-2.54,1.43-3.79,5.53,8.02,10.94,15.63,14.99,25.48-6.33-7.21-12.61-13.97-20.28-20.04Z" fill="#ffffff"/>
    <path d="M426.79,803.93l.88-2.11c34.12-14.05,55.65-44.11,53.89-81.97-1.78-38.31-25.41-63.83-58.82-77.4-3.82-.45-5.17-1.68-4.04-3.71,46.15,4.44,85.8-7.33,117.22-42.49,25.82-29.47,38.48-67.92,43.18-107.29,28.19-4,46.91-30.24,41.7-58.48-3.74-20.25-18.79-35.83-39.32-39.71-.84-16.38-2.62-32.1-4.51-48.38l-3.8-32.8c-1.45-13.59-2.59-26.8-1.25-40.3,2.11-21.21,17.48-38.09,39.51-36.79,26.85,1.59,45.14,21.96,56.79,45.09,6.5,12.9,12.07,25.41,16.78,39.14l26.02,75.89,18.9,54.73c2.78,8.05,7.28,16.58,13.98,15.69,6.23-.83,9.29-16.12,10.05-25.76,4.13-52.35-18.67-106-50.75-146.71-8.2-10.4-12.78-22.35-11.56-35.6,1.76-19.07,16.46-32.93,35.47-34.64,12.81-1.15,24.83,2.58,35.78,9.73,27.83,18.16,42.8,56.3,53.07,87.87,8.39,25.8,12.92,51.83,15.96,78.81l.95,13.07.89,18.6.06,25.85-.99,17.53c-1.9,33.53-11.19,79.32-28.02,108.37-6.88,11.88-15,22.13-26.89,29.08-13.21,7.72-29.35,9.08-42.91,1.68-11.24-6.14-19.24-15.8-25.62-26.74-5.77-9.89-10.34-19.88-13.41-30.95l-13.69-49.31-14.02-53.36c-3.55-13.5-17.85-57.62-26.12-58.85-5.46-.81-4.31,14.99-2.24,25.15l8.57,41.93c5.38,26.33,9.12,51.84,10.7,78.85,2.12,36.21-1.28,72.1-12.16,106.5-19.6,61.92-63.87,111.99-122.76,139.17-30.75,14.2-63.94,21.26-97.45,20.63Z" fill="#ffffff"/>
    <path d="M418.69,638.74c.89,1.69,3.31,1.36,4.93,2.17l17.89,8.95c24.28,13.69,39.37,39.17,41.62,66.79,2.8,34.36-13.94,66.39-44.95,81.63-.98.48-3.52,3.43-11.39,5.65-40.53-.77-88.31-14.37-114.27-47.23-24.6-31.13-16.76-72.34,12.53-97.3,25.99-22.15,60.96-25.21,93.64-20.66Z" fill="#ffffff"/>
    <path d="M131.87,690.33c44.04,29.72,101.35,38.01,147.19,4.72-10.08,37.68,5.21,68.14,33.93,91.29,14.99,11.5,31.13,20.1,49.24,26.14,42.12,14.05,86.76,15.16,129.9,4.28,34.38-8.67,66.48-23.87,94.08-46.04,61.86-49.67,91.78-121.37,94.43-200.69,9.91,23.57,19.46,46.6,41.77,60.51,16.04,10,34.59,10.8,51.47,2.1,35.46-18.28,56.95-56.59,65.3-95.26-.22-1.79,1.63-1.62,1.37.15l-12.64,45.51c-19.4,57.87-54.87,112.55-99.15,154.51-69.06,65.44-159.38,103.48-254.48,108.43-97.43,5.07-192-22.33-269.54-81.82-27.97-21.27-52.78-45.8-73.74-73.38.09-.2-.09-.35-.26-.32-.96-.54,0-1.59.65-.75l.46.64Z" fill="#ffffff"/>
    <ellipse cx="389.88" cy="721.08" rx="44.9" ry="54.9" transform="translate(-425.04 809.8) rotate(-67.81)" fill="#ffffff"/>
  </g>
</svg>