<svg xmlns="http://www.w3.org/2000/svg" viewBox="0 0 340 72" width="340" height="72">
  <rect x="0" y="0" width="72" height="72" rx="12" fill="#ffffff"/>
  <rect x="0" y="57" width="72" height="4" rx="2" fill="#e5e5e5"/>
  <path d="M7.45 0.27Q4.76 0.27 3.06-1.31Q1.37-2.90 1.37-5.82L1.37-6.92L3.96-6.92L3.96-5.82Q3.96-3.96 4.92-2.99Q5.88-2.01 7.45-2.01Q9.01-2.01 9.97-2.99Q10.92-3.96 10.92-5.82L10.92-20.37L13.52-20.37L13.52-5.82Q13.52-2.90 11.83-1.31Q10.14 0.27 7.45 0.27ZM21.05 0L18.44 0L18.44-20.37L21.51-20.37L29.79-7.34Q30.12-6.84 30.58-6.04Q31.05-5.25 31.59-4.25Q32.13-3.25 32.65-2.12L32.28-2.12Q32.16-3.29 32.10-4.37Q32.05-5.44 32.03-6.34Q32.02-7.25 32.02-7.88L32.02-20.37L34.62-20.37L34.62 0L31.53 0L24.14-11.59Q23.64-12.40 23.13-13.25Q22.61-14.11 21.96-15.28Q21.30-16.45 20.33-18.17L20.81-18.17Q20.88-16.65 20.93-15.37Q20.99-14.08 21.02-13.13Q21.05-12.17 21.05-11.62L21.05 0Z" fill="#2563eb" transform="translate(19.375, 48)"/>
  <path d="M5.85 0.21Q3.74 0.21 2.41-1.03Q1.07-2.28 1.07-4.58L1.07-5.44L3.12-5.44L3.12-4.58Q3.12-3.12 3.87-2.35Q4.62-1.58 5.85-1.58Q7.08-1.58 7.83-2.35Q8.58-3.12 8.58-4.58L8.58-16.01L10.62-16.01L10.62-4.58Q10.62-2.28 9.30-1.03Q7.97 0.21 5.85 0.21ZM18.64 0.26Q17.01 0.26 15.78-0.52Q14.55-1.29 13.86-2.69Q13.17-4.08 13.17-5.93Q13.17-7.81 13.86-9.21Q14.55-10.61 15.78-11.39Q17.01-12.16 18.64-12.16Q20.29-12.16 21.52-11.39Q22.76-10.61 23.44-9.21Q24.13-7.81 24.13-5.93Q24.13-4.08 23.44-2.69Q22.76-1.29 21.52-0.52Q20.29 0.26 18.64 0.26ZM18.64-1.47Q19.86-1.47 20.64-2.09Q21.42-2.72 21.80-3.73Q22.18-4.75 22.18-5.93Q22.18-7.12 21.80-8.15Q21.42-9.17 20.64-9.80Q19.86-10.43 18.64-10.43Q17.44-10.43 16.67-9.80Q15.89-9.17 15.52-8.15Q15.14-7.13 15.14-5.93Q15.14-4.75 15.52-3.73Q15.89-2.72 16.67-2.09Q17.44-1.47 18.64-1.47Z" fill="#ffffff" transform="translate(88, 34)"/>
  <line x1="88" y1="41" x2="336" y2="41" stroke="#333333" stroke-width="1"/>
  <path d="M1.81 0L0.88-7.28L3.37-7.28Q4.77-6.97 5.58-6.13Q5.85-5.61 5.85-4.96Q5.32-3.26 4.77-2.94Q4.22-2.63 3.37-2.63L1.61-3.45L3.33-3.45Q4.26-3.65 4.61-3.84Q4.77-4.19 4.93-4.96Q4.77-5.73 4.61-6.07Q4.26-6.26 3.90-6.46L1.81-6.46L1.81 0Z" fill="#7aa7f7" transform="translate(88, 57)"/>
</svg>