<svg xmlns="http://www.w3.org/2000/svg" viewBox="0 0 340 72" width="340" height="72">
  <rect x="0" y="0" width="72" height="72" rx="12" fill="#ffffff"/>
  <rect x="0" y="57" width="72" height="4" rx="2" fill="#ffffff"/>
  <path d="M7.45 0.27L7.45 0.27Q4.76 0.27 3.06-1.31Q1.37-2.90 1.37-5.82L1.37-5.82L1.37-6.92L3.96-6.92L3.96-5.82Q3.96-3.96 4.92-2.99Q5.88-2.01 7.45-2.01L7.45-2.01Q9.01-2.01 9.97-2.99Q10.92-3.96 10.92-5.82L10.92-5.82L10.92-20.37L13.52-20.37L13.52-5.82Q13.52-2.90 11.83-1.31Q10.14 0.27 7.45 0.27ZM21.05 0L18.44 0L18.44-20.37L21.51-20.37L29.79-7.34Q30.12-6.84 30.58-6.04Q31.05-5.25 31.59-4.25Q32.13-3.25 32.65-2.12L32.65-2.12L32.28-2.12Q32.16-3.29 32.10-4.37Q32.05-5.44 32.03-6.34Q32.02-7.25 32.02-7.88L32.02-7.88L32.02-20.37L34.62-20.37L34.62 0L31.53 0L24.14-11.59Q23.64-12.40 23.13-13.25Q22.61-14.11 21.96-15.28Q21.30-16.45 20.33-18.17L20.33-18.17L20.81-18.17Q20.88-16.65 20.93-15.37Q20.99-14.08 21.02-13.13Q21.05-12.17 21.05-11.62L21.05-11.62L21.05 0Z" fill="#ffffff" transform="translate(19.375, 48)"/>
  <path d="M5.85 0.21Q3.74 0.21 2.41-1.03Q1.07-2.28 1.07-4.58L1.07-5.44L3.12-5.44L3.12-4.58Q3.12-3.12 3.87-2.35Q4.62-1.58 5.85-1.58Q7.08-1.58 7.83-2.35Q8.58-3.12 8.58-4.58L8.58-16.01L10.62-16.01L10.62-4.58Q10.62-2.28 9.30-1.03Q7.97 0.21 5.85 0.21ZM18.64 0.26Q17.01 0.26 15.78-0.52Q14.55-1.29 13.86-2.69Q13.17-4.08 13.17-5.93Q13.17-7.81 13.86-9.21Q14.55-10.61 15.78-11.39Q17.01-12.16 18.64-12.16Q20.29-12.16 21.52-11.39Q22.76-10.61 23.44-9.21Q24.13-7.81 24.13-5.93Q24.13-4.08 23.44-2.69Q22.76-1.29 21.52-0.52Q20.29 0.26 18.64 0.26ZM18.64-1.47Q19.86-1.47 20.64-2.09Q21.42-2.72 21.80-3.73Q22.18-4.75 22.18-5.93Q22.18-7.12 21.80-8.15Q21.42-9.17 20.64-9.80Q19.86-10.43 18.64-10.43Q17.44-10.43 16.67-9.80Q15.89-9.17 15.52-8.15Q15.14-7.13 15.14-5.93Q15.14-4.75 15.52-3.73Q15.89-2.72 16.67-2.09Q17.44-1.47 18.64-1.47ZM28.38-7.20L28.38 0L26.45 0L26.45-12.01L28.30-12.01L28.32-9.10L28.05-9.10Q28.59-10.76 29.61-11.46Q30.63-12.16 31.99-12.16Q33.20-12.16 34.12-11.66Q35.03-11.16 35.54-10.16Q36.05-9.15 36.05-7.63L36.05 0L34.12 0L34.12-7.47Q34.12-8.85 33.39-9.64Q32.67-10.42 31.41-10.42Q30.55-10.42 29.86-10.04Q29.17-9.67 28.78-8.95Q28.38-8.23 28.38-7.20ZM42.31 0.28Q41.17 0.28 40.24-0.15Q39.31-0.58 38.76-1.41Q38.21-2.23 38.21-3.42Q38.21-4.45 38.62-5.09Q39.03-5.74 39.71-6.11Q40.39-6.48 41.22-6.66Q42.05-6.84 42.89-6.95Q43.96-7.09 44.64-7.17Q45.31-7.24 45.64-7.42Q45.97-7.61 45.97-8.05L45.97-8.11Q45.97-8.86 45.69-9.38Q45.41-9.90 44.85-10.18Q44.29-10.46 43.46-10.46Q42.60-10.46 41.98-10.19Q41.37-9.93 40.99-9.52Q40.61-9.12 40.42-8.70L38.56-9.31Q39.02-10.41 39.80-11.03Q40.59-11.64 41.53-11.90Q42.48-12.16 43.40-12.16Q44.00-12.16 44.77-12.02Q45.54-11.87 46.25-11.44Q46.97-11.01 47.44-10.17Q47.90-9.32 47.90-7.92L47.90 0L46.00 0L46.00-1.63L45.87-1.63Q45.67-1.21 45.22-0.77Q44.77-0.32 44.05-0.02Q43.33 0.28 42.31 0.28ZM42.64-1.43Q43.71-1.43 44.46-1.85Q45.20-2.27 45.58-2.94Q45.97-3.61 45.97-4.34L45.97-6.00Q45.85-5.87 45.45-5.75Q45.06-5.64 44.55-5.55Q44.04-5.47 43.56-5.41Q43.08-5.35 42.80-5.32Q42.10-5.23 41.50-5.02Q40.89-4.81 40.52-4.41Q40.16-4.01 40.16-3.32Q40.16-2.70 40.48-2.28Q40.80-1.86 41.36-1.64Q41.92-1.43 42.64-1.43ZM51.12-2.96L51.12-14.87L53.05-14.87L53.05-3.12Q53.05-2.31 53.38-1.94Q53.71-1.57 54.47-1.57Q54.65-1.57 54.94-1.61Q55.22-1.65 55.46-1.70L55.86-0.06Q55.56 0.04 55.18 0.10Q54.79 0.15 54.42 0.15Q52.86 0.15 51.99-0.67Q51.12-1.49 51.12-2.96ZM59.43-7.20L59.43 0L57.50 0L57.50-16.01L59.43-16.01L59.43-9.10L59.10-9.10Q59.64-10.76 60.66-11.46Q61.67-12.16 63.04-12.16Q64.25-12.16 65.17-11.66Q66.09-11.16 66.60-10.16Q67.11-9.15 67.11-7.63L67.11 0L65.17 0L65.17-7.47Q65.17-8.85 64.44-9.64Q63.71-10.42 62.46-10.42Q61.60-10.42 60.91-10.04Q60.22-9.67 59.83-8.95Q59.43-8.23 59.43-7.20ZM83.79-7.20L83.79 0L81.86 0L81.86-12.01L83.72-12.01L83.73-9.10L83.46-9.10Q84.01-10.76 85.02-11.46Q86.04-12.16 87.40-12.16Q88.61-12.16 89.53-11.66Q90.44-11.16 90.95-10.16Q91.46-9.15 91.46-7.63L91.46 0L89.53 0L89.53-7.47Q89.53-8.85 88.80-9.64Q88.08-10.42 86.82-10.42Q85.96-10.42 85.27-10.04Q84.59-9.67 84.19-8.95Q83.79-8.23 83.79-7.20ZM102.33 0L100.28 0L100.28-16.01L102.69-16.01L109.20-5.77Q109.45-5.37 109.82-4.75Q110.18-4.13 110.61-3.34Q111.03-2.56 111.44-1.67L111.15-1.67Q111.05-2.59 111.01-3.43Q110.97-4.28 110.96-4.98Q110.95-5.69 110.95-6.19L110.95-16.01L112.99-16.01L112.99 0L110.56 0L104.76-9.11Q104.36-9.74 103.96-10.41Q103.56-11.09 103.04-12.00Q102.52-12.92 101.76-14.28L102.14-14.28Q102.19-13.08 102.23-12.07Q102.28-11.06 102.30-10.31Q102.33-9.56 102.33-9.13L102.33 0Z" fill="#ffffff" transform="translate(88, 34)"/>
  <line x1="88" y1="41" x2="336" y2="41" stroke="#ffffff" stroke-width="1"/>
  <path d="M1.81 0L0.88 0L0.88-7.28L3.37-7.28Q4.22-7.28 4.77-6.97Q5.32-6.66 5.58-6.13Q5.85-5.61 5.85-4.96Q5.85-4.31 5.58-3.78Q5.32-3.26 4.77-2.94Q4.22-2.63 3.37-2.63L1.61-2.63L1.61-3.45L3.33-3.45Q3.91-3.45 4.26-3.65Q4.61-3.84 4.77-4.19Q4.93-4.53 4.93-4.96Q4.93-5.39 4.77-5.73Q4.61-6.07 4.26-6.26Q3.90-6.46 3.32-6.46L1.81-6.46L1.81 0Z M10.19 0L9.27 0L9.27-7.28L11.76-7.28Q12.61-7.28 13.15-6.98Q13.70-6.69 13.97-6.19Q14.24-5.68 14.24-5.03Q14.24-4.38 13.97-3.88Q13.70-3.38 13.16-3.10Q12.61-2.82 11.76-2.82L9.78-2.82L9.78-3.65L11.72-3.65Q12.29-3.65 12.64-3.82Q12.99-3.98 13.15-4.29Q13.31-4.60 13.31-5.03Q13.31-5.46 13.15-5.78Q12.99-6.10 12.64-6.28Q12.29-6.46 11.71-6.46L10.19-6.46L10.19 0ZM14.52 0L13.45 0L11.69-3.28L12.73-3.28L14.52 0ZM20.65 0.10Q19.72 0.10 18.99-0.35Q18.26-0.81 17.84-1.64Q17.42-2.48 17.42-3.63Q17.42-4.79 17.84-5.63Q18.26-6.46 18.99-6.92Q19.72-7.37 20.65-7.37Q21.58-7.37 22.31-6.92Q23.04-6.46 23.46-5.63Q23.87-4.79 23.87-3.63Q23.87-2.48 23.46-1.64Q23.04-0.81 22.31-0.35Q21.58 0.10 20.65 0.10ZM20.65-0.76Q21.30-0.76 21.82-1.09Q22.35-1.42 22.66-2.06Q22.97-2.71 22.97-3.63Q22.97-4.57 22.66-5.21Q22.35-5.85 21.82-6.18Q21.30-6.51 20.65-6.51Q20.00-6.51 19.47-6.18Q18.94-5.85 18.63-5.21Q18.32-4.57 18.32-3.63Q18.32-2.71 18.63-2.07Q18.94-1.43 19.47-1.09Q20.00-0.76 20.65-0.76ZM29.62 0L27.86 0L27.86-0.82L29.56-0.82Q30.45-0.82 31.03-1.16Q31.62-1.50 31.90-2.13Q32.19-2.77 32.19-3.65Q32.19-4.53 31.91-5.15Q31.62-5.78 31.06-6.12Q30.49-6.46 29.65-6.46L27.82-6.46L27.82-7.28L29.71-7.28Q30.78-7.28 31.53-6.84Q32.28-6.41 32.69-5.59Q33.09-4.78 33.09-3.65Q33.09-2.51 32.68-1.70Q32.28-0.88 31.50-0.44Q30.73 0 29.62 0ZM27.35-7.28L28.28-7.28L28.28 0L27.35 0L27.35-7.28ZM39.41 0.12Q38.55 0.12 37.91-0.22Q37.27-0.56 36.92-1.14Q36.56-1.73 36.56-2.48L36.56-7.28L37.49-7.28L37.49-2.55Q37.49-2.03 37.72-1.62Q37.96-1.21 38.39-0.98Q38.82-0.74 39.41-0.74Q40.01-0.74 40.43-0.98Q40.86-1.21 41.09-1.62Q41.32-2.03 41.32-2.55L41.32-7.28L42.25-7.28L42.25-2.48Q42.25-1.73 41.90-1.14Q41.54-0.56 40.91-0.22Q40.27 0.12 39.41 0.12ZM48.95 0.10Q48.02 0.10 47.29-0.35Q46.56-0.81 46.14-1.64Q45.72-2.48 45.72-3.63Q45.72-4.79 46.14-5.63Q46.56-6.46 47.29-6.92Q48.02-7.37 48.95-7.37Q49.50-7.37 49.99-7.21Q50.48-7.05 50.87-6.74Q51.26-6.43 51.53-5.99Q51.79-5.55 51.88-4.99L50.96-4.99Q50.88-5.36 50.69-5.64Q50.50-5.93 50.23-6.12Q49.96-6.32 49.63-6.42Q49.31-6.51 48.95-6.51Q48.30-6.51 47.77-6.18Q47.24-5.85 46.93-5.21Q46.63-4.57 46.63-3.63Q46.63-2.71 46.94-2.06Q47.25-1.42 47.77-1.09Q48.30-0.76 48.95-0.76Q49.31-0.76 49.63-0.86Q49.96-0.96 50.23-1.15Q50.50-1.35 50.69-1.63Q50.88-1.92 50.96-2.29L51.88-2.29Q51.79-1.73 51.53-1.29Q51.27-0.85 50.88-0.54Q50.49-0.23 50.00-0.07Q49.51 0.10 48.95 0.10ZM57.20-6.46L54.91-6.46L54.91-7.28L60.41-7.28L60.41-6.46L58.13-6.46L58.13 0L57.20 0L57.20-6.46Z" fill="#ffffff" transform="translate(88, 57)"/>
</svg>